<svg xmlns="http://www.w3.org/2000/svg" id="uuid-3aad1a2a-0072-41af-8ce7-2d765737abab" width="275.752" height="256.464" data-name="Capa 3" viewBox="0 0 275.752 256.464"><path d="M268.183 106.13c-10.8-27.19-28.66-49.63-50-69.25-33.93-31.2-73.45-43.68-118.96-33.29C40.473 17-.397 66.79.003 127.09c0 .39.01.9.03 1.43.05 1.68.25 3.35.53 5 2.22 12.94 2.56 25.01 6.23 37.73 17.18 59.49 72.56 94.49 135.94 83.06 38.31-6.91 71.31-24.95 100.73-49.62 32.07-26.89 40.13-59.74 24.72-98.56M93.323 211.32c-7.46-.16-14.93-.24-22.38.04-5.06.19-7.19-1.32-7.17-6.84.16-50.52.04-101.03.19-151.55.01-1.64 2.02-4.65 3.18-4.69 10.59-.36 21.2-.21 32.33-.21.15 2.76.35 4.84.35 6.91.04 49.88-.01 99.76.2 149.64.02 5.21-1.93 6.79-6.7 6.7m131.75-49.64h-66.36c-1.92 0-3.84.03-5.75-.02-4.75-.11-5.99 2.22-4.73 6.51 3.19 10.92 10.06 18.23 21.23 20.73 17.01 3.8 33 1.37 47.4-9.02 1.55-1.11 3.22-2.05 4.88-3 .29-.16.8.06 2.24.22 0 6.75.21 13.65-.19 20.51-.08 1.34-2.39 2.86-3.98 3.75-25.36 14.13-51.82 16.05-78.67 5.44-19.41-7.67-32.09-30.51-30.92-52.98 1.37-26.22 15.45-45.7 40.49-52.94 37.38-10.82 75.36 10.89 74.97 56.9-.01 1.02-.32 2.04-.61 3.9m9.612-128.669c4.76-.24 7.505-3.175 7.937-7.951.401-4.432-4.102-8.328-8.744-8.1-4.311.212-8.455 4.293-7.91 8.324.632 4.681 3.179 7.769 8.718 7.727Z"/><path d="M173.343 120.47c-13.98-.49-22.83 6.88-25.04 21.9h44.89c-.06-12.78-10.83-21.59-19.85-21.9"/></svg>