<svg xmlns="http://www.w3.org/2000/svg"  fill="currentColor" id="uuid-aa15cbdd-1e06-4c12-a13f-2233aa8de0c9" width="250" height="91.659" viewBox="0 0 250 91.659"><path d="M0 60.159c.066.548.196 1.097.185 1.643C.154 63.391.066 64.979 0 66.568zM28.979.011c.57 3.634 1.132 7.27 1.711 10.902.728 4.559 1.469 9.116 2.206 13.673.557 3.447 1.124 6.892 1.663 10.342.078.502.358.665.8.767 3.359.777 6.491 2.087 9.339 4.015 6.963 4.712 11.235 11.191 12.434 19.433 1.351 9.283-1.547 17.307-8.078 24.073-2.94 3.046-6.451 5.242-10.426 6.709-3.025 1.117-6.188 1.566-9.399 1.731-.339.017-.471-.114-.442-.438.012-.135.002-.272.002-.408q-.001-44.191.005-88.384c0-.809.073-1.619.112-2.428l.072.011Zm-5.964 35.634-8.4 52.328c-.606-.379-1.13-.679-1.624-1.02-5.918-4.087-9.934-9.505-11.876-16.415-.767-2.726-.592-5.498-.691-8.264-.191-5.347 1.583-10.13 4.431-14.534 2.157-3.337 5.063-5.997 8.396-8.232 2.747-1.842 5.76-2.969 8.94-3.753.24-.059.493-.068.825-.111ZM199.518 46.03c5.779-.063 10.444 1.382 14.151 5.189 3.277 3.365 4.828 7.489 4.995 12.15.077 2.146-.041 4.279-.676 6.345-2.109 6.869-6.75 11.028-13.785 12.353-5.179.976-10.17.318-14.685-2.645-4.429-2.906-6.846-7.095-7.658-12.23-.633-3.997-.247-7.915 1.618-11.561 2.755-5.385 7.321-8.3 13.204-9.295 1.117-.189 2.257-.245 2.836-.305Zm-10.251 17.368c.006 3.792.756 7.307 3.355 10.281 3.068 3.509 7.675 4.717 11.579 2.842 3.18-1.528 5.177-4.099 6.228-7.416.807-2.547.77-5.152.309-7.748-.68-3.832-2.294-7.026-5.819-9.149-3.791-2.283-8.903-1.138-11.555 1.194-2.994 2.633-4.063 6.122-4.097 9.997Zm-66.289 2.55c4.918 5.332 9.53 10.675 14.746 15.479-2.046 0-4.038.02-6.029-.005-2.514-.032-4.556-1.162-6.19-2.96-2.291-2.522-4.473-5.141-6.703-7.718l-3.56-4.113v1.215c.002 4.223-.013 8.446.02 12.669.006.761-.214.995-.989.968a77 77 0 0 0-5.001.01c-.65.02-.859-.14-.855-.821.045-8.102.065-16.204.076-24.306.004-2.823-.022-5.646-.067-8.469-.01-.619.163-.808.809-.794 3.729.081 7.465.01 11.189.195 2.935.146 5.824.616 8.307 2.468 4.062 3.03 4.734 8.334 1.445 12.18-1.622 1.897-3.616 3.225-6.112 3.714-.278.054-.549.144-1.085.287Zm-7.732-8.652h.028q.002 2.731-.001 5.462c0 .425.027.775.605.807 2.654.149 5.114-.487 7.04-2.306 3.267-3.085 2.475-8.075-1.951-9.376-1.569-.461-3.274-.461-4.916-.676-.608-.079-.836.133-.819.785.045 1.767.015 3.535.015 5.303Zm55.569-9.833v6.318c-.193-.066-.348-.088-.468-.165-2.791-1.776-5.88-2.507-9.141-2.381-2.795.108-5.476.836-7.64 2.694-2.583 2.218-3.978 5.091-4.35 8.5-.339 3.114-.137 6.123 1.345 8.93 1.799 3.406 4.692 5.363 8.465 6.001 2.106.356 4.207.298 6.271-.402.628-.213.81-.534.807-1.144-.017-3.722.008-7.445-.024-11.167-.006-.674.137-.941.867-.919 1.746.051 3.494.04 5.241.017.533-.007.748.124.745.703-.023 4.911-.023 9.821-.011 14.732.001.555-.176.834-.721 1.037-6.033 2.242-12.18 3.007-18.418 1.075-6.76-2.094-11.076-6.608-12.053-13.68-1.267-9.174 3.276-16.646 11.856-19.817 5.508-2.036 11.15-1.884 16.795-.506.15.037.289.116.433.176Zm-69.646 34.002c-2.397 0-4.565-.014-6.734.01-.561.006-.86-.203-1.08-.713-1.002-2.324-2.048-4.629-3.051-6.952-.2-.464-.477-.618-.967-.616q-5.877.032-11.755.017c-.513-.001-.779.128-.997.646a226 226 0 0 1-3.074 6.943c-.127.276-.514.606-.788.613-2 .052-4.002.028-6.122.028l17.107-35.499.313-.034 17.148 35.558Zm-17.633-22.71-.247.049-4.457 10.104h9.289zm164.048-4.874c-.281-.17-.518-.309-.751-.454-2.906-1.809-6.022-2.867-9.483-2.352-.907.135-1.847.533-2.609 1.049-1.953 1.323-2.115 3.894-.307 5.411.954.801 2.12 1.373 3.246 1.939 1.367.688 2.785 1.278 4.195 1.879 1.944.829 3.674 1.992 5.244 3.378 3.9 3.444 3.628 10.055.462 13.565-2.128 2.359-4.884 3.334-7.899 3.804-4.128.643-8.172.047-12.188-.872-.254-.058-.652-.326-.657-.505-.047-1.968-.03-3.937-.03-5.921 1.542.594 2.984 1.26 4.492 1.705 2.329.687 4.705 1.419 7.162.83a8.8 8.8 0 0 0 2.995-1.355c2.05-1.469 2.578-4.88.086-6.673-1.638-1.177-3.46-2.112-5.251-3.059-1.539-.814-3.192-1.414-4.719-2.248-2.611-1.426-4.567-3.445-5.087-6.503-.814-4.792 1.797-8.934 6.493-10.402 4.709-1.472 9.354-.948 13.96.47.268.082.608.495.616.763.054 1.811.028 3.624.028 5.549Z"/></svg>