<svg xmlns="http://www.w3.org/2000/svg" fill="currentColor" id="uuid-2c3d4be1-4f54-41e4-a8ca-0569970608c6" width="250" height="63.171" viewBox="0 0 250 63.171"><path d="M84.355 61.14c-.269.017-.464.039-.659.039-2.807.002-5.615-.009-8.422.012-.489.004-.706-.16-.838-.63-.648-2.298-1.339-4.584-1.988-6.882-.125-.441-.315-.607-.79-.605q-5.55.03-11.101 0c-.481-.002-.709.138-.845.615-.653 2.297-1.355 4.58-2.007 6.876-.134.473-.353.63-.838.625-2.205-.023-4.411-.009-6.617-.012-.196 0-.392-.022-.658-.038.047-.226.067-.401.119-.566q3.496-11.226 6.994-22.451 2.43-7.806 4.856-15.614c.277-.892.273-.893 1.182-.893 2.99 0 5.979.009 8.969-.01.473-.003.71.122.855.602 2.877 9.509 5.771 19.013 8.662 28.517.966 3.174 1.936 6.347 2.9 9.521.083.273.141.553.226.892ZM62.108 45.663h7.995l-3.909-13.438h-.107l-3.979 13.437Zm67.587 3.971c.777-2.747 1.507-5.324 2.233-7.901 1.82-6.457 3.647-12.911 5.443-19.374.164-.589.422-.765 1.015-.754 2.023.036 4.047.012 6.07.016.23 0 .459.029.751.049-.054.255-.081.45-.135.636q-5.21 17.791-10.423 35.582c-.272.927-.556 1.851-.804 2.785-.103.388-.303.518-.696.516a869 869 0 0 0-8.695.002c-.434.002-.602-.177-.715-.565-3.178-10.922-6.365-21.841-9.552-32.76l-1.626-5.564c-.055-.188-.091-.38-.153-.64.253-.017.445-.041.637-.041 2.771-.002 5.542.013 8.313-.014.525-.005.726.182.857.667 2.07 7.654 4.157 15.304 6.24 22.955.345 1.266.685 2.534 1.03 3.8.042.153.103.301.208.607Zm-35.501-8.289V22.418c0-.797.002-.799.775-.799 2.534-.001 5.067.013 7.6-.011.535-.005.735.135.735.702q-.02 19.09 0 38.181c0 .568-.202.706-.736.701-2.552-.023-5.103-.009-7.655-.011-.713 0-.719-.006-.719-.745zM45.942 16.313c.513 1.224.999 2.381 1.482 3.539q.61 1.463 1.217 2.93.308.746-.384 1.211c-2.921 1.965-6.073 3.472-9.361 4.704-5.521 2.067-11.231 3.382-17.052 4.233-3.353.491-6.715.935-10.116.862-1.796-.038-3.558-.331-5.24-.988-3.05-1.193-4.631-3.516-4.926-6.704-.267-2.888.339-5.66 1.42-8.335.026-.065.069-.123.198-.182 0 .276.008.552-.001.828-.066 1.872.371 3.596 1.602 5.041 1.152 1.352 2.686 2.099 4.375 2.545 2.012.532 4.06.648 6.128.487 1.905-.148 3.82-.234 5.713-.484 5.165-.684 10.106-2.192 14.883-4.252 3.372-1.455 6.609-3.162 9.653-5.226.102-.069.22-.113.41-.208Z"/><path d="M.221 28.856c.279.807.505 1.637.848 2.415 1.206 2.732 3.351 4.444 6.101 5.459 1.845.681 3.762.988 5.721 1.106 4.707.284 9.301-.457 13.858-1.502 6.593-1.512 12.953-3.736 19.178-6.365 1.122-.474.969-.53 1.281.591.522 1.879 1.025 3.764 1.572 5.636.148.505.008.7-.468.872-7.583 2.749-15.318 4.993-23.154 6.883-3.572.861-7.216 1.294-10.898 1.113-2.786-.136-5.521-.609-7.984-2.024C2.802 41.044.885 37.968.23 34.059c-.291-1.734-.321-3.473-.01-5.203ZM12.743 4.51c-.576.749-1.2 1.466-1.715 2.254-.666 1.02-1.311 2.065-1.839 3.16a6.1 6.1 0 0 0-.584 2.201c-.085 1.265.375 2.3 1.746 2.861 1.773.725 3.61 1.181 5.539 1.04 2.52-.183 5-.658 7.359-1.549 2.434-.918 4.809-1.998 7.193-3.046.466-.205.654-.159.845.313a348 348 0 0 0 2.517 6.061c.189.443.139.665-.326.883-4.41 2.072-8.963 3.692-13.795 4.445-3.227.503-6.45.58-9.677-.057-2.17-.428-3.775-1.578-4.761-3.552-.666-1.332-.668-2.748-.344-4.168.421-1.844 1.322-3.468 2.384-5.008 1.436-2.082 3.168-3.904 5.01-5.626.116-.109.256-.192.385-.287z"/><path d="M2.865 43.665c.615.536 1.206 1.102 1.848 1.602 2.451 1.911 5.294 2.887 8.319 3.378 4.163.677 8.316.43 12.451-.254 5.653-.936 11.093-2.615 16.384-4.799.163-.067.335-.116.597-.206.102.611.195 1.159.283 1.707.211 1.313.402 2.629.638 3.937.082.455-.044.661-.488.779-3.502.933-6.983 1.95-10.503 2.804-2.651.643-5.335 1.194-8.033 1.586-4.522.657-8.95.247-13.122-1.782-3.663-1.782-6.416-4.506-8.234-8.161-.087-.175-.148-.363-.222-.544l.082-.049Zm7.881 11.172c2.367 1.141 4.825 1.844 7.388 2.204 2.629.369 5.267.364 7.908.188 4.42-.295 8.732-1.171 12.96-2.472.378-.116.535.006.638.346.224.732.447 1.465.704 2.186.134.376.042.561-.328.704-3.429 1.33-6.933 2.338-10.617 2.663-4.283.378-8.437-.088-12.422-1.766-2.203-.927-4.213-2.16-5.977-3.781-.091-.084-.169-.181-.254-.272M22.886.122c-.341.196-.695.373-1.021.592-1.63 1.097-3.275 2.172-4.862 3.328-.48.35-.848.9-1.159 1.423-.308.518-.097 1.012.472 1.237.419.165.87.278 1.317.331.371.044.539.171.606.546.248 1.398.521 2.792.796 4.186.068.345.003.551-.384.626-1.647.317-3.298.654-4.979.374a5.7 5.7 0 0 1-1.784-.632c-.756-.419-.942-1.182-.81-1.992.322-1.974 1.271-3.607 2.696-5.005 2.397-2.352 5.301-3.819 8.41-4.945.212-.077.433-.129.65-.192zm14.542 62.83c-4.952.28-9.826.547-14.59-.929l.008-.137c.579.045 1.157.109 1.737.131 3.824.149 7.59-.31 11.316-1.137.437-.097.682-.026.853.397.184.455.421.887.629 1.333.028.061.021.138.049.342Zm118.268-8.548c0-.912.023-1.824-.009-2.735-.019-.532.135-.778.707-.728.47.042.947.008 1.421.009 1.677.002 2.721.796 3.069 2.447.251 1.191.155 2.363-.59 3.401-.524.73-1.215 1.13-2.136 1.104a32 32 0 0 0-1.914.001c-.403.013-.556-.15-.551-.545.012-.984.004-1.969.003-2.954m.981-.035q-.002.82 0 1.641c.005 1.202-.095 1.062 1.104 1.067.661.003 1.298-.12 1.696-.702.767-1.121.786-2.327.233-3.533-.505-1.103-1.521-1.09-2.53-1.079-.387.004-.512.165-.506.528.013.693.004 1.386.003 2.078m88.424-24.085v4.633c0 .201.042.417-.021.597-.052.148-.256.37-.346.349-.158-.036-.299-.217-.407-.366-.053-.073-.015-.212-.015-.322 0-1.824-.011-3.647.012-5.471.003-.247.124-.661.275-.705.403-.116.832-.138 1.114.38.793 1.457 1.635 2.887 2.459 4.326.089.156.186.307.349.576.021-.276.043-.426.043-.576.003-1.368-.003-2.735.006-4.103.002-.269-.101-.631.369-.643.463-.012.4.338.401.617.006 1.896.012 3.793-.01 5.689-.002.208-.134.533-.288.594-.305.12-.619.047-.823-.319-.817-1.465-1.659-2.915-2.492-4.371q-.257-.45-.518-.897l-.11.01Zm-50.034 25.855v-4.141c0-.201-.044-.417.016-.597.056-.167.201-.381.349-.423.308-.088.406.153.407.423q.004 1.806.005 3.611c0 .748.02 1.496-.013 2.242-.009.213-.124.542-.276.604-.3.121-.622.063-.828-.306-.826-1.48-1.676-2.947-2.518-4.419-.168-.294-.34-.587-.608-.852v3.476c0 .565-.004 1.131-.002 1.696 0 .281-.107.503-.408.42-.151-.042-.358-.267-.359-.411a286 286 0 0 1-.002-6.072c.001-.144.185-.394.305-.408.359-.041.762-.155 1.011.297.537.974 1.1 1.933 1.652 2.898l1.139 1.986zm-33.881-14.963v3.194q-.002 1.04-.001 2.079c0 .283-.056.565-.406.475-.156-.04-.362-.298-.364-.46a258 258 0 0 1-.003-5.963c.002-.163.179-.446.304-.463.356-.049.76-.159 1.012.292.684 1.226 1.389 2.439 2.087 3.657.234.409.471.818.777 1.349.03-.255.057-.38.057-.506.003-1.404 0-2.808.004-4.212 0-.286-.052-.623.41-.605.425.017.361.344.362.602.007 1.878.013 3.757-.008 5.635-.003.23-.114.591-.275.66-.36.155-.669-.003-.887-.394-.913-1.64-1.856-3.264-2.789-4.894-.06-.105-.128-.205-.28-.447Zm31.837.181c0 1.658.004 3.316-.006 4.974a1.04 1.04 0 0 1-.15.549c-.049.074-.317.095-.399.03a.65.65 0 0 1-.222-.438c-.022-.82-.012-1.641-.013-2.461 0-1.112-.013-2.225.012-3.336.005-.218.125-.591.249-.617.364-.077.799-.203 1.065.267.698 1.238 1.408 2.47 2.115 3.704.23.402.467.801.814 1.167v-3.477q.002-.602.001-1.203c0-.279.048-.568.4-.48.154.039.352.301.357.467.034 1.02.019 2.042.019 3.063 0 .893.018 1.787-.012 2.68-.008.233-.109.595-.269.664-.357.155-.671.007-.889-.387-.802-1.452-1.637-2.885-2.46-4.325q-.255-.443-.513-.885l-.101.046Zm37.417-.018v4.526c0 .219.045.453-.018.652-.052.164-.211.369-.362.41-.306.082-.405-.152-.406-.425l-.003-.328c0-1.787-.012-3.574.012-5.361.004-.265.117-.703.28-.756.427-.139.856-.105 1.142.427.777 1.444 1.614 2.857 2.428 4.281.089.156.186.307.393.448v-.945c0-1.204-.005-2.407.004-3.611.002-.269-.098-.631.371-.641.464-.01.398.341.399.619.006 1.896.012 3.793-.01 5.689-.002.207-.135.531-.29.592-.306.12-.618.044-.822-.322-.816-1.465-1.658-2.915-2.491-4.371q-.257-.448-.518-.896zm-41.708 5.503c-.734.21-.858.159-1.105-.433-.259-.622-.536-1.238-.763-1.872-.146-.407-.374-.559-.809-.547-1.427.042-1.216-.172-1.236 1.206a64 64 0 0 0-.003 1.312c.002.282-.102.439-.413.446-.32.007-.477-.117-.476-.442q.003-3.033 0-6.066c0-.327.165-.445.48-.441.819.01 1.639-.015 2.458.01.889.027 1.529.555 1.791 1.423.245.812-.033 1.691-.752 2.163-.304.2-.32.378-.194.67.289.669.562 1.344.836 2.019.073.179.124.366.186.552m-3.909-4.863c0 .273-.026.551.011.819.018.131.154.35.237.35.669-.003 1.35.016 2.004-.101.497-.089.8-.684.745-1.206-.055-.513-.354-.841-.853-.94a5 5 0 0 0-.975-.072c-1.33.01-1.157-.177-1.169 1.151Zm47.979-9.503c-.036-.951.157-1.807.699-2.564 1.113-1.556 3.356-1.438 4.256.252.881 1.655.779 3.306-.252 4.862-.875 1.321-2.959 1.349-3.911.082a3.9 3.9 0 0 1-.792-2.631Zm4.663-.058-.146-.045c.011-.738-.053-1.46-.528-2.071-.664-.854-1.824-.843-2.476.016-.772 1.017-.78 3.155-.016 4.192.675.916 1.948.928 2.5-.062.34-.61.451-1.348.665-2.029Zm-16.718 10.793c.042-1.035.33-1.934 1.064-2.649a2.455 2.455 0 0 1 3.592.197c1.22 1.476 1.151 4.155-.143 5.574-.971 1.064-2.838.978-3.71-.171-.615-.81-.902-1.882-.802-2.952Zm4.654.261c-.166-.638-.233-1.289-.502-1.842-.573-1.178-2.076-1.242-2.721-.107-.723 1.271-.727 2.635-.003 3.908.653 1.149 2.142 1.076 2.704-.118.263-.56.348-1.203.522-1.84ZM181.556 32.44c-.239.735-.414 1.498-.731 2.197-.429.945-1.22 1.4-2.282 1.375-1.021-.024-1.706-.528-2.166-1.404-.86-1.633-.623-3.898.534-5.057a2.45 2.45 0 0 1 3.732.277c.519.702.782 1.567.778 2.567zm-1.014-.075c-.163-.613-.232-1.245-.494-1.782-.587-1.201-2.109-1.247-2.752-.076-.682 1.242-.66 2.554-.016 3.819.281.552.778.878 1.421.848.636-.03 1.128-.362 1.347-.954.216-.586.328-1.212.495-1.855Zm-12.607 3.643c-1.272.022-2.153-.452-2.653-1.526-.074-.159-.057-.499.047-.573.25-.177.511-.16.71.194.542.965 1.404 1.287 2.446.976.508-.151.815-.473.856-1.008.042-.55-.309-.847-.763-1.003-.549-.189-1.123-.307-1.68-.475-1.114-.335-1.597-1.049-1.479-2.157.09-.845.866-1.496 1.892-1.586 1.203-.106 2.141.339 2.56 1.263.072.159.046.494-.063.576-.234.176-.49.206-.698-.173a1.65 1.65 0 0 0-2.171-.685c-.39.187-.64.464-.623.934.017.462.304.688.689.811.468.149.947.26 1.421.39 1.462.401 2.002 1.085 1.837 2.325-.141 1.056-1.079 1.718-2.327 1.718Zm47.176 22c-1.286.017-2.152-.446-2.664-1.489-.097-.198-.356-.456.038-.634.298-.134.524-.114.716.231.527.95 1.417 1.277 2.454.957.507-.156.807-.485.842-1.02.034-.523-.296-.82-.728-.973-.548-.193-1.121-.313-1.679-.479-1.151-.341-1.644-1.059-1.515-2.183.099-.858.911-1.507 1.961-1.576 1.066-.07 1.944.244 2.48 1.23.113.208.319.464-.055.637-.288.133-.504.157-.704-.211-.412-.759-1.356-1.037-2.129-.687-.388.176-.66.437-.658.911.002.489.297.727.705.855.451.142.912.249 1.369.373 1.497.405 2.05 1.1 1.872 2.352-.149 1.051-1.088 1.704-2.304 1.702Zm-31.734-3.59c0-.966.011-1.932-.005-2.898-.007-.419.147-.584.577-.576 1.056.021 2.113.008 3.17.006.288 0 .552.001.55.413-.002.415-.274.405-.557.405-.747 0-1.494.013-2.241-.004-.379-.009-.522.144-.516.516.036 1.982-.266 1.578 1.534 1.624.237.006.485-.038.707.02.148.039.259.218.387.335-.127.117-.249.325-.383.335-.58.039-1.165.031-1.748.018-.346-.008-.504.125-.495.479q.019.739-.001 1.476c-.011.371.135.525.515.517.801-.016 1.603 0 2.405-.004.287-.001.5.05.499.411 0 .364-.219.408-.503.407-1.13-.003-2.259-.011-3.389.004-.39.005-.51-.175-.507-.531.008-.984.003-1.968.002-2.953Zm-19.256-.043c0-.93.016-1.86-.007-2.789-.011-.459.129-.658.622-.645 1.038.029 2.077.009 3.115.009.28 0 .558-.018.562.4.004.409-.255.418-.546.417-.729-.002-1.458.017-2.186-.006-.417-.013-.594.124-.585.561.042 1.916-.256 1.537 1.525 1.581.164.004.329-.01.492.003.253.02.599-.093.61.34s-.325.359-.586.364c-.492.009-.985.024-1.475-.003-.438-.024-.585.163-.565.579.021.436.026.876-.001 1.312-.029.467.178.6.615.586.764-.025 1.53-.004 2.295-.006.279 0 .507.03.51.399.003.357-.199.42-.491.419-1.13-.004-2.259-.01-3.389.004-.379.005-.522-.153-.518-.52.009-1.002.003-2.005.003-3.007h-.002Zm14.348-7.423c-.565 0-1.13-.009-1.694.004-.337.008-.51-.114-.509-.47q.006-3.008 0-6.015c0-.358.177-.471.512-.468 1.093.01 2.186.006 3.28.003.284 0 .5.043.501.408 0 .363-.212.412-.498.411-.765-.004-1.531.012-2.296-.004-.374-.008-.527.134-.52.511.036 1.988-.266 1.582 1.529 1.629.237.006.484-.038.707.02.149.039.263.215.392.33-.126.118-.245.329-.379.339-.562.04-1.129.041-1.693.015-.445-.02-.577.178-.558.587q.03.657 0 1.312c-.021.418.13.592.566.579.783-.024 1.567-.003 2.35-.006.284-.001.503.042.504.406 0 .361-.211.415-.498.412-.565-.005-1.13-.001-1.694-.001Zm8.566-13.943c-.015-1.228.062-2.091.527-2.876.583-.985 1.456-1.39 2.579-1.282 1.069.103 1.636.793 1.968 1.731.076.214.267.491-.141.623-.314.101-.551.108-.689-.277-.265-.739-.719-1.291-1.588-1.252-.744.034-1.296.613-1.527 1.567-.228.941-.224 1.88.139 2.794.263.662.724 1.099 1.461 1.14.631.036 1.177-.396 1.482-1.104.101-.234.11-.56.531-.47.355.077.513.202.366.592-.357.947-.906 1.671-1.99 1.798-1.177.137-2.051-.283-2.566-1.346-.296-.61-.439-1.294-.552-1.639Zm30.559 2.999c-1.02.015-1.714-.433-2.165-1.242-.789-1.415-.83-2.897-.208-4.369.489-1.157 1.497-1.692 2.741-1.541 1.145.139 1.682.863 1.998 1.97.028.098-.107.343-.186.352-.203.023-.45.005-.616-.099-.128-.081-.156-.317-.235-.482-.266-.552-.689-.91-1.314-.922-.642-.012-1.143.315-1.401.885-.553 1.222-.581 2.478-.011 3.704.262.563.741.919 1.387.91.667-.009 1.114-.395 1.398-.981.071-.147.085-.384.194-.437.18-.088.423-.096.627-.062.071.012.171.256.149.373-.225 1.195-1.181 1.949-2.36 1.942Zm-6.938 11.055c-1.001.021-1.708-.463-2.162-1.318-.727-1.371-.778-2.803-.195-4.223.441-1.074 1.269-1.654 2.476-1.629 1.39.029 1.976.892 2.288 1.965.03.104-.086.356-.16.367-.205.03-.465.033-.625-.073-.141-.093-.172-.35-.261-.529-.273-.55-.706-.897-1.331-.894-.64.003-1.132.34-1.384.913-.531 1.208-.562 2.447-.005 3.657.268.584.759.953 1.429.929.665-.024 1.106-.418 1.379-1.009.053-.116.062-.298.147-.344.177-.094.4-.171.587-.143.094.014.239.293.211.419-.26 1.201-1.171 1.914-2.393 1.912Zm-.8-11.253c-.745.183-.829.139-1.06-.534-.461-1.348-.461-1.356-1.897-1.345-.982.008-.91-.183-1.209.901-.058.211-.135.416-.19.628-.115.446-.394.512-.837.352.05-.219.085-.429.148-.631.584-1.898 1.178-3.793 1.755-5.693.108-.358.258-.558.677-.549.381.009.597.112.714.501.609 2.024 1.242 4.04 1.863 6.06.03.099.025.208.036.309Zm-2.674-5.788c-.226.734-.41 1.322-.588 1.912-.431 1.433-.67 1.276 1.032 1.288.357.003.51-.102.386-.488-.272-.847-.522-1.7-.83-2.712m35.702 16.854c-.759.158-.811.122-1.054-.559-.572-1.605-.13-1.296-1.851-1.333-.164-.004-.33.015-.492-.003-.384-.043-.564.142-.646.5-.077.337-.205.662-.288.997-.105.429-.353.563-.831.4.028-.162.039-.336.089-.498.603-1.968 1.217-3.934 1.816-5.903.098-.323.254-.502.616-.475.29.022.585-.032.702.354.646 2.126 1.303 4.249 1.953 6.374.01.032-.007.071-.015.146Zm-2.661-5.799c-.225.732-.41 1.32-.587 1.909-.431 1.431-.672 1.278 1.03 1.29.355.002.512-.099.388-.486-.272-.847-.522-1.7-.831-2.713m-34.746 5.792c-.757.17-.819.13-1.061-.546-.58-1.619-.119-1.316-1.901-1.335-.975-.01-.902-.186-1.203.906-.053.193-.129.381-.173.576-.098.428-.345.571-.83.41.031-.177.045-.368.1-.546.598-1.951 1.208-3.898 1.799-5.851.108-.357.295-.494.667-.486.347.008.576.075.69.454.616 2.041 1.254 4.074 1.881 6.112.03.097.022.206.031.306m-2.671-5.791c-.222.719-.405 1.289-.574 1.863-.437 1.487-.76 1.328 1.079 1.332.314 0 .436-.121.338-.438-.269-.866-.531-1.734-.843-2.756Zm-47.81-5.262c.043-.196.071-.388.127-.571.594-1.933 1.198-3.863 1.785-5.798.105-.345.268-.511.653-.506.374.005.602.091.722.489.608 2.024 1.242 4.04 1.863 6.06.031.1.031.21.045.312-.728.201-.832.149-1.06-.515-.467-1.358-.467-1.367-1.89-1.355-1.012.008-.919-.185-1.233.943-.054.193-.126.381-.174.575-.11.441-.382.528-.838.367Zm2.515-5.793c-.312 1.01-.569 1.862-.84 2.709-.102.318-.048.495.324.487q.518-.009 1.036-.001c.329.004.414-.148.32-.451-.269-.865-.531-1.732-.84-2.744m52.55 27.801c-.764.15-.81.117-1.054-.568-.57-1.6-.129-1.306-1.855-1.322-1.032-.01-.94-.19-1.249.918a11 11 0 0 1-.177.575c-.164.481-.197.497-.828.399.03-.17.044-.344.094-.507.604-1.968 1.217-3.933 1.816-5.903.099-.326.262-.495.62-.469.292.021.582-.024.699.359.645 2.126 1.301 4.25 1.951 6.374.01.031-.008.071-.018.144Zm-2.66-5.798c-.223.722-.407 1.309-.585 1.899-.434 1.442-.669 1.286 1.022 1.293.054 0 .135.019.159-.009.098-.113.275-.267.25-.358-.249-.904-.533-1.798-.846-2.824Zm-26.803-.99c-.227.723-.433 1.399-.651 2.072-.462 1.422-.935 2.84-1.394 4.263-.104.321-.23.542-.635.536-.392-.006-.482-.245-.575-.534l-1.906-5.88c-.044-.135-.062-.278-.091-.412.68-.26.852-.186 1.063.459.466 1.421.926 2.843 1.39 4.264.055.168.122.331.239.646.123-.348.204-.559.273-.773.453-1.406.917-2.808 1.346-4.221.147-.483.41-.593.94-.42Zm65.358-7.593v-2.784c0-.338-.022-.657.486-.661.495-.003.505.291.504.643q-.004 2.348 0 4.695 0 .797.822.798.819.002 1.637 0c.302 0 .604-.018.595.426-.008.41-.292.393-.573.393-.964 0-1.929-.014-2.892.006-.422.009-.59-.144-.583-.568.016-.982.005-1.965.004-2.948m-44.942 7.508c.619 0 1.238.004 1.856-.002.283-.003.509.039.514.399.004.347-.193.43-.491.421-.291-.009-.585.023-.873-.006-.479-.047-.578.187-.574.613.017 1.657.005 3.314.006 4.97 0 .292-.015.538-.417.553-.448.017-.502-.231-.5-.585.006-1.584.003-3.168.002-4.752q0-.794-.818-.795c-.2 0-.4-.006-.601-.002-.277.006-.451-.081-.452-.401-.002-.311.152-.417.438-.415.637.005 1.274.001 1.911.001v-.002ZM170.34 43.86c0-.819-.021-1.639.008-2.458.016-.464-.166-.62-.607-.583-.289.024-.592.045-.869-.018-.154-.035-.368-.244-.371-.379s.221-.391.35-.394q1.965-.045 3.93-.004c.137.003.349.225.387.38.07.284-.12.426-.416.417-.273-.008-.549.025-.818-.005-.516-.057-.7.129-.689.667.031 1.638.012 3.277.009 4.916 0 .255.024.525-.359.548-.346.021-.561-.061-.555-.467.012-.874.004-1.748.004-2.622h-.003Zm46.077-.377c0-.964.004-1.929-.002-2.893-.002-.351.056-.593.502-.591.463.002.481.279.481.611v5.732c0 .327-.006.611-.473.618-.492.007-.511-.283-.509-.638.005-.946.002-1.893.002-2.839Zm-60.72-.062c0-.946.005-1.893-.003-2.839-.003-.357.069-.589.509-.584.418.005.474.237.474.563q-.004 2.92 0 5.842c0 .331-.068.552-.48.557-.445.005-.504-.239-.502-.591.006-.983.002-1.965.002-2.948m42.34-11.029c0-.964.003-1.929-.002-2.893-.002-.335.074-.552.483-.554.398-.001.5.192.499.538q-.007 2.948 0 5.896c0 .356-.122.528-.511.526-.418-.003-.472-.239-.471-.565.004-.983.001-1.965.001-2.948Zm27.789.029c0-.964.005-1.929-.003-2.893-.003-.358.071-.589.51-.583.418.005.473.239.473.564q-.003 2.92 0 5.841c0 .332-.069.552-.481.556-.446.004-.503-.241-.501-.591.006-.964.002-1.929.002-2.893Zm10.745-5.642c.405.412.431.673-.076.871-.439.171-.854.402-1.293.572-.113.043-.277-.047-.417-.077.048-.134.055-.331.15-.392.531-.341 1.082-.649 1.636-.974"/></svg>