<svg xmlns="http://www.w3.org/2000/svg" fill='currentColor'  id="uuid-c87999b8-44af-448f-8524-fa4a63615aad" width="160" height="84.083" viewBox="0 0 160 84.083"><path d="M160 75.371c-.885 0-1.771.006-2.656-.004-.431-.005-.62.174-.61.615.016.702.007 1.406-.009 2.108-.014.616-.403 1.072-.899 1.087-.636.02-1.104-.395-1.139-1.07a23 23 0 0 1-.015-1.987c.017-.461-.128-.649-.618-.637a16 16 0 0 1-2.108-.077c-.671-.075-.907-.382-.906-.982.001-.591.312-.997.936-1.057a16 16 0 0 1 2.11-.047c.462.016.606-.156.589-.591a31 31 0 0 1-.005-1.867c.016-.703.389-1.124.98-1.14.631-.017 1.036.393 1.065 1.124.026.662.026 1.325.016 1.988-.007.44.181.603.62.596.882-.016 1.765.008 2.648.015v1.928ZM80.372 5.76c.68-.824 1.307-1.577 1.926-2.336.788-.965 1.585-1.924 2.345-2.91.29-.376.622-.518 1.082-.51 1.208.019 2.416.015 3.624.015l58.046.01c1.512 0 1.512.006 1.512 1.483v31.391c0 .906-.005.9-.906.858a39 39 0 0 0-1.81-.036c-19.57-.002-39.14-.025-58.71.039-1.697.006-3.027-.259-4.128-1.611-.628-.771-1.457-1.38-2.209-2.047-.621-.551-.842-.556-1.45-.032-1.005.867-2.039 1.705-2.98 2.637-.75.743-1.536 1.039-2.618 1.036-13.369-.039-26.738-.026-40.106-.023q-11.869.005-23.738.014c-.935 0-.931.001-.93-.949L9.325.855C9.324.022 9.355 0 10.217 0 31.74.005 53.263.01 74.786.004c.486 0 .821.13 1.136.515 1.261 1.539 2.554 3.051 3.838 4.572.167.198.349.384.611.669Zm-6.799 22.729.096-.203c-4.923-2.299-7.833-6.041-7.761-11.527.072-5.516 3.156-9.137 8.077-11.379a1.2 1.2 0 0 0-.454-.041c-1.058.123-2.114.26-3.173.377-5.129.568-10.113 1.682-14.769 3.979-1.796.886-3.444 2.003-4.726 3.576-1.466 1.798-1.956 3.888-.698 6.141.715 1.281 1.757 2.24 2.874 3.129 2.489 1.981 5.42 3.064 8.444 3.848 2.368.614 4.794 1.012 7.207 1.436 1.616.284 3.254.447 4.882.664Zm11.226-.158c.409 0 .729.036 1.037-.006 2.451-.328 4.912-.601 7.347-1.024 3.248-.564 6.311-1.727 9.317-3.064 1.863-.828 3.425-2.03 4.742-3.546 1.65-1.898 2.266-4.491.569-6.976-.747-1.094-1.694-1.936-2.764-2.652-2.668-1.785-5.618-2.953-8.708-3.769-2.939-.777-5.914-1.378-8.947-1.663-.997-.094-1.992-.206-2.987-.309 5.053 2.473 8.204 6.269 8.003 12.014-.178 5.079-2.953 8.678-7.61 10.994Zm52.413 29.475c-1.124.063-2.247.158-3.371.183-4.929.109-9.859.221-14.789.287-4.61.062-9.22.083-13.83.097-16.568.049-33.136.102-49.705.122-4.912.006-9.824-.079-14.736-.147-4.005-.055-8.01-.126-12.014-.229-1.948-.05-3.894-.19-5.843-.334 1.697-.044 3.394-.108 5.092-.127 5.777-.066 11.554-.142 17.331-.166a20923 20923 0 0 1 48.194-.154c5.455-.01 10.91.058 16.365.114 2.916.03 5.832.137 8.748.16 2.695.021 5.391-.043 8.087-.034 3.442.012 6.883.06 10.325.095.056 0 .112.028.168.043l-.021.089ZM51.076 39.928c0 .51-.002.879 0 1.249.021 2.73.035 5.46.073 8.189.007.508-.197.696-.677.662-.261-.018-.523-.038-.784-.029-1.027.036-.94.01-.937-1.012.008-3.172 0-6.344-.005-9.516-.001-.811.031-.855.838-.862.805-.007 1.61.006 2.415-.015.404-.011.664.135.895.475 1.186 1.742 2.398 3.468 3.599 5.2.8 1.154 1.595 2.311 2.397 3.463.204.294.429.573.695.927.169-.192.308-.325.417-.479 2.09-2.975 4.184-5.947 6.253-8.937.323-.467.691-.675 1.252-.652.804.032 1.61.022 2.415.02.401-.001.573.165.572.581-.008 3.413-.009 6.826.005 10.239.002.458-.189.619-.615.583a7 7 0 0 0-.362-.019q-1.365-.044-1.365-1.378-.002-3.915-.006-7.829c0-.218 0-.436-.141-.736-.241.294-.502.574-.719.884-2.039 2.911-4.065 5.832-6.116 8.735-.123.174-.419.301-.643.316-.601.039-1.207-.013-1.809.007-.411.014-.644-.158-.876-.495-2.143-3.109-4.308-6.202-6.469-9.299-.042-.06-.111-.101-.302-.272m74.955 32.707c-.765 2.112-1.538 4.22-2.289 6.337-.187.526-.611.435-.996.461-.372.025-.724.008-.866-.455a45 45 0 0 0-.673-1.995c-.499-1.394-1.009-2.785-1.618-4.165.039.679.098 1.357.113 2.036.038 1.705.052 3.411.084 5.116.007.369-.175.5-.519.494-.483-.009-.967-.023-1.449-.002-.455.02-.596-.193-.593-.617.011-1.465 0-2.931 0-4.396 0-2.148.013-4.296-.01-6.444-.006-.59.166-.838.794-.777.598.059 1.206.03 1.81.02.426-.007.616.16.748.591.674 2.205 1.397 4.395 2.105 6.59.036.11.101.211.217.446.146-.346.267-.584.35-.834.698-2.114 1.394-4.229 2.079-6.347.112-.345.314-.471.669-.459.583.021 1.169.04 1.75.003.563-.036.741.193.735.733-.022 2.128-.015 4.256-.016 6.384 0 1.486-.011 2.971.01 4.457.007.498-.173.692-.674.655-.46-.034-.925-.018-1.388-.009-.358.007-.516-.154-.505-.508l.2-6.494c.009-.278.024-.556.036-.833l-.106.014Zm-3.369-22.419c-1.722-.124-3.446-.219-5.164-.389-.55-.054-1.091-.278-1.617-.476-1.231-.462-1.952-1.387-2.029-2.673-.09-1.52-.077-3.05-.024-4.573.052-1.498.892-2.522 2.317-2.882 1.335-.337 2.722-.601 4.093-.639 2.328-.065 4.664.036 6.992.149.708.034 1.411.307 2.102.519 1.418.436 2.068 1.507 2.136 2.898.069 1.422.087 2.858-.034 4.275-.152 1.784-.807 2.748-2.488 3.124-1.188.266-2.407.422-3.62.536-.878.083-1.77.016-2.656.016zm.03-1.324.002-.056c.885 0 1.779.078 2.653-.022.865-.099 1.729-.32 2.555-.599.628-.212 1.006-.754 1.016-1.44.024-1.622.03-3.245.005-4.867-.011-.676-.401-1.179-.995-1.475-.409-.204-.856-.431-1.297-.456-2.004-.114-4.013-.228-6.018-.203-.985.012-1.983.268-2.945.525-.853.228-1.347.855-1.352 1.777-.007 1.504-.052 3.011.019 4.512.056 1.184.541 1.661 1.735 1.985.27.073.551.133.83.148 1.264.067 2.528.116 3.793.172ZM98.366 71.731c0-1.25.016-2.492-.008-3.733-.01-.518.173-.736.703-.699.481.034.969.053 1.448.01.55-.05.685.173.682.688-.019 3.454-.012 6.909-.014 10.364 0 .241.019.484-.003.723-.04.444-.011 1.223-.175 1.268-.578.159-1.233.119-1.842.036-.182-.025-.31-.439-.489-.718-.075.043-.199.095-.3.176-1.731 1.398-4.05.943-5.064-1.029-1.071-2.081-1.122-4.153.179-6.176.93-1.446 2.65-2.035 4.09-1.384.305.138.578.344.793.475Zm.003 4.047h-.005c0-.5.019-1.002-.009-1.5-.012-.205-.071-.456-.204-.596-.587-.619-1.909-.455-2.299.305-.625 1.216-.599 2.473-.036 3.704.255.556.828.74 1.493.572.771-.195 1.042-.486 1.059-1.163.011-.44.002-.881.002-1.321ZM17.693 50.22c-1.619-.129-3.238-.256-4.857-.389-.118-.01-.232-.063-.348-.096-2.292-.653-3.038-1.611-3.036-3.979.001-1.363-.016-2.733.102-4.088.104-1.196.81-2.11 1.976-2.418 1.291-.341 2.632-.626 3.96-.669 2.165-.07 4.342.008 6.503.165.877.063 1.751.435 2.582.776.787.323 1.371 1.648 1.161 2.455-.036.14-.254.299-.41.327-.292.052-.601.017-.903.015-1.023-.007-.955-.03-1.265-.969-.139-.422-.541-.903-.942-1.064a6.5 6.5 0 0 0-2.278-.48 77 77 0 0 0-5.597.137c-.535.031-1.062.333-1.574.554-.485.21-.745.625-.749 1.147-.015 1.805-.014 3.61-.006 5.416.002.505.24.915.715 1.093.671.251 1.361.602 2.052.621 2.108.059 4.22-.019 6.33-.05.139-.002.278-.043.414-.076 1.25-.299 1.698-.812 1.725-2.094.01-.472.152-.653.628-.619.44.032.885.017 1.328.004.319-.009.462.093.484.441.104 1.655-.493 2.663-2.082 3.159-.91.284-1.876.443-2.828.525-1.019.088-2.051.02-3.078.02l-.009.135Zm121.361 30.243c-1.892-.03-1.48.155-1.92-1.366-.419-1.451-.404-1.455-1.93-1.457-.503 0-1.006.01-1.508 0-.367-.007-.6.094-.667.511-.095.592-.271 1.171-.373 1.762-.065.378-.215.567-.626.551a27 27 0 0 0-1.809-.003c-.539.015-.593-.212-.443-.672a999 999 0 0 0 2.788-8.641c.242-.763.448-1.54.62-2.322.102-.463.32-.623.787-.592.741.049 1.49.013 2.228.085.212.021.517.248.582.446.678 2.054 1.32 4.121 1.965 6.186.49 1.568.968 3.139 1.454 4.708.227.733.183.801-.569.805h-.579Zm-2.865-5.135-1.141-4.685-.194.007-1.04 4.678zM110.588 45.95c0 .53.047.956-.009 1.369-.129.95-.546 1.69-1.527 2.051-1.084.399-2.168.729-3.339.722-2.113-.013-4.231.079-6.337-.042-1.08-.062-2.169-.406-3.198-.776-.949-.341-1.566-1.152-1.618-2.157a68 68 0 0 1-.053-5.584c.034-1.077.735-1.799 1.714-2.212 1.278-.54 2.63-.763 4.006-.754 2.21.016 4.422.037 6.627.164.804.046 1.611.346 2.381.626.972.354 1.636 1.593 1.448 2.592-.027.144-.228.323-.379.359-.247.059-.519.013-.781.011-1.134-.009-1.098-.021-1.446-1.045a1.85 1.85 0 0 0-.723-.901c-.377-.236-.85-.371-1.298-.436a23.6 23.6 0 0 0-6.852.007c-.466.069-.913.288-1.357.467-.585.235-.885.71-.891 1.317-.019 1.804-.011 3.608.003 5.413.005.623.405 1.012.94 1.206.542.197 1.12.402 1.686.411 2.149.034 4.306.092 6.446-.056 1.659-.115 2.075-.706 2.253-2.347.016-.144.193-.38.306-.386.657-.037 1.317-.018 1.998-.018Zm-37.321 3.886c.112-.179.217-.362.336-.536 2.302-3.34 4.615-6.672 6.897-10.025.295-.434.623-.647 1.127-.648.845-.001 1.693-.053 2.533.005.283.019.639.244.805.483 1.636 2.359 3.234 4.744 4.852 7.115.668.978 1.362 1.939 2.04 2.91.146.209.276.43.54.843-.873 0-1.577.015-2.28-.014-.12-.005-.259-.176-.344-.3-.476-.696-.953-1.392-1.398-2.108-.215-.345-.473-.498-.883-.497-3.159.006-6.318-.015-9.476.012-.281.002-.647.223-.824.455-.448.589-.831 1.232-1.201 1.875-.261.453-.609.656-1.13.631-.511-.024-1.025-.005-1.537-.005zm13.834-3.937c-.015-.134-.006-.182-.026-.211-1.211-1.799-2.415-3.603-3.643-5.39-.434-.631-.81-.639-1.271.007-1.061 1.487-2.082 3.002-3.115 4.509-.229.334-.44.681-.699 1.084zm-41.078 4.049c-.824.038-1.479.095-2.132.079-.17-.004-.38-.209-.494-.374-.502-.726-.956-1.486-1.475-2.2-.138-.189-.44-.365-.669-.368-3.2-.03-6.399-.038-9.599-.015-.256.002-.592.216-.749.433-.492.682-.906 1.418-1.374 2.118-.101.152-.294.331-.454.34-.669.038-1.341.016-2.137.016.163-.283.24-.439.337-.582 2.193-3.221 4.418-6.42 6.564-9.672.554-.839 1.153-1.276 2.16-1.125.335.05.69.06 1.024.008.939-.145 1.485.257 2.005 1.038 1.969 2.958 4.021 5.861 6.035 8.789.304.442.575.908.956 1.515Zm-5.196-4.038c-.094-.22-.129-.355-.202-.464-1.176-1.727-2.351-3.454-3.54-5.172-.432-.624-.824-.629-1.264.002-1.183 1.697-2.345 3.409-3.51 5.119-.093.136-.142.302-.239.515zm107.188 25.617c-.789-.736-1.655-.995-2.617-.948a1.9 1.9 0 0 0-.694.164c-.701.319-.806.962-.178 1.402.587.411 1.25.718 1.892 1.046.411.21.853.357 1.267.562 1.19.588 2.016 1.433 2.065 2.86.052 1.52-.612 2.647-1.893 3.386-1.556.898-3.205.818-4.832.209-.576-.215-1.091-.595-1.631-.903-.39-.223-.482-.512-.189-.886.322-.411.636-.827.959-1.237.219-.278.405-.139.666-.005.721.371 1.476.677 2.22 1.002.088.038.197.038.297.04.784.015 1.443-.357 1.566-.88.119-.51-.199-.94-.993-1.331-.901-.444-1.821-.851-2.7-1.333-1.274-.698-1.944-1.778-1.827-3.261.113-1.438.975-2.388 2.229-2.9 1.973-.806 3.826-.457 5.457.924.103.087.165.382.098.485-.348.534-.743 1.037-1.162 1.605Zm-62.996.794c.452-.315.735-.5 1.005-.703.658-.493 1.409-.691 2.213-.655 1.335.06 2.467 1.203 2.53 2.679.09 2.105.076 4.215.117 6.322.007.365-.148.509-.501.502-.584-.011-1.168-.023-1.751-.004-.423.014-.562-.16-.557-.572.019-1.446.031-2.893.002-4.338-.01-.515-.075-1.051-.246-1.531-.094-.262-.436-.544-.715-.611-.792-.188-1.76.643-1.763 1.452-.006 1.647-.015 3.294.008 4.941.007.489-.137.701-.652.665-.521-.037-1.047-.023-1.57-.01-.406.011-.577-.148-.576-.567.007-2.731 0-5.463-.009-8.194-.001-.392.116-.624.557-.565.079.011.161 0 .241.002.768.015 1.723-.296 1.668 1.187Zm-26.041 7.034c-.168.144-.294.237-.403.347-.909.927-2.025 1.103-3.224.814-1.196-.288-1.661-1.257-1.788-2.329-.16-1.349-.169-2.717-.216-4.078-.028-.801-.004-1.605-.008-2.407-.002-.407.116-.634.601-.588.538.051 1.085.036 1.628.019.43-.014.595.115.583.586-.039 1.624-.026 3.249-.03 4.874q-.001.241.029.48c.12.873.455 1.209 1.151 1.164.76-.049 1.429-.657 1.435-1.363.015-1.665.025-3.331-.011-4.995-.013-.594.134-.851.771-.765.435.059.886.047 1.325.014.553-.042.736.166.727.722-.033 2.026-.024 4.052-.027 6.078 0 .642-.004 1.284.025 1.925.019.425-.109.655-.575.607-.179-.018-.362.003-.543-.002-1.35-.043-1.087.16-1.45-1.104Zm-35.349-7.07c.252-.189.466-.42.731-.535.652-.284 1.31-.656 1.997-.739 1.417-.172 2.362.546 2.681 1.938.164.717.24 1.465.259 2.201.04 1.564.002 3.129.026 4.694.007.477-.162.649-.633.622a12 12 0 0 0-1.507.003c-.511.036-.65-.167-.646-.66.014-1.623-.018-3.247-.034-4.871q-.002-.12-.013-.24c-.064-.901-.381-1.315-1.009-1.32-.9-.007-1.599.594-1.608 1.442-.018 1.645-.024 3.29.008 4.935.011.552-.155.765-.719.714a10 10 0 0 0-1.447-.005c-.499.028-.668-.175-.665-.668.017-2.307.007-4.614.006-6.921 0-.361.021-.724-.005-1.083-.036-.503.119-.778.675-.668.019.004.04.002.06.002.422.01.918-.112 1.243.07.287.161.382.662.6 1.089m-15.693-.926c-.714-.288-1.316-.675-1.958-.761-1.409-.187-2.442.653-2.932 2.306-.423 1.429-.282 2.824.527 4.107.887 1.406 2.783 1.639 3.948.447.408-.417.623-.373.926.058.23.327.513.617.775.922.293.341.243.588-.102.907-2.475 2.283-6.979 1.574-8.518-1.985-1.117-2.584-.763-6.063 1.752-8.113 1.9-1.549 4.717-1.518 6.531.126.121.11.188.455.107.579-.337.518-.74.994-1.057 1.406Zm99.397-.491c2.449.095 4.482 2.199 4.451 4.741-.013 1.092-.214 2.164-.85 3.094-1.778 2.6-5.356 2.61-7.106-.011-1.48-2.217-1.294-5.656 1.586-7.191.586-.312 1.276-.428 1.919-.634Zm1.674 4.788c-.138-.5-.213-1.155-.496-1.704-.455-.881-1.621-.906-2.204-.12-.714.963-.76 2.841-.092 3.82.317.464.743.743 1.32.663.583-.08 1.02-.407 1.177-.981.135-.497.184-1.017.296-1.678Zm-89.731.105c.026.958-.195 1.963-.782 2.87-1.586 2.447-4.878 2.695-6.813.516-2.016-2.27-1.518-6.005 1.008-7.521 1.323-.794 2.707-.914 4.075-.175 1.511.816 2.435 2.065 2.512 3.839.005.12 0 .241 0 .472Zm-2.689.079c-.168-.615-.268-1.228-.507-1.782-.227-.527-.692-.819-1.316-.755-.606.062-1.011.395-1.204.948a4.66 4.66 0 0 0-.003 3.121c.192.559.611.908 1.2.961.594.053 1.096-.235 1.331-.757.239-.532.332-1.129.499-1.737Zm51.129 1.791c.269-1.125.531-2.252.81-3.375.218-.876.469-1.745.68-2.623.092-.381.289-.533.679-.512.462.026.926.008 1.389.013.709.007.762.065.532.718-.561 1.589-1.14 3.172-1.707 4.759s-1.081 3.195-1.703 4.761c-.808 2.035-2.096 2.796-4.28 2.702-.436-.019-.589-.203-.531-.594.07-.476.119-.964.276-1.412.055-.158.393-.242.617-.31.413-.126.921-.105 1.237-.345.529-.401.693-1.028.438-1.685-.75-1.926-1.515-3.845-2.267-5.77a95 95 0 0 1-.843-2.255c-.156-.43-.056-.646.468-.587.438.05.89.058 1.327.008.662-.076.91.229 1.07.831.468 1.765.995 3.513 1.503 5.267.042.146.111.283.167.425l.138-.018Zm7.75-.894c.075.884.664 1.56 1.527 1.61.683.039 1.395-.075 2.064-.24.44-.108.694-.071.869.341q.038.082.08.162c.583 1.148.573 1.174-.624 1.656-2.773 1.117-5.639-.099-6.438-2.731-.742-2.444.093-4.882 2.058-6.013 2.203-1.269 4.813-.287 5.519 2.149.223.768.184 1.614.24 2.426.033.468-.242.616-.686.611-1.288-.016-2.576-.009-3.864-.007-.236 0-.473.023-.745.037Zm2.875-2.002c-.04-1.045-.395-1.501-1.153-1.59-.73-.085-1.541.42-1.732 1.12-.036.133.089.448.148.45.912.029 1.825.02 2.738.02Zm-38.767 1.209c0-.643-.017-1.286.006-1.928.015-.436-.152-.644-.594-.612-.525.039-.742-.196-.665-.718.023-.157.006-.321.007-.481.008-.95.006-.963.925-1.055.346-.035.499-.172.517-.521.025-.48.095-.958.131-1.438.029-.393.209-.58.619-.55.461.033.931.004 1.383.079.164.027.39.264.414.431.061.413.048.843.015 1.262-.042.535.128.794.707.733a5 5 0 0 1 1.025.016c.139.013.382.12.385.192.022.597.016 1.197-.031 1.792-.006.078-.291.178-.453.189-.401.028-.811-.029-1.204.032-.162.025-.409.266-.413.413a55 55 0 0 0 .009 3.433c.032.846.461 1.185 1.424 1.146.495-.02.695.101.768.633.2 1.46.232 1.456-1.304 1.606-2.189.214-3.464-.845-3.615-3.03-.037-.539-.006-1.083-.006-1.624zm-4.891-4.96c1.015-.048 1.893.343 2.697.899.139.096.134.415.168.635.009.059-.08.133-.123.201-.216.338-.365.843-.667.962-.261.103-.686-.271-1.057-.365-.421-.107-.866-.2-1.293-.176-.216.012-.542.268-.588.467-.047.201.138.522.316.691.193.183.493.256.75.37.532.237 1.079.445 1.597.708.958.487 1.504 1.283 1.496 2.359-.007 1.066-.53 1.91-1.481 2.383-1.869.929-3.666.616-5.381-.46-.05-.032-.116-.07-.133-.119-.243-.706.381-1.062.647-1.561.182-.342.433-.291.761-.143.577.262 1.175.504 1.789.648.428.1.949.029 1.095-.5.144-.523-.324-.723-.687-.928-.836-.474-1.736-.856-2.508-1.416-1.035-.752-1.173-2.371-.377-3.343.61-.745 1.399-1.195 2.375-1.28.2-.017.402-.021.603-.031Zm107.965-20.945c-2.092 0-4.184-.017-6.276.011-.546.007-.755-.156-.753-.71.015-3.332.017-6.664-.003-9.995-.003-.589.225-.765.786-.749 1.903.056 1.607-.226 1.619 1.581.016 2.549.003 5.098.006 7.647 0 .893.005.909.931.911 3.34.008 6.68.004 10.02.007.359 0 .751-.065.771.498.022.618-.075.743-.702.744h-6.398v.055ZM48.731 72.618c.236-.262.445-.501.661-.732.7-.75 1.569-.995 2.574-.879.329.038.412.194.357.481-.11.57-.197 1.147-.352 1.705-.037.135-.307.3-.462.293-1.659-.07-2.513.716-2.517 2.368-.003 1.304-.016 2.608.013 3.91.011.502-.109.748-.666.703-.519-.042-1.045-.021-1.567-.007-.395.01-.592-.128-.591-.554q.01-4.151.001-8.303c0-.347.109-.519.493-.49.52.039 1.152-.135 1.531.105.319.202.345.865.526 1.399Zm89.52-7c-1.147.732-2.188 1.406-3.246 2.054-.109.067-.375.028-.471-.063a5.5 5.5 0 0 1-.816-.961c-.068-.106.021-.418.139-.523a65 65 0 0 1 2.479-2.098c.126-.102.467-.15.541-.07.469.511.891 1.064 1.374 1.661"/></svg>