<svg xmlns="http://www.w3.org/2000/svg" fill='currentColor'  id="uuid-87cb32b9-8620-41b9-a1a0-b3e36c0d0a5a" width="160" height="147.363" data-name="Capa 1" viewBox="0 0 160 147.363"><path d="m98.135 38.022.004-.005-25.974 7.004c-.939.244-1.609 1.324-1.609 2.572v44.891c0 1.509.971 2.702 2.121 2.626l25.974-1.807c1.068-.054 1.906-1.212 1.906-2.608V80.338c0-1.546-1.025-2.757-2.193-2.608l-14.711 1.753c-1.182.131-2.193-1.08-2.193-2.626V58.809c0-1.27.696-2.363 1.651-2.59l15.778-3.705c.97-.222 1.668-1.306 1.668-2.59v-9.331c0-1.658-1.167-2.906-2.422-2.572Zm-36.468 9.82v.009h.004z"/><path d="m61.67 47.851-17.912 4.821c-.585.167-1.013.84-1.013 1.64v8.586c0 1.021.712 1.807 1.479 1.64l8.942-1.975c.767-.167 1.479.615 1.479 1.658v17.285c0 .858-.498 1.582-1.154 1.658L41.9 84.56c-.657.09-1.154.8-1.154 1.677v9.314c0 .967.611 1.713 1.34 1.677l19.897-1.379c.683-.054 1.208-.782 1.208-1.677V49.489c0-1.061-.736-1.86-1.52-1.64Zm7.833 4.51.006.009-.003.01c.041.018.083.054.127.09a.4.4 0 0 1 .142.09c.041.018.082.054.127.09.041.018.083.054.127.072.042.036.083.072.128.09.014.018.028.018.042.018v-.709l-.712.221.014.018Zm35.511-10.76h.008l-.004.014c.042.037.083.055.128.091.054.036.099.054.14.09.042.018.083.054.128.09.041.018.082.054.128.09h.013v-.596l-.597.167s.041.036.054.054Zm-.259 35.293.136.096.006.004a3 3 0 0 0-.142-.1"/><path d="M135.268 15.418c0-1.961-.686-3.769-1.876-4.957h.011l.017.005a4.5 4.5 0 0 0-.846-.669l-.318-.23-.243-.204-.116-.049-.144-.127-.042-.018-.107-.09-.041-.018-.08-.068-.113-.05-.16-.135-.102-.041-.425-.33-.052-.023-.183-.158-.062-.027-.157-.136-.12-.041-.066-.054-.078-.036c-.022-.014-.339-.253-.339-.253l-.159-.095-.201-.181-.058-.023-.066-.059-.156-.068c-.038-.027-.076-.059-.121-.086l-.242-.204-.093-.041-.327-.253-.038-.018-.07-.059-.038-.018-.106-.091-.024-.009-.169-.154-.167-.05-.148-.126-.031-.014-.113-.09-.094-.036c-.055-.041-.124-.082-.197-.131l-.239-.208-.038-.018-.068-.059-.153-.068c-.038-.027-.249-.186-.325-.231l-.321-.244-.02-.009-.083-.072-.041-.018-.107-.09-.041-.019-.08-.068-.155-.068-.274-.208-.041-.014-.315-.253-.037-.018-.083-.073-.12-.05-.159-.135-.114-.05-.145-.122-.079-.036c-.028-.018-.342-.24-.401-.28l-.19-.167-.024-.009-.079-.072-.059-.023-.065-.059-.16-.067-.535-.402-.066-.027-.177-.154-.04-.018-.07-.059-.159-.068-.249-.176-.243-.204-.03-.013-.114-.091-.11-.045-.153-.131-.04-.018-.08-.068-.038-.018-.106-.09-.024-.009-.066-.059-.173-.077-.391-.298-.082-.036c-.028-.023-.058-.041-.093-.063l-.18-.159-.042-.018-.204-.176-.183-.059a3.9 3.9 0 0 0-2.001-.565c-.421 0-.846.072-1.295.235L28.255 33.318c-2.076.768-3.524 3.28-3.524 6.118v26.391c0 1.871.628 3.606 1.683 4.709q.534.582 1.144.927l.259.217.03.013.094.077.055.023.235.221.145.045.1.041c.037.027.251.186.331.235l.335.303.141.05.075.063.035.014.097.081.054.023.181.158.068.023.142.126.163.05c.038.027.393.276.435.303l.259.217.116.05.16.131.031.014.083.068.099.041c.049.032.301.212.36.253l.208.181.034.014.066.059.159.072.29.258.093.032.02.018.094.036c.024.018.594.411.594.411l.204.172.035.014.116.09.076.032c.049.037.421.294.478.33l.197.172.163.068.068.046.335.298.107.036.111.082.034.018.11.09.038.019.093.077.166.068s.905.642.943.664l.205.181.04.018.07.059.116.05.16.131.055.023.253.226.11.036.106.09.035.014.069.059.048.023.193.167.163.05.249.204.08.036.041.032.218.204.177.072.159.135.031.014.065.059.128.055.148.122.031.013.117.091.048.023.232.208.131.045.103.086.045.018.093.077.031.014.159.14.083.027.137.126.035.014c-1.824.746-3.109 2.964-3.109 5.585V95.5c0 1.645.522 3.213 1.336 4.185.363.474.809.867 1.289 1.148l.297.239.024.009.093.072.028.014.092.076.142.059c.028.018.19.131.19.131l.208.172.031.014.096.077.035.018.106.086.09.036c.041.027.193.135.225.158l.211.181.034.014.093.077.135.059.054.036.367.317.124.045.1.077.027.009.051.045.038.018.205.181.163.05.162.135.035.018.1.077.068.027c.018.014.363.253.394.276l.194.167.028.014.051.045.145.068.221.159.355.312.124.036.094.068.134.109.028.014.169.154.191.059s.106.077.152.108l.384.303.02.009.093.077.055.027.18.149.051.018.097.086.138.059.141.118.031.014.103.081.048.018.243.217.117.036.11.095.059.022.082.073.034.018.187.159.049.018.137.126.157.05c.026.023.393.276.451.308.014.009.259.226.259.226l.132.054.152.122.028.014.107.086.082.036.287.217.052.018.227.19.028.014.052.046.148.068.283.257.107.036.059.041.092.073.066.027.249.212.138.045.127.086.214.176.069.027s.177.131.242.172l.318.248.055.023.094.077.027.014.19.163.184.077.256.199.159.05a3.4 3.4 0 0 0 1.641.434h.163l20.016-1.387c1.932-.168 3.522-1.93 4.029-4.262l.106.077.291.248.068.032.432.266.059.05.089.054.373.28.208.122.57.411.1.081.183.104.253.226.155.063.153.127.1.041.501.357a4.45 4.45 0 0 0 2.826.976l26.1-1.812c2.778-.167 4.954-3.15 4.954-6.796V89.459c0-1.907-.604-3.724-1.672-4.994a4.7 4.7 0 0 0-.885-.859l-.265-.199-.287-.239-.181-.073-.352-.275-.093-.041c-.038-.027-.255-.19-.321-.226l-.205-.185-.144-.059-.144-.122-.032-.014-.072-.063-.304-.181-.321-.231-.3-.253-.198-.082-.725-.524-.131-.118-.065-.027-.093-.077-.131-.054-.141-.099-.062-.072-.294-.177-.215-.154-.293-.248-.131-.054-.152-.127-.128-.054c-.031-.023-.39-.284-.414-.303l-.224-.199-.084-.036-.065-.054-.131-.054-.331-.235a5 5 0 0 0-.253-.176l-.283-.249-.048-.023-.076-.072-.144-.059-.145-.122-.031-.014-.097-.077-.137-.059-.387-.28-.145-.149-.26-.122-.405-.288-.015-.01s.031.023.034.027l-.359-.253-.294-.244-.038-.018-.068-.059-.148-.063-.201-.154-.134-.072-.37-.271-.19-.168-.177-.077s-.704-.506-.771-.547l-.235-.194-.052-.023-.072-.059-.1-.045-.152-.127-.107-.045s-.259-.181-.276-.19c-.813-.624-1.731-.949-2.671-.949-.141 0-.287.01-.448.028l-.233.027v-4.262l14.791-3.475c1.717-.398 3.109-1.866 3.807-3.832l.145.104.038.014.148.104.277.226.117.05.183.163.144.059c.032.023.201.149.249.181.072.054.16.117.259.176.025.018.135.095.163.117l.211.181.118.05c.701.479 1.482.727 2.263.727.289 0 .576-.032.877-.104l9.663-2.341c2.315-.538 4-3.172 4-6.254V15.418Zm-2.825 40.051c0 1.27-.698 2.363-1.651 2.589l-9.684 2.346c-.47.108-.939 0-1.354-.298a.5.5 0 0 0-.128-.09c-.041-.036-.082-.054-.127-.09s-.083-.054-.127-.09-.082-.055-.128-.091a.4.4 0 0 1-.14-.09c-.042-.018-.084-.054-.128-.09-.041-.018-.082-.054-.127-.09-.041-.018-.083-.054-.127-.09-.042-.018-.084-.054-.128-.072a.5.5 0 0 0-.128-.091c-.055-.036-.1-.072-.141-.09-.041-.036-.083-.054-.127-.09-.045-.036-.083-.054-.128-.09-.044-.036-.082-.054-.128-.09-.04-.018-.082-.055-.126-.091-.042-.018-.084-.054-.128-.09-.056-.018-.082-.054-.141-.09-.041-.018-.083-.054-.127-.072-.042-.036-.083-.072-.128-.09a.5.5 0 0 0-.128-.09c-.041-.036-.082-.054-.126-.09-.046-.036-.083-.054-.128-.091-.044-.036-.082-.054-.128-.09a.4.4 0 0 1-.14-.09c-.042-.018-.083-.054-.128-.09-.042-.018-.083-.054-.128-.09-.041-.018-.082-.054-.127-.072a.5.5 0 0 0-.127-.091c-.042-.036-.083-.072-.128-.09-.055-.036-.1-.054-.141-.09s-.083-.054-.127-.09c-.045-.036-.083-.054-.128-.09-.041-.018-.082-.054-.127-.09-.041-.018-.083-.054-.127-.091-.042-.018-.083-.054-.128-.09-.055-.018-.082-.054-.141-.09-.041-.018-.083-.054-.127-.072-.042-.036-.083-.072-.128-.09-.042-.036-.082-.054-.127-.09s-.083-.054-.128-.09-.083-.055-.127-.091c-.042-.018-.083-.054-.128-.09a.4.4 0 0 1-.141-.09c-.013-.018-.041-.018-.069-.036v2.982c0 1.509-.811 2.793-1.938 3.055l-15.778 3.705c-.797.186-1.368 1.08-1.368 2.124v9.648l3.334-.393c.512-.054 1.025.109 1.451.447.041.036.082.054.128.09.04.036.099.054.14.091.042.036.083.054.128.09.042.018.082.054.128.09.041.018.082.054.127.09.041.018.083.054.127.072.042.036.083.072.128.09.041.036.082.054.127.09.055.037.1.054.141.09.042.037.083.055.128.091.041.036.082.054.127.09.041.036.083.054.127.09.042.018.083.054.128.09.041.018.082.054.127.09.041.018.1.054.141.09.042.019.083.055.128.073.041.036.082.054.127.09.041.036.083.054.127.09.042.036.084.054.128.09.042.036.083.054.128.09.041.036.1.055.141.091.041.018.083.054.127.09.042.018.083.054.128.09.041.018.082.054.127.072a.5.5 0 0 0 .127.09c.042.036.083.054.128.09.041.036.082.054.127.09.055.036.099.055.141.091s.083.054.128.09c.041.036.082.054.127.09.041.018.083.054.127.09.042.018.084.054.128.09.041.018.082.054.128.09.041.019.099.054.14.073.042.036.084.054.128.09.042.036.082.054.128.09.041.036.082.054.127.09.041.036.083.054.127.09.042.036.083.055.128.09.041.018.1.055.141.091.041.018.083.054.127.09.042.018.082.054.128.09.04.018.082.054.127.072a.5.5 0 0 0 .127.09c.042.036.083.054.128.09.041.036.082.054.128.09.054.036.099.055.14.091s.083.054.128.09c.041.036.082.054.128.09.04.018.082.054.126.09.042.018.084.054.128.09.042.018.083.054.128.073.041.036.1.072.14.09.042.036.083.054.128.09.042.036.082.054.128.09.044.036.082.054.126.09.042.036.084.054.128.09.042.036.083.054.128.09.041.018.1.055.141.091.041.018.083.054.127.09.042.018.083.054.128.072a.5.5 0 0 0 .127.09c.041.036.083.054.127.09.042.036.084.054.128.09.042.036.1.054.128.09.054.036.1.055.141.091s.082.054.127.09c.041.018.082.054.127.09.041.018.083.054.127.09.042.018.084.054.128.072.042.036.082.072.128.091.04.036.1.054.14.09.042.036.083.054.128.09.042.036.082.054.128.09.04.036.082.054.127.09.041.036.083.054.127.09.042.018.083.054.128.091.041.018.1.054.141.09.041.018.083.054.127.072a.5.5 0 0 0 .128.09c.041.036.082.054.127.09.041.036.083.054.127.09.042.036.084.054.128.09.042.036.1.054.128.091.054.036.099.054.14.09.042.018.083.054.128.09.041.018.082.054.128.09.04.018.082.054.126.09.042.018.084.054.128.072.042.036.083.054.128.091.055.036.1.054.141.09s.083.054.127.09c.042.036.083.054.128.09.041.036.082.054.128.09.04.018.082.054.126.091.042.018.083.054.128.09.041.018.1.054.141.09.041.018.083.054.127.072.042.036.082.054.128.09.041.036.082.054.127.09.17.131.342.262.485.447.498.578.767 1.414.767 2.273v10.357c0 1.64-.985 3-2.235 3.073l-25.974 1.807h-.127c-.457 0-.898-.167-1.282-.484-.041-.036-.083-.054-.127-.09-.042-.036-.083-.054-.128-.09-.04-.037-.082-.054-.127-.09-.041-.037-.099-.055-.127-.091-.042-.036-.1-.054-.142-.09-.04-.018-.082-.054-.126-.09-.042-.018-.084-.054-.128-.09-.042-.018-.082-.054-.128-.072-.041-.036-.082-.055-.127-.091-.041-.036-.083-.054-.127-.09-.042-.036-.1-.054-.142-.09s-.082-.054-.127-.09c-.041-.036-.083-.054-.127-.09-.042-.036-.083-.054-.128-.09-.042-.018-.082-.054-.128-.09-.041-.019-.082-.055-.127-.091a1 1 0 0 1-.127-.072c-.056-.036-.1-.054-.142-.09-.04-.036-.082-.054-.126-.09-.042-.036-.083-.054-.128-.09-.041-.036-.082-.054-.128-.09-.04-.037-.082-.054-.126-.09-.042-.037-.1-.055-.128-.091-.042-.036-.1-.054-.142-.09-.041-.018-.082-.054-.127-.09-.041-.018-.083-.054-.127-.072-.042-.036-.083-.054-.128-.09-.041-.036-.082-.055-.127-.091-.041-.036-.083-.054-.127-.09-.042-.036-.1-.054-.142-.09s-.082-.054-.127-.09c-.041-.036-.083-.054-.127-.09-.042-.036-.083-.054-.128-.09-.042-.018-.083-.054-.127-.091-.041-.018-.083-.054-.127-.072a.6.6 0 0 0-.142-.09c-.041-.036-.082-.054-.128-.09-.04-.036-.082-.054-.127-.09-.041-.036-.083-.054-.127-.09-.042-.036-.083-.054-.128-.09-.041-.037-.082-.054-.127-.09-.041-.037-.1-.055-.127-.091a.6.6 0 0 1-.142-.09c-.041-.018-.082-.054-.127-.09-.041-.018-.083-.054-.127-.072-.042-.036-.083-.054-.128-.09-.041-.036-.082-.055-.127-.091-.041-.036-.083-.054-.127-.09-.042-.036-.1-.054-.142-.09s-.082-.054-.127-.09c-.041-.036-.083-.054-.127-.09-.042-.018-.083-.054-.128-.09-.041-.018-.082-.055-.128-.091-.041-.018-.082-.054-.127-.072-.041-.036-.1-.054-.141-.09-.042-.036-.082-.054-.128-.09-.041-.036-.082-.054-.127-.09-.041-.036-.083-.054-.127-.09-.042-.037-.083-.054-.128-.09-.014 0-.027-.018-.041-.018v4.491c0 1.134-.67 2.065-1.537 2.142l-19.911 1.379h-.082c-.256 0-.484-.09-.698-.244-.055-.018-.082-.054-.141-.09-.041-.018-.083-.054-.127-.072a.5.5 0 0 0-.128-.09c-.042-.036-.082-.072-.128-.091a.5.5 0 0 0-.126-.09c-.045-.018-.084-.072-.128-.09-.055-.018-.082-.054-.142-.09-.04-.018-.082-.054-.126-.09-.042-.018-.083-.054-.128-.09-.041-.018-.082-.054-.128-.09-.04-.018-.082-.055-.127-.091-.041-.018-.083-.054-.127-.072-.056-.036-.083-.072-.128-.09-.055-.036-.082-.072-.141-.09-.041-.018-.083-.072-.127-.09-.042-.018-.083-.054-.128-.09-.041-.018-.082-.054-.128-.09-.04-.019-.082-.055-.126-.091-.056-.018-.083-.054-.128-.09-.055-.018-.082-.054-.141-.09-.041-.018-.083-.054-.127-.072-.042-.036-.083-.072-.128-.09a.5.5 0 0 0-.127-.09c-.041-.018-.083-.073-.127-.091-.042-.018-.083-.054-.128-.09-.055-.018-.082-.054-.141-.09-.041-.018-.083-.054-.127-.09-.042-.018-.084-.054-.128-.09-.042-.018-.083-.055-.128-.091-.041-.018-.082-.054-.127-.072-.041-.036-.083-.073-.127-.091-.056-.036-.083-.072-.128-.09-.054-.018-.1-.072-.141-.09s-.083-.054-.127-.09c-.042-.018-.083-.054-.128-.09-.041-.018-.082-.054-.127-.091-.041-.018-.083-.054-.127-.09-.056-.018-.083-.054-.128-.09-.055-.018-.082-.054-.141-.072a.5.5 0 0 0-.127-.09c-.042-.036-.083-.072-.128-.09-.042-.018-.082-.073-.128-.091-.04-.018-.082-.054-.127-.09-.055-.018-.083-.054-.127-.09-.056-.018-.083-.054-.142-.09-.04-.018-.082-.054-.126-.09-.042-.018-.084-.054-.128-.09-.042-.018-.083-.055-.128-.072-.041-.036-.082-.073-.127-.091a.5.5 0 0 0-.127-.09c-.055-.018-.083-.072-.142-.09-.04-.018-.082-.072-.127-.09-.041-.018-.083-.054-.127-.09-.042-.018-.083-.054-.128-.09-.041-.019-.082-.055-.128-.091-.04-.018-.082-.054-.126-.09-.056-.018-.084-.054-.128-.072-.055-.036-.083-.072-.142-.09a.5.5 0 0 0-.127-.09c-.041-.018-.082-.072-.127-.091-.041-.018-.082-.072-.128-.09-.04-.018-.082-.054-.127-.09-.055-.018-.083-.054-.127-.09-.055-.018-.082-.054-.141-.09-.041-.018-.083-.054-.127-.09-.042-.018-.084-.055-.128-.09-.042-.018-.082-.055-.128-.073a.5.5 0 0 0-.127-.09.5.5 0 0 0-.127-.09c-.056-.018-.083-.072-.142-.09-.041-.018-.082-.054-.127-.09-.041-.018-.083-.054-.127-.09-.042-.018-.083-.055-.128-.09-.041-.019-.082-.055-.127-.091-.041-.018-.083-.054-.127-.09-.056-.018-.083-.054-.128-.072-.056-.036-.082-.072-.141-.09a.5.5 0 0 0-.127-.09c-.042-.018-.083-.072-.128-.091-.042-.018-.082-.054-.128-.09-.04-.018-.082-.054-.126-.09-.056-.018-.084-.054-.128-.09-.056-.018-.083-.054-.142-.09-.041-.018-.082-.054-.127-.09-.041-.018-.083-.055-.127-.072-.042-.036-.083-.073-.128-.091a.5.5 0 0 0-.127-.09c-.041-.018-.083-.072-.127-.09-.056-.018-.083-.054-.142-.09-.041-.018-.082-.054-.127-.09-.041-.018-.083-.054-.127-.09-.042-.019-.083-.054-.128-.09-.041-.019-.082-.055-.127-.091-.041-.018-.083-.054-.127-.072-.056-.036-.084-.072-.128-.09-.055-.036-.083-.072-.142-.09-.04-.018-.082-.072-.127-.09-.041-.018-.083-.054-.127-.091-.042-.018-.083-.054-.128-.09-.041-.018-.082-.054-.127-.09a1.5 1.5 0 0 1-.556-.447c-.328-.393-.498-.949-.498-1.545v-9.314c0-1.116.629-2.029 1.465-2.124L53.55 83c.471-.054.826-.578.826-1.193v-9.074c-.028-.036-.069-.036-.114-.072-.041-.036-.082-.054-.127-.091-.045-.036-.083-.054-.127-.09-.045-.036-.1-.054-.128-.09-.041-.036-.1-.036-.127-.09h-.013c-.028-.036-.084-.036-.128-.09-.042-.036-.083-.036-.128-.072v-.018c-.041-.036-.082-.036-.126-.072-.042-.036-.084-.054-.128-.09-.045-.037-.1-.055-.128-.091-.041-.036-.1-.054-.127-.09h-.014c-.027-.036-.083-.054-.127-.09-.042-.036-.083-.054-.128-.09-.041-.036-.082-.036-.127-.09-.041-.036-.083-.036-.128-.09-.041-.036-.099-.036-.127-.073v-.018c-.042-.036-.1-.036-.128-.072-.041-.036-.099-.054-.14-.09-.028-.036-.083-.054-.128-.09-.041-.036-.082-.054-.128-.09-.041-.036-.082-.054-.126-.091-.042-.036-.084-.054-.128-.09-.042-.036-.1-.036-.128-.09-.04-.036-.1-.036-.127-.09h-.013c-.028-.036-.084-.036-.128-.072v-.018c-.042-.036-.083-.036-.128-.072-.041-.036-.082-.054-.127-.09-.041-.036-.083-.055-.127-.091-.042-.036-.1-.054-.128-.09-.041-.036-.1-.054-.128-.09h-.013c-.027-.036-.083-.054-.127-.09-.042-.036-.083-.036-.128-.09-.041-.036-.082-.036-.127-.09-.028-.019-.069-.036-.1-.055v4.433c0 1.193-.643 2.201-1.538 2.381l-5.468 1.212c-.1.018-.215.036-.315.036-.255 0-.512-.09-.738-.244-.056-.018-.084-.054-.128-.09-.055-.018-.083-.054-.142-.072a.5.5 0 0 0-.127-.09.5.5 0 0 0-.127-.09c-.041-.018-.082-.073-.128-.091-.04-.018-.082-.072-.127-.09-.055-.018-.083-.054-.127-.09-.055-.018-.082-.054-.141-.09-.041-.018-.083-.054-.127-.09-.042-.018-.084-.054-.128-.09-.042-.018-.082-.054-.128-.073a.5.5 0 0 0-.127-.09.5.5 0 0 0-.127-.09c-.056-.018-.083-.072-.142-.09-.041-.018-.068-.072-.127-.09-.041-.018-.083-.054-.127-.09-.042-.018-.083-.054-.128-.091-.042-.018-.082-.054-.127-.09-.041-.018-.083-.054-.127-.09-.056-.018-.084-.054-.128-.072-.055-.036-.082-.072-.141-.09a.5.5 0 0 0-.127-.09c-.042-.018-.083-.072-.128-.09-.041-.019-.082-.073-.128-.09-.04-.019-.082-.073-.126-.091-.056-.018-.084-.054-.128-.09-.056-.018-.083-.054-.142-.09-.041-.018-.082-.054-.127-.09-.041-.018-.083-.054-.127-.073-.042-.036-.083-.072-.128-.09-.041-.036-.082-.072-.127-.09s-.083-.072-.127-.09c-.056-.018-.083-.072-.142-.09-.041-.018-.082-.072-.127-.09s-.083-.054-.127-.09c-.042-.018-.083-.054-.128-.091-.041-.018-.082-.054-.127-.09-.041-.018-.083-.054-.127-.09-.056-.018-.083-.054-.128-.072-.055-.036-.082-.072-.141-.09-.041-.018-.083-.072-.128-.09-.041-.018-.083-.073-.127-.09-.042-.019-.083-.073-.128-.09-.041-.019-.082-.055-.127-.091-.055-.018-.083-.054-.127-.09-.056-.018-.083-.054-.142-.09-.04-.018-.082-.054-.127-.09-.041-.018-.083-.054-.127-.073-.042-.036-.082-.072-.128-.09-.04-.018-.082-.072-.127-.09-.041-.018-.083-.072-.127-.09-.056-.018-.083-.072-.142-.09-.041-.018-.082-.054-.127-.09-.041-.018-.083-.054-.127-.09-.042-.018-.083-.054-.128-.091-.041-.018-.082-.054-.128-.09-.04-.018-.082-.054-.127-.072-.055-.036-.083-.072-.127-.09-.056-.018-.082-.072-.142-.09-.04-.018-.082-.073-.126-.09-.042-.018-.084-.072-.128-.09-.042-.019-.082-.055-.127-.091-.041-.018-.083-.054-.127-.09-.056-.018-.084-.054-.128-.09-.055-.018-.083-.054-.142-.09-.041-.018-.082-.054-.127-.072a.5.5 0 0 0-.127-.091c-.042-.036-.083-.072-.128-.09-.041-.018-.082-.072-.127-.09-.041-.018-.083-.072-.127-.09-.056-.018-.084-.054-.142-.09-.042-.018-.082-.054-.128-.09-.04-.018-.082-.054-.126-.091-.042-.018-.083-.054-.128-.09-.041-.018-.082-.054-.128-.072a.5.5 0 0 0-.126-.09c-.056-.036-.083-.072-.128-.09-.055-.018-.082-.072-.141-.09-.041-.018-.083-.072-.127-.09-.042-.018-.083-.072-.128-.091-.042-.018-.083-.054-.128-.09-.041-.018-.082-.054-.127-.09-.055-.018-.083-.054-.127-.09-.056-.018-.083-.054-.142-.072a.5.5 0 0 0-.127-.09.5.5 0 0 0-.127-.09c-.042-.018-.083-.073-.128-.091-.041-.018-.082-.072-.127-.09-.055-.018-.083-.072-.127-.09-.056-.018-.083-.054-.142-.09-.041-.018-.082-.054-.127-.09-.041-.018-.083-.054-.127-.091-.042-.018-.083-.054-.128-.09-.041-.018-.082-.054-.127-.072a.5.5 0 0 0-.128-.09c-.055-.018-.083-.072-.127-.09-.056-.018-.083-.072-.142-.09-.04-.018-.082-.072-.127-.09-.041-.019-.083-.055-.127-.091-.042-.018-.083-.054-.128-.09-.214-.09-.397-.244-.57-.429-.424-.447-.656-1.135-.656-1.844v-26.39c0-.662.203-1.265.522-1.737-.148.329-.249.7-.249 1.104V65.87c0 1.211.826 2.124 1.738 1.916l5.469-1.193c.711-.167 1.24-.967 1.24-1.934V50.501c0-1.003.525-1.88 1.281-2.106l66.219-20.154c1.04-.317 2.039.727 2.039 2.124v18.293c0 1.36.94 2.381 1.967 2.124l9.684-2.328c.781-.185 1.354-1.098 1.354-2.142V6.223c0-1.36-.999-2.345-1.995-1.975h-.01L52.741 28.444l64.086-24.643c.47-.168.97-.09 1.396.185.055.036.083.072.141.09a.5.5 0 0 0 .128.09.5.5 0 0 0 .127.09c.045.019.083.055.127.091.042.018.083.054.128.09.041.018.082.054.128.09.054.018.082.054.14.09.042.018.082.054.128.09.041.018.082.054.127.072a.5.5 0 0 0 .127.09.5.5 0 0 0 .128.091.5.5 0 0 0 .127.09c.041.036.083.054.127.09a.4.4 0 0 1 .142.09c.041.018.082.054.127.09.041.018.083.054.127.09.042.018.084.055.128.091.042.018.083.054.128.09.041.018.082.054.127.072.055.036.1.072.141.09.042.036.082.072.128.09.04.036.082.054.127.09.041.018.083.055.127.091.042.018.083.054.128.09.041.018.082.054.127.09.055.018.083.054.141.09.042.018.083.054.128.09.041.018.082.055.127.072.041.036.083.073.127.09a.5.5 0 0 0 .128.091c.042.036.082.072.128.09.054.018.082.054.127.09a.4.4 0 0 1 .141.09c.042.018.083.054.128.09.04.018.082.054.126.091.042.018.084.054.128.09.042.018.083.054.128.072a.5.5 0 0 0 .127.09c.055.036.099.072.141.09a.5.5 0 0 0 .128.09c.044.018.082.054.127.09.041.018.083.054.127.09.042.019.083.055.128.091.041.018.082.054.127.09.055.018.083.054.141.09.042.018.083.054.128.072a.5.5 0 0 0 .128.09.5.5 0 0 0 .127.091.5.5 0 0 0 .127.09c.044.018.082.054.128.09.054.018.082.054.14.09.042.018.083.054.128.09.041.018.082.054.127.09.041.018.083.055.127.09.042.018.084.055.128.073.042.036.082.072.128.09a.5.5 0 0 0 .127.09c.055.036.1.072.141.09.042.018.082.054.128.09.041.018.082.054.127.09.041.018.083.055.127.09.042.019.083.055.128.091.042.018.082.054.128.09.054.018.082.054.14.072.042.036.083.072.128.09a.5.5 0 0 0 .127.091.5.5 0 0 0 .127.09c.042.036.083.054.128.09.041.018.082.054.128.09.054.018.082.054.14.09.042.018.083.054.128.09.042.018.083.054.128.09.041.018.082.054.127.091.041.018.083.054.127.072.042.036.083.072.128.09a.5.5 0 0 0 .127.09c.055.036.1.054.141.09.042.018.083.054.128.09.041.018.082.054.127.09.041.019.083.054.127.09.042.019.083.055.128.091.041.018.082.054.127.09.055.018.083.054.141.072.042.036.083.072.128.09a.5.5 0 0 0 .127.09c.041.036.083.054.128.09.041.019.083.054.127.09.042.019.083.055.128.091.054.018.082.054.141.09.041.018.083.054.127.09.042.018.083.054.128.09.041.018.082.054.127.072a.5.5 0 0 0 .127.091c.042.036.083.072.128.09a.5.5 0 0 0 .127.09.4.4 0 0 1 .141.09c.042.018.083.054.128.09.041.018.082.054.127.09.041.018.083.054.127.091.042.018.083.054.128.09.141.072.287.167.411.298.484.484.767 1.211.767 2.011v40.046l.131.095-.093.177ZM50.08 79.37c.519-.317.978-.75 1.366-1.279v1.112zM2.427 121.378a4.3 4.3 0 0 1 1.445-.937 4.8 4.8 0 0 1 1.797-.331q.921 0 1.722.3.797.3 1.459.975l.721-.722q-.705-.783-1.736-1.175c-1.031-.392-1.419-.392-2.196-.392q-1.216 0-2.242.407a5.4 5.4 0 0 0-1.791 1.145q-.76.737-1.183 1.736c-.423.999-.422 1.393-.422 2.181s.14 1.516.422 2.182.673 1.245 1.176 1.736a5.3 5.3 0 0 0 1.782 1.145 6 6 0 0 0 2.242.407q1.183 0 2.212-.399a4.5 4.5 0 0 0 1.736-1.183l-.721-.722q-.661.675-1.459.983a4.8 4.8 0 0 1-1.722.307 4.8 4.8 0 0 1-1.797-.33q-.83-.33-1.445-.937c-.615-.607-.728-.876-.96-1.414q-.345-.806-.345-1.774c0-.968.115-1.237.345-1.774a4.4 4.4 0 0 1 .96-1.413Zm11.861.422q-.954 0-1.814.284a4.4 4.4 0 0 0-1.475.807l.492.814a3.8 3.8 0 0 1 1.199-.691 4.3 4.3 0 0 1 1.489-.261q1.138 0 1.715.553.574.553.574 1.582v.492h-2.564q-1.153 0-1.836.315-.684.315-.983.83a2.24 2.24 0 0 0-.299 1.145q0 .69.353 1.221.354.53 1.021.83.668.3 1.575.299 1.152 0 1.912-.477c.385-.242.656-.566.867-.934v1.333h1.045v-5.009q.001-1.582-.853-2.358-.853-.776-2.418-.776Zm2.179 5.715q-.307.8-.975 1.222-.667.423-1.589.422-.969 0-1.505-.415a1.33 1.33 0 0 1-.538-1.106q0-.615.451-1.03.454-.414 1.622-.415h2.533v1.321Zm15.849-5.338q-.73-.377-1.714-.377-1.259 0-2.158.607c-.45.305-.764.703-1.008 1.149a2.57 2.57 0 0 0-.889-1.164q-.83-.591-2.013-.591-1.122 0-1.944.499c-.451.275-.775.656-1.021 1.102v-1.524h-1.043v8.065h1.09v-4.241q0-.921.331-1.574.33-.654.945-.998.613-.346 1.429-.346 1.105 0 1.72.652.614.654.614 1.928v4.579h1.092v-4.241q0-.921.33-1.574c.33-.653.533-.769.938-.998q.605-.346 1.437-.346 1.104 0 1.712.652.606.654.607 1.928v4.579h1.091v-4.686q0-1.167-.407-1.935a2.63 2.63 0 0 0-1.136-1.144Zm7.336-.377a5.8 5.8 0 0 0-1.813.284 4.4 4.4 0 0 0-1.476.807l.492.814a3.8 3.8 0 0 1 1.2-.691q.705-.261 1.489-.261 1.137 0 1.714.553.575.553.575 1.582v.492h-2.565q-1.153 0-1.835.315-.685.315-.984.83a2.24 2.24 0 0 0-.299 1.145q0 .69.353 1.221.354.53 1.022.83.667.3 1.574.299 1.153 0 1.912-.477c.386-.242.657-.566.868-.934v1.333h1.045v-5.009q0-1.582-.853-2.358-.854-.776-2.419-.776Zm2.18 5.715q-.309.8-.975 1.222c-.666.422-.975.422-1.59.422q-.967 0-1.505-.415c-.538-.415-.538-.645-.538-1.106q.001-.615.452-1.03.453-.414 1.622-.415h2.533v1.321Zm7.99-4.662q.06.008.123.008v-1.06q-1.184 0-1.984.484c-.47.284-.799.702-1.028 1.213v-1.62h-1.044v8.065h1.091v-4.117q0-1.43.721-2.205c.721-.775 1.148-.776 1.999-.776q.06 0 .122.008m4.517-1.053a5.8 5.8 0 0 0-1.813.284 4.4 4.4 0 0 0-1.476.807l.492.814a3.8 3.8 0 0 1 1.199-.691 4.3 4.3 0 0 1 1.489-.261q1.138 0 1.715.553.575.553.575 1.582v.492h-2.565q-1.154 0-1.836.315-.684.315-.983.83a2.24 2.24 0 0 0-.299 1.145q0 .69.353 1.221.354.53 1.022.83.667.3 1.574.299 1.152 0 1.912-.477c.386-.242.656-.566.868-.934v1.333h1.044v-5.009q0-1.582-.852-2.358-.854-.776-2.419-.776Zm2.18 5.715q-.309.8-.975 1.222-.667.423-1.59.422-.968 0-1.505-.415a1.33 1.33 0 0 1-.538-1.106q0-.615.452-1.03c.452-.415.842-.415 1.621-.415h2.534v1.321Zm15.455 2.428v-11.399h-1.092v4.901c-.314-.491-.693-.894-1.175-1.168q-.837-.477-1.896-.477-1.155 0-2.067.515-.916.515-1.437 1.436-.523.923-.523 2.151 0 1.214.523 2.143.521.93 1.437 1.451.912.522 2.067.523 1.074 0 1.912-.484c.499-.288.891-.712 1.205-1.234v1.641h1.045Zm-1.468-2.389a2.8 2.8 0 0 1-1.076 1.107 3.05 3.05 0 0 1-1.543.392q-.847 0-1.521-.392a2.85 2.85 0 0 1-1.076-1.107q-.4-.714-.399-1.651 0-.953.399-1.659a2.87 2.87 0 0 1 1.076-1.099 3 3 0 0 1 1.521-.392q.86 0 1.543.392.685.392 1.076 1.099.392.707.392 1.659 0 .937-.392 1.651m10.439.438a2.86 2.86 0 0 1-1.098.799 3.6 3.6 0 0 1-1.377.261q-.936 0-1.666-.392a2.84 2.84 0 0 1-1.137-1.091c-.226-.387-.335-.839-.373-1.329h6.755q0-.092.009-.176.007-.084.007-.162 0-1.214-.508-2.144-.506-.929-1.39-1.444c-.884-.515-1.263-.515-2.021-.515q-1.12 0-2.02.53t-1.413 1.451q-.516.922-.516 2.121c0 1.199.179 1.508.538 2.128q.538.93 1.49 1.459c.952.529 1.374.53 2.213.53q.967 0 1.774-.338a3.45 3.45 0 0 0 1.343-.983l-.614-.706Zm-5.316-3.795a2.7 2.7 0 0 1 1.029-1.076 2.9 2.9 0 0 1 1.49-.384q.846 0 1.49.384.647.384 1.021 1.068c.203.367.301.787.34 1.237h-5.7c.04-.447.134-.865.329-1.229Zm19.804 5.438a4.5 4.5 0 0 0 1.736-1.183l-.721-.722a4.1 4.1 0 0 1-1.46.983 4.8 4.8 0 0 1-1.721.307 4.8 4.8 0 0 1-1.797-.33q-.83-.33-1.445-.937c-.615-.607-.728-.876-.961-1.414q-.344-.806-.344-1.774c0-.968.115-1.237.344-1.774q.349-.806.961-1.413c.612-.607.891-.717 1.445-.937a4.8 4.8 0 0 1 1.797-.331q.921 0 1.721.3.798.3 1.46.975l.721-.722q-.705-.783-1.736-1.175c-1.031-.392-1.419-.392-2.196-.392q-1.216 0-2.242.407a5.4 5.4 0 0 0-1.791 1.145 5.2 5.2 0 0 0-1.183 1.736q-.423.999-.422 2.181c.001 1.182.139 1.516.422 2.182a5.24 5.24 0 0 0 2.957 2.881 6.1 6.1 0 0 0 2.242.407q1.185 0 2.213-.399Zm10.799-3.733q0-1.214-.53-2.128a3.86 3.86 0 0 0-1.459-1.444q-.93-.53-2.129-.53-1.183 0-2.103.522-.923.522-1.461 1.444c-.538.922-.538 1.327-.538 2.136q0 1.183.538 2.12a3.9 3.9 0 0 0 1.461 1.467q.92.53 2.103.53c1.183 0 1.496-.177 2.121-.53a3.8 3.8 0 0 0 1.467-1.459q.53-.93.53-2.128m-1.498 1.651a2.8 2.8 0 0 1-1.068 1.107q-.675.392-1.552.392-.86 0-1.529-.392a2.9 2.9 0 0 1-1.068-1.107q-.399-.714-.398-1.651 0-.953.398-1.659a2.9 2.9 0 0 1 1.078-1.099q.674-.392 1.535-.392c.861 0 1.086.131 1.536.392a2.83 2.83 0 0 1 1.068 1.099q.393.707.392 1.659 0 .937-.392 1.651m15.517-5.376q-.73-.377-1.714-.377-1.259 0-2.158.607c-.45.305-.764.703-1.008 1.149-.197-.489-.49-.879-.889-1.164q-.83-.591-2.013-.591c-.746 0-1.397.167-1.943.499-.451.275-.776.656-1.021 1.102v-1.524h-1.044v8.065h1.091v-4.241q0-.921.33-1.574c.33-.653.536-.769.945-.998q.613-.346 1.429-.346 1.104 0 1.721.652.612.654.613 1.928v4.579h1.092v-4.241q0-.921.331-1.574.33-.654.937-.998.605-.346 1.437-.346 1.104 0 1.713.652.606.654.607 1.928v4.579h1.09v-4.686q.001-1.167-.406-1.935a2.63 2.63 0 0 0-1.137-1.144Zm9.663.138q-.884-.515-2.02-.515a3.9 3.9 0 0 0-2.021.53 3.8 3.8 0 0 0-1.413 1.451q-.516.922-.516 2.121c0 1.199.179 1.508.538 2.128q.538.93 1.491 1.459.952.53 2.212.53.968 0 1.775-.338a3.46 3.46 0 0 0 1.343-.983l-.614-.706q-.461.538-1.099.799c-.638.261-.883.261-1.376.261q-.937 0-1.667-.392a2.84 2.84 0 0 1-1.136-1.091c-.227-.387-.335-.839-.373-1.329h6.754q0-.092.009-.176.007-.084.007-.162 0-1.214-.507-2.144a3.67 3.67 0 0 0-1.391-1.444Zm-4.869 3.111c.04-.447.134-.865.329-1.229a2.7 2.7 0 0 1 1.029-1.076 2.9 2.9 0 0 1 1.491-.384q.845 0 1.49.384.646.384 1.021 1.068c.202.367.3.787.34 1.237h-5.701Zm10.037-1.929v-1.62h-1.043v8.065h1.09v-4.117q0-1.43.722-2.205c.722-.775 1.148-.776 1.998-.776a1 1 0 0 1 .122.008 1 1 0 0 0 .123.008v-1.06q-1.183 0-1.983.484c-.47.284-.799.702-1.029 1.213m6.668-.353a3.1 3.1 0 0 1 1.551-.392q.723 0 1.336.292t1.029.906l.815-.553a3 3 0 0 0-1.306-1.198q-.828-.4-1.859-.4-1.198 0-2.142.522a3.8 3.8 0 0 0-1.483 1.444q-.538.922-.538 2.136 0 1.198.538 2.128t1.483 1.459c.945.529 1.343.53 2.142.53q1.03 0 1.859-.407a3.1 3.1 0 0 0 1.306-1.191l-.815-.553a2.6 2.6 0 0 1-1.029.891 3.1 3.1 0 0 1-1.336.292q-.86 0-1.551-.392c-.691-.392-.825-.627-1.092-1.099q-.4-.707-.399-1.659c.001-.952.132-1.188.399-1.659q.4-.706 1.092-1.099Zm6.714-1.267h1.091v8.065h-1.091zm.554-3.334a.8.8 0 0 0-.57.223q-.23.223-.23.545c0 .322.076.399.23.553a.78.78 0 0 0 .57.231.77.77 0 0 0 .576-.231.8.8 0 0 0 .223-.568.7.7 0 0 0-.231-.538.8.8 0 0 0-.568-.215m10.452 5.232a3.86 3.86 0 0 0-1.459-1.444q-.93-.53-2.128-.53-1.184 0-2.104.522-.923.522-1.461 1.444c-.538.922-.538 1.327-.538 2.136q0 1.183.538 2.12a3.9 3.9 0 0 0 1.461 1.467q.92.53 2.104.53c1.184 0 1.495-.177 2.12-.53a3.8 3.8 0 0 0 1.467-1.459q.53-.93.53-2.128 0-1.214-.53-2.128m-.967 3.778a2.8 2.8 0 0 1-1.069 1.107q-.676.392-1.551.392-.86 0-1.529-.392a2.9 2.9 0 0 1-1.069-1.107q-.399-.714-.398-1.651 0-.953.398-1.659a2.9 2.9 0 0 1 1.078-1.099q.674-.392 1.535-.392c.861 0 1.086.131 1.536.392q.676.392 1.069 1.099.391.706.391 1.659 0 .937-.391 1.651M55.029 137.808c-.314-.491-.694-.894-1.176-1.168q-.837-.477-1.896-.477-1.153 0-2.067.515-.916.515-1.437 1.436-.523.922-.522 2.151 0 1.214.522 2.143a3.75 3.75 0 0 0 1.437 1.451q.914.523 2.067.523 1.075 0 1.912-.484c.499-.288.891-.712 1.206-1.234v1.64h1.045v-11.399h-1.092v4.901Zm-.377 4.109a2.8 2.8 0 0 1-1.075 1.106q-.684.392-1.544.392a3 3 0 0 1-1.521-.392q-.676-.392-1.076-1.106t-.399-1.651q0-.952.399-1.659.4-.706 1.076-1.099c.676-.393.958-.392 1.521-.392q.86 0 1.544.392c.684.392.814.628 1.075 1.099q.393.707.393 1.659 0 .937-.393 1.651m9.664-5.239q-.885-.515-2.021-.515a3.9 3.9 0 0 0-2.021.53q-.898.53-1.413 1.451c-.515.921-.516 1.322-.516 2.121s.179 1.508.538 2.127a3.84 3.84 0 0 0 1.491 1.46q.952.53 2.213.53.966 0 1.774-.338c.808-.338.985-.553 1.343-.984l-.614-.706q-.461.538-1.099.799c-.638.261-.883.261-1.376.261q-.935 0-1.667-.392a2.84 2.84 0 0 1-1.136-1.091c-.227-.387-.335-.839-.373-1.329h6.754q0-.091.01-.177a2 2 0 0 0 .007-.161q0-1.214-.508-2.144a3.67 3.67 0 0 0-1.39-1.444Zm-4.87 3.111c.04-.447.135-.865.33-1.229q.37-.692 1.028-1.076.66-.383 1.491-.384.846 0 1.49.384.646.384 1.021 1.068c.202.368.3.788.34 1.237zm11.559-5.254h3.779v9.771h1.136v-9.771h3.781v-.983h-8.696zm16.238 5.93q0 .922-.331 1.582a2.3 2.3 0 0 1-.951 1.007q-.623.346-1.468.346-1.153 0-1.791-.653-.636-.654-.636-1.943v-4.563h-1.092v4.685q0 1.152.423 1.92.422.769 1.19 1.152.77.385 1.798.385 1.075 0 1.882-.5c.443-.275.769-.662 1.021-1.115v1.538h1.044v-8.065h-1.091v4.225Zm9.979-3.925q-.747-.375-1.728-.376-1.17 0-2.014.499c-.469.276-.804.661-1.061 1.111v-1.533h-1.043v8.065h1.09v-4.24q0-.922.345-1.575.348-.653.984-.998.637-.346 1.498-.346 1.152 0 1.79.653.636.654.636 1.928v4.578h1.092v-4.685q0-1.168-.421-1.935a2.7 2.7 0 0 0-1.168-1.145Zm4.616 8.365q.001.753-.346 1.137-.346.383-.99.384-.768 0-1.26-.414l-.383.829q.307.261.76.392.453.13.945.13 1.151 0 1.759-.668.607-.67.606-1.79v-8.664h-1.09zm.552-11.998q-.337 0-.567.223c-.23.223-.232.33-.232.545s.078.4.232.553a.77.77 0 0 0 .567.231.77.77 0 0 0 .577-.231.8.8 0 0 0 .223-.568.7.7 0 0 0-.23-.537.8.8 0 0 0-.57-.215Zm6.408 3.257q-.954 0-1.813.284a4.4 4.4 0 0 0-1.475.807l.492.814a3.8 3.8 0 0 1 1.198-.691 4.3 4.3 0 0 1 1.489-.261c.76 0 1.329.185 1.715.553q.575.553.575 1.582v.492h-2.565q-1.152 0-1.835.315-.685.315-.984.83a2.24 2.24 0 0 0-.298 1.144q-.001.691.352 1.222.353.53 1.022.83.668.299 1.574.299 1.153 0 1.913-.477c.385-.242.656-.567.867-.934v1.333h1.045v-5.008q0-1.582-.853-2.358t-2.419-.776m2.18 5.715q-.308.8-.975 1.222c-.667.422-.975.422-1.59.422q-.968 0-1.505-.415a1.33 1.33 0 0 1-.538-1.106q.001-.615.452-1.029.454-.414 1.621-.415h2.534z"/></svg>