<svg xmlns="http://www.w3.org/2000/svg" fill='currentColor'  id="uuid-f18a1af7-ac65-4dca-aa9a-b90eb126ecb5" width="250" height="101.261" data-name="Capa 10" viewBox="0 0 250 101.261"><g fill-rule="evenodd"><path d="M12.873 26.209h7.001l-6.798-11.484h7.348z"/><path d="M33.152 20.539 16.779.231.029 20.539l12.7 15.332-12.7 15.39 16.2 19.527 16.894-19.527L20.308 35.35l12.815-14.811zM16.865 9.922l7.897 10.53-8.447 9.922-7.926-9.749 8.447-10.704h.029Zm-.55 51.174-7.926-9.749 8.447-10.704 7.897 10.559-8.447 9.922.029-.029Z"/><path d="m12.902 56.931 7.001-.029-6.827-11.455h7.348z"/></g><path fill-rule="evenodd" d="m201.776 17.241-3.818-1.677 4.165-5.844 3.819 1.678z"/><path d="M77.933 38.041h22.42c.231-1.099.289-1.967.289-3.124 0-9.026-7.319-16.345-16.345-16.345s-16.374 7.319-16.374 16.345 7.319 16.374 16.374 16.374c6.162 0 11.745-3.414 14.522-8.447l-7.29-.058a10.72 10.72 0 0 1-7.348 2.893c-5.93 0-10.761-4.802-10.761-10.761s4.802-10.761 10.761-10.761c4.947 0 9.141 3.356 10.588 7.926H77.846l.087 5.93z"/><path d="M55.716 35.929c0-16.431 13.336-29.767 29.767-29.767 3.009 0 5.901.434 8.823 1.273l1.88-5.901C92.686.522 89.214.001 85.627.001 65.869.001 49.9 15.998 49.9 35.728s15.737 35.293 35.264 35.553h93.931v-5.554H85.309c-16.258-.202-29.594-13.452-29.594-29.767v-.029Z"/><path d="M179.791 19.527h-5.699v29.97s.116 8.36-7.232 8.476c-6.22.087-7.435-4.686-7.435-4.686h-5.815s1.822 11.427 14.262 10.096c12.815-1.36 11.919-13.567 11.919-13.567zm-51.725 14.58s-.897-10.299 9.373-10.299v-5.149s-7.174-.926-9.662 4.224v-3.674h-5.699v31.532h5.988z"/><path d="M152.28 51.29c6.162 0 11.745-3.414 14.522-8.447l-7.29-.058a10.72 10.72 0 0 1-7.348 2.893c-5.93 0-10.761-4.802-10.761-10.761s4.831-10.761 10.761-10.761c4.976 0 9.141 3.356 10.588 7.926h-16.923l.087 5.93h22.42c.202-1.099.26-1.967.26-3.124 0-9.026-7.319-16.345-16.345-16.345s-16.345 7.319-16.345 16.345 7.319 16.374 16.345 16.374l.029.029Zm24.878-39.921c-1.851 0-3.356 1.504-3.356 3.356s1.504 3.356 3.356 3.356 3.356-1.504 3.356-3.356-1.504-3.356-3.356-3.356m-67.23 22.738s-.897-10.299 9.373-10.299v-5.149s-7.174-.926-9.662 4.224v-3.674h-5.699v31.532h5.988zm123.496-15.824c-9.141 0-16.547 7.521-16.634 16.634l-.058 17.357h5.901V34.888c.058-5.901 4.86-10.79 10.79-10.79s10.761 4.773 10.79 10.704v36.623h5.786V34.628c-.116-9.084-7.464-16.374-16.576-16.374zm-35.409 47.356h8.592v5.612h-8.592zm11.225 0h10.327v5.612H209.24z"/><path d="M222.373 65.697h19.324v5.554h-19.324zm-40.268.029h4.166v5.554h-4.166zm32.834-30.809c0-9.112-7.406-16.518-16.518-16.518s-16.518 7.406-16.518 16.518 7.406 16.518 16.518 16.518 16.518-7.406 16.518-16.518m-27.164 0c0-5.901 4.773-10.675 10.675-10.675s10.675 4.773 10.675 10.675-4.773 10.675-10.675 10.675-10.675-4.773-10.675-10.675m.926 30.722h6.856v5.612h-6.856zM60.374 88.261h1.765c.087 0 .202.116.26.231.984 1.678 1.967 3.356 2.98 5.034.492.839.984 1.649 1.504 2.459.116.202.289.405.492.636.116-.231.202-.463.318-.665 1.475-2.488 2.951-4.947 4.426-7.435.116-.202.26-.289.492-.26h1.62c0 4.252.029 8.476.058 12.729h-2.227c0-2.748-.058-5.496-.087-8.274-.058.058-.087.058-.116.116-.694 1.128-1.389 2.256-2.054 3.385a165 165 0 0 0-1.765 3.009c-.116.231-.289.289-.521.318-.55.058-.868-.145-1.128-.636-.492-.897-1.041-1.736-1.591-2.604-.723-1.157-1.446-2.285-2.199-3.5l-.058 8.158h-2.256c0-4.252.058-8.476.087-12.757v.058Zm132.463-.058h2.343c0 4.252-.058 8.476-.087 12.757h-1.822c-.087 0-.174-.116-.231-.174-.723-.897-1.446-1.794-2.17-2.661a130 130 0 0 1-1.88-2.285 427 427 0 0 1-2.806-3.356l-.058 8.476h-2.343c0-4.252.058-8.476.087-12.729h1.794c.087 0 .202.116.26.202a1049 1049 0 0 0 4.686 5.786c.694.839 1.417 1.649 2.17 2.517l.058-8.505v-.029Zm-169.173.087h2.343c0 4.224-.058 8.447-.087 12.729h-1.794c-.087 0-.174-.058-.231-.145-1.36-1.649-2.719-3.327-4.079-4.976-.897-1.099-1.794-2.227-2.748-3.414l-.058 8.563h-2.401c0-4.224.058-8.447.087-12.729h1.851c.087 0 .174.116.231.202.955 1.157 1.88 2.343 2.835 3.5a566 566 0 0 0 3.847 4.686c.058.058.087.116.174.26l.058-8.621-.029-.058Zm193.531-.318c2.199.029 3.819.579 5.207 1.794 1.331 1.157 1.909 2.661 2.025 4.368.087 1.446-.289 2.777-1.041 4.021-.405.636-.926 1.128-1.475 1.62-2.112 1.88-7.059 2.083-9.691-.926-2.285-2.604-1.851-6.133-.318-8.245 1.215-1.678 3.587-2.719 5.265-2.661zm-4.166 6.538c-.087 2.488 1.851 4.484 4.455 4.571 2.517.087 4.513-1.794 4.542-4.426.058-2.632-1.822-4.484-4.397-4.6-2.575-.087-4.513 1.794-4.629 4.426zm-119.85 6.479h-2.343c0-4.252.058-8.476.087-12.757h.318c1.765 0 3.529.029 5.265.058 1.273 0 2.459.26 3.471 1.07 1.331 1.07 1.707 2.488 1.504 4.108-.174 1.533-1.041 2.632-2.459 3.269-.058 0-.116.058-.231.116.984 1.389 1.967 2.748 2.98 4.166h-2.517c-.087 0-.174-.116-.26-.231a65 65 0 0 1-1.244-1.794 24 24 0 0 0-1.012-1.36.63.63 0 0 0-.55-.26h-3.037v3.703l.029-.087Zm.058-10.761v5.12c.723 0 1.446.029 2.17 0 .607 0 1.244-.087 1.822-.202 1.244-.26 1.967-1.244 1.88-2.459-.087-1.331-.752-2.141-2.083-2.256-1.244-.116-2.517-.145-3.819-.202h.029Zm133.823-2.054h1.909c1.36 0 2.719.029 4.079.058 1.446.029 2.69.521 3.645 1.591 1.475 1.649 1.504 5.496-1.533 6.769-.058 0-.116.058-.231.116.492.694.955 1.418 1.446 2.083s.984 1.331 1.504 2.054c-.145 0-.202.029-.289.029h-2.054c-.145 0-.318-.116-.405-.202-.81-1.099-1.591-2.199-2.372-3.298-.116-.174-.231-.26-.434-.174-.116.058-.26.029-.376.029h-2.661v3.674h-2.372l.087-12.729zm2.285 7.116h1.822c.579 0 1.186-.058 1.765-.116 1.678-.202 2.546-1.389 2.285-3.037-.174-.984-1.157-1.88-2.112-1.88-1.128 0-2.227 0-3.356-.029h-.376v5.091l-.029-.029Zm-57.683-7.087 9.286.058c0 .579 0 1.186-.029 1.765 0 .087-.26.202-.405.202h-6.538v3.298c2.025 0 4.05 0 6.104.029l.087 1.938h-6.162v3.442l7.174.058v1.938c-3.182.174-6.364 0-9.575.029 0-4.252.058-8.505.087-12.757zm-123.583.029 9.344.058v1.967c-2.314 0-4.6-.029-6.943-.058v3.327c1.996 0 4.05 0 6.133.029v1.938c-1.996 0-4.05 0-6.104-.029v3.529c2.372 0 4.744.029 7.145.058v1.996c-3.182 0-6.364-.029-9.546-.058V88.232zm200.764 7.232h-6.133v3.442l7.174.058c0 .636.058 1.302.087 1.996l-9.546-.058c-.029-.521-.087-1.099-.087-1.649 0-3.182.029-6.364.058-9.546 0-.492-.058-.955-.087-1.504l9.373.058v1.967c-2.285 0-4.571-.029-6.914-.058v3.327c2.025 0 4.05 0 6.133.029v1.938zm-144.7 5.496.087-12.729c3.037 0 6.133.029 9.228.058 0 .636.058 1.273.087 1.967l-6.943-.058v3.327c1.996 0 4.05 0 6.104.029v1.938c-2.025 0-4.079 0-6.133-.029v3.529c2.343 0 4.715.029 7.145.058.029.636.058 1.273.116 1.967l-9.662-.058h-.029Zm51.174-6.508h2.227v4.86c0 .202-.058.347-.231.463-1.273.897-2.69 1.302-4.224 1.389a7.87 7.87 0 0 1-4.195-.897c-1.736-.897-2.69-2.343-3.095-4.195-.289-1.273-.145-2.517.231-3.79.405-1.36 1.244-2.343 2.401-3.095 2.546-1.649 5.207-1.678 7.869-.289.521.26.955.723 1.389 1.041-.521.579-1.012 1.07-1.475 1.591-.579-.55-1.186-1.012-1.938-1.244-1.331-.405-2.632-.376-3.876.231-1.389.665-2.054 1.909-2.285 3.356-.145.984-.058 1.967.463 2.835.926 1.591 2.401 2.285 4.224 2.314.781 0 1.504-.174 2.227-.492.231-.116.347-.231.318-.521v-3.645l-.029.087Zm-77.47-6.22h.318c1.736 0 3.5 0 5.236.058 1.128 0 2.199.318 3.211.897 1.215.723 1.736 1.822 1.822 3.124.145 1.736-.434 3.153-1.967 4.166-.984.665-2.054.839-3.182.868h-3.124v3.645H77.76l.087-12.729zm2.256 7.145c1.273-.029 2.546 0 3.761-.145 1.591-.202 2.343-1.302 2.141-2.893-.145-1.07-.984-1.88-2.256-1.996-1.128-.087-2.256-.087-3.356-.116h-.231v5.091l-.058.058Zm-38.706 5.641h-2.488c-.376-.897-.781-1.794-1.128-2.69-.087-.202-.202-.289-.434-.289h-3.009c-.955 0-1.88 0-2.835.058-.116 0-.289.116-.318.231a35 35 0 0 0-1.041 2.401c-.087.231-.202.318-.434.289h-2.17c.318-.694.636-1.389.926-2.054.81-1.794 1.649-3.558 2.459-5.352.752-1.678 1.504-3.356 2.227-5.005.087-.202.202-.289.463-.289.579 0 1.128 0 1.707-.058.289 0 .405.087.492.347a850 850 0 0 0 2.256 5.091c1.041 2.343 2.112 4.657 3.182 6.972.058.116.087.202.145.376v-.029Zm-4.484-4.773c-.839-1.88-1.62-3.674-2.459-5.554-.781 1.909-1.562 3.732-2.285 5.525h4.773zm102.985 4.715h-.897c-.405 0-.839 0-1.244.058-.26 0-.405-.058-.492-.318-.318-.81-.665-1.591-1.012-2.372-.087-.202-.174-.26-.405-.26-1.938 0-3.876 0-5.815-.029-.231 0-.318.087-.405.26a58 58 0 0 0-1.012 2.372c-.087.231-.231.289-.492.318-.665 0-1.36.058-2.112.087.087-.202.116-.318.145-.434l1.736-3.819c.868-1.88 1.707-3.761 2.575-5.67a52 52 0 0 0 1.128-2.632c.087-.202.174-.289.434-.289h1.822c.116 0 .289.116.318.231.376.781.694 1.562 1.07 2.343a692 692 0 0 1 3.009 6.625c.492 1.07.984 2.17 1.475 3.24.029.087.058.145.087.26zm-4.513-4.773c-.839-1.851-1.504-3.732-2.401-5.496-.81 1.851-1.562 3.645-2.372 5.467h4.773zM.029 88.319h2.372v.434c0 2.343 0 4.657.029 7.001 0 .897.174 1.736.781 2.43.781.897 1.822 1.041 2.922.955 1.678-.174 2.604-1.157 2.719-2.951.087-1.475.058-2.98.087-4.484 0-1.07-.029-2.112-.058-3.182 0-.058 0-.145.029-.202h2.285v.202c0 2.43.058 4.86 0 7.29 0 .752-.145 1.533-.405 2.227-.636 1.851-2.054 2.835-3.963 3.124-1.446.202-2.864.058-4.224-.579-1.186-.55-1.851-1.475-2.227-2.632-.202-.694-.26-1.418-.347-2.141-.058-.376 0-.752 0-1.099 0-1.996 0-3.992-.029-5.959v-.405zm124.913.839c-.231.636-.434 1.215-.665 1.851-.202-.116-.405-.202-.579-.289-1.273-.607-2.632-.897-4.05-.607-.405.087-.868.289-1.186.55-.752.636-.665 1.707.202 2.17.694.376 1.504.55 2.256.81.839.289 1.736.492 2.546.81 1.041.405 1.765 1.157 1.967 2.314.26 1.475-.347 2.835-1.591 3.645-.868.55-1.851.781-2.864.839-1.157.058-2.314-.116-3.442-.405-.839-.202-1.533-.607-2.285-1.041.289-.636.579-1.244.839-1.88.087.058.116.087.174.116 1.591 1.041 3.327 1.446 5.207 1.128.376-.058.752-.231 1.07-.434.781-.55.781-1.678-.029-2.17-.607-.347-1.302-.55-1.967-.752-.984-.318-1.996-.492-2.951-.868-1.07-.405-1.938-1.244-2.025-2.748-.087-1.649.781-3.066 2.459-3.674 2.285-.839 4.484-.521 6.596.521.087.029.145.116.26.174l.058-.058Zm84.732.896c-.607.579-1.128 1.041-1.649 1.533-1.07-1.157-2.401-1.678-3.963-1.504-.897.087-1.736.376-2.459.984-2.141 1.88-1.909 4.889-.607 6.335 2.025 2.256 5.352 2.112 7.059.145.492.492 1.012.984 1.533 1.475a5.3 5.3 0 0 1-2.227 1.591c-2.112.781-4.195.694-6.249-.289-1.678-.81-2.604-2.141-3.153-3.847-1.012-3.009.521-6.567 3.616-7.955 2.054-.926 5.757-.781 7.666 1.186.116.116.289.202.434.318zm-39.951 8.91v1.909c-.463.145-7.087.174-9.084.029l.087-12.7h2.285c0 3.558 0 7.116.029 10.704h6.654z"/></svg>