<svg xmlns="http://www.w3.org/2000/svg" fill='currentColor'  id="uuid-a85e65dc-95a6-46ec-adfd-3502ca4c36db" width="250" height="66.518" data-name="Capa 1" viewBox="0 0 250 66.518"><path d="M53.96 3.827v.305c.086.039.172.078.266.125 2.219 1.164 3.524 3.258 4.32 5.555.57 2.07.234 3.938-.75 5.852-1.734 2.93-4.719 4.102-7.868 4.93-3.203.688-6.805.406-9.969-.344-.141-.031-.281-.07-.422-.102a78 78 0 0 1-4.61-1.281 42 42 0 0 0-7.383-1.547 4 4 0 0 1-.313-.039c-2.016-.211-3.977.031-5.969.32a20 20 0 0 1-1.203.117c-.648.07-1.133.188-1.688.555-.578.828-.828 1.805-1.094 2.766a21 21 0 0 1-.375 1.18c-1.938 5.703-1.899 12.344-.203 18.11.039.141.086.289.125.43 1.258 4.219 3.024 8.149 5.774 11.625.125.18.188.367.188.57h.305c.203.227.391.469.578.711 1.43 1.781 3.07 3.242 4.899 4.61q.155.141.32.281a.8.8 0 0 0 .617.156c2.969-.914 5.649-2.149 8.188-3.938.141-.102.289-.195.43-.297 1.297-.914 2.453-1.961 3.57-3.094.273-.273.57-.516.867-.766a6.7 6.7 0 0 0 1.086-1.172c.648-.844 1.375-1.586 2.133-2.336l.43-.43c1.008-.992 2.031-1.891 3.203-2.703.172-.125.352-.25.523-.383 3.422-2.43 7.594-3.914 11.829-3.375 1.899.328 3.781 1.133 4.985 2.695 1.508 2.172 1.875 4.594 1.422 7.18-.688 3.266-2.492 5.93-4.688 8.375-.164.18-.32.375-.477.555a12 12 0 0 1-2 1.875c-.109.086-.219.164-.336.258-4.18 3.094-9.493 5.328-14.758 5.352h-1.063c-.359 0-.719 0-1.07.008-1.617.008-3.117-.172-4.696-.508a10 10 0 0 1-.484-.102c-2.977-.633-6.328-1.625-8.797-3.485-.609-.461-1-.57-1.774-.5-.328.047-.648.102-.977.156-6.227.875-12.172-.477-17.321-4.133-5.031-3.789-8.508-9.219-9.461-15.477-.773-5.617.07-11.571 3.07-16.454.07-.117.141-.227.211-.344 1.859-2.961 4.313-5.703 7.391-7.414q.14-.082.289-.164c1.977-1.117 3.336-1.75 4.086-1.899.609-.133 1.063-.273 1.453-.789.43-.688.781-1.414 1.148-2.141.383-.727.883-1.359 1.391-2q.14-.187.289-.375c2.203-2.828 4.727-5.039 7.774-6.922.117-.078.227-.148.344-.227 7.055-4.531 19.438-5.453 26.275.078h-.008l-.023.008Zm87.082 28.259c1.524 1.242 2.656 3.039 3.258 4.899q.069.213.148.438c.836 2.945.43 6.211-1.023 8.875-1.07 1.859-2.539 3.149-4.43 4.117-.094.047-.188.102-.289.148-1.484.727-3.008.953-4.649.938h-.5c-2.68-.055-4.727-.922-6.75-2.649-.102-.078-.195-.156-.297-.234-2.016-1.594-2.899-4.297-3.195-6.766-.18-3.242.602-6.399 2.797-8.891 4.242-3.985 10.258-4.133 14.93-.867zm-11 4.563c-.984 1.203-1.461 2.75-1.406 4.289.219 1.766.695 3.195 2.109 4.336 1.203.836 2.633 1.266 4.094 1.063 1.555-.328 2.664-.961 3.586-2.258.984-1.633 1.125-3.445.758-5.313-.484-1.469-1.359-2.539-2.719-3.281a5.66 5.66 0 0 0-6.422 1.164m102.918-6.36c8.024 0 12.876.781 14.555 2.352 1.563 1.719 1.695 3.75 1.594 5.953-.141 1.672-.961 2.891-2.18 3.977a23 23 0 0 1-1.195.938 374 374 0 0 1 2.477 4.164c.086.156.18.305.273.469.25.43.508.867.75 1.305q.117.198.234.406l.211.375.188.328a1.3 1.3 0 0 1 .133.57c-.688.016-1.367.023-2.055.031-.195 0-.383.008-.586.008-1.32.008-2.422-.031-3.445-.961a8 8 0 0 0-.266-.234.75.75 0 0 1-.188-.516h-.305c-.055-.102-.117-.211-.172-.32-.258-.477-.516-.961-.781-1.438-.086-.164-.18-.328-.273-.5-.367-.68-.742-1.352-1.125-2.024q-.244-.432-.242-.734h-2.281v6.688h-5.321zm5.321 4.867v4.563c.555.016 1.109.023 1.672.039.172 0 .344.008.523.016 1.188.016 2-.195 2.891-.992.328-.594.422-1.117.391-1.797-.266-.805-.703-1.188-1.367-1.672-.477-.156-.805-.172-1.297-.164h-1.008c-.594 0-1.188 0-1.797.008h-.008Zm-26.158-4.867h15.212c0 1.508-.047 2.774-1.063 3.953-.82.625-1.516.93-2.547.93h-3.906q-1.254.002-2.508-.008v3.039h7.907v4.563h-7.907v3.344h10.188v5.016h-15.36V30.289zm-41.97 0 2.078-.023c.234 0 .469 0 .703-.008 1.859-.031 3.141.234 3.844.805.867 1.047 1.578 2.172 2.234 3.36.266.477.531.914.875 1.344.039-.078.086-.148.125-.227.203-.352.398-.703.602-1.063.07-.117.133-.234.203-.352.148-.258.305-.516.461-.773.219-.383.414-.758.602-1.156.586-1.148 1.148-1.836 1.695-2.047.961-.188 1.914-.102 2.883-.031.297.016.586.023.875.039q1.067.044 2.133.125c-.164.523-.313.984-.633 1.43-.062.094-.133.188-.195.273-.07.094-.141.188-.211.297a58 58 0 0 0-1.836 2.766 101 101 0 0 1-2.141 3.281c-.203.305-.406.609-.609.922q-.103.14-.195.289a2.15 2.15 0 0 0-.352 1.141c.078.133.164.266.242.398.055.094.117.195.172.297.219.359.438.703.664 1.055.078.125.164.258.25.391a94 94 0 0 0 1.711 2.594c.461.688.906 1.391 1.344 2.102a44 44 0 0 0 1.797 2.688q.305.457.305.914c-3.633.305-5.875.211-6.711-.281-.727-.742-1.352-1.852-1.352-2.914h-.305c-.5-.906-1-1.805-1.524-2.742-.133.219-.258.438-.391.664a67 67 0 0 1-1.508 2.383c-.086.125-.164.25-.25.383-.164.25-.336.508-.508.75-.164.242-.289.5-.391.773-.203.461-.344.68-.758.977-1.008.234-2.078.125-3.102.086-.289 0-.578-.016-.867-.016a100 100 0 0 1-2.117-.07c.086-.508.188-.883.461-1.313l.188-.305c.07-.102.133-.211.203-.313l.211-.328c.445-.695.914-1.375 1.391-2.055.352-.516.68-1.047 1.008-1.578q1.713-2.778 2.664-4.008.29-.434.242-.914c-.164-.492-.359-.836-.656-1.258q-.162-.236-.336-.484c-.062-.086-.117-.172-.18-.258-.344-.5-.664-1.008-1-1.524l-.43-.664c-.219-.336-.43-.672-.648-1.008l-.633-.984c-.07-.102-.133-.211-.211-.32-.352-.539-.703-1.078-1.063-1.609q-.105-.155-.211-.32c-.133-.203-.273-.398-.406-.602-.305-.445-.453-.789-.453-1.008v.016l.016.016Zm-21.142 0c.391-.008.773-.016 1.164-.016q.164.002.328-.008c1.109-.008 1.914.297 2.742 1.039.734.789.969 1.602.977 2.68v1.805c.008.664.008 1.328.016 1.992 0 .766.008 1.539.016 2.305V41a10.6 10.6 0 0 0 .961 4.344c1.258 1.047 2.344 1.164 3.953 1.063.797-.18 1.547-.633 1.992-1.328.617-1.141.789-2.344.789-3.625v-.367c0-.398.008-.797.008-1.195 0-.273 0-.555.008-.836q.014-1.09.016-2.18c0-.742.016-1.484.023-2.227.016-1.453.031-2.914.039-4.367h5.172c.016 1.727.023 3.445.031 5.172 0 .805.008 1.602.016 2.399 0 .773.008 1.547.008 2.32v.883c.031 2.969-.32 5.649-2.453 7.883l-.352.352a11 11 0 0 1-.297.305c-1.625 1.563-3.82 1.883-5.977 1.867h-.508c-2.406-.031-4.516-.633-6.297-2.328a9.8 9.8 0 0 1-1.977-3.5l-.117-.336c-.453-1.531-.398-3.047-.383-4.625v-.906c0-.789 0-1.57.008-2.359q-.002-1.207.008-2.414c0-1.578.016-3.149.023-4.727l.062.023Zm-52.768.305q.244.105.5.211c1.594.734 2.75 1.75 3.852 3.094.078.102.164.195.25.297q.107.14.227.289c.07.086.133.172.203.258q.141.258.141.867c-.445.125-.891.25-1.328.375-.125.039-.25.07-.383.102-.125.031-.242.07-.367.102q-.162.047-.336.094c-1.844.5-3.156.07-4.867-.703-1.32-.594-2.688-.594-4.055-.133-1.273.539-2.203 1.352-2.805 2.602-.68 1.703-.594 3.445 0 5.156.148.258.305.508.461.758v.305h.305l.758.758c1.031.852 2.336 1.125 3.649 1.063 1.359-.164 2.578-.742 3.695-1.516 1.234-.727 2.859-.266 4.156.047l.414.094c.125.031.258.07.391.102.117.031.234.055.352.086.086.039.18.078.266.125q.154.456.016.781a15 15 0 0 1-2.149 2.719 7 7 0 0 0-.305.328c-2.125 2.078-4.891 2.641-7.758 2.633-1.938-.047-3.586-.555-5.313-1.43v-.305c-.102-.031-.211-.07-.32-.102-.563-.258-.977-.625-1.422-1.039-.086-.078-.172-.164-.266-.25a7.4 7.4 0 0 1-1.641-2.258l-.203-.391c-1.305-2.617-1.414-5.844-.602-8.633.945-2.625 2.516-4.727 5-6.063 3.07-1.422 6.328-1.766 9.493-.43l-.008.008Zm94.59-.305h18.704q.002 3.176-1.133 4.336c-1.914 1.125-3.836.531-6.172.531v15.969h-5.321V35.156h-6.086v-4.867zm-85.011 0c2.234 0 3.711.289 4.414.859.07.078.133.164.203.242s.141.156.211.242c.5.891.531 1.875.523 2.875v2.492q.002 1.127-.008 2.266v2.719q-.002 2.062-.016 4.125h9.579v5.016h-14.907V30.288Z"/></svg>