<svg xmlns="http://www.w3.org/2000/svg" fill='currentColor'  id="uuid-30b93741-90ed-4b65-879d-7dcdda68187e" width="250" height="77.323" viewBox="0 0 250 77.323"><path d="M16.489 22.456c0-6.959-.006-13.919 0-20.878.001-1.349.247-1.607 1.585-1.566.741.023 1.587-.206 2.121.627.072.112.378.085.578.106 6.813.724 13.056 3.005 18.525 7.099 8.987 6.729 14.448 15.616 15.624 26.807 1.392 13.246-3.154 24.299-13.083 33.199-5.456 4.89-11.905 7.732-19.081 9.001-1.714.303-3.48.316-5.221.462-.778.066-1.069-.275-1.066-1.059.024-6.692.031-13.385.009-20.077-.003-.827.275-1.07 1.102-1.121 7.168-.435 12.018-4.246 14.426-10.744 2.346-6.33.831-12.136-3.93-16.994-3.147-3.211-7.14-4.534-11.547-4.824l-.041-.04Zm114.648 27.435c-.531.382-.961.623-1.307.951-3.284 3.111-7.236 4.232-11.682 3.926-2.579-.178-4.943-.93-7.047-2.464-4.752-3.465-4.774-11.023-.063-14.527 2.877-2.14 6.164-2.855 9.659-3.045 2.889-.157 5.771-.431 8.658-.628.669-.046.931-.32.953-.997.137-4.13-2.311-7.001-6.451-7.4-4.169-.403-8.261-.01-12.224 1.418-1.035.373-1.195.249-1.17-.804.02-.836.074-1.679.002-2.509-.071-.828.252-1.28 1.036-1.437 2.47-.494 4.922-1.197 7.417-1.418 4.067-.36 8.131-.345 11.969 1.522 3.745 1.821 5.684 4.774 5.743 8.837.093 6.426.022 12.854.032 19.282.001.936.043 1.873.107 2.807.044.642-.177.922-.853.898a69 69 0 0 0-3.739-.046c-.673.012-.877-.281-.888-.899-.019-1.082-.091-2.163-.151-3.466Zm-.844-11.684c-.242-.062-.34-.115-.432-.107-2.881.234-5.771.398-8.639.736-2.222.262-4.355.897-6.079 2.448-.991.893-1.578 1.967-1.546 3.342.058 2.534 1.847 4.716 4.587 5.267 4.583.922 8.402-.602 11.577-3.89.26-.269.503-.689.51-1.044.046-2.235.023-4.471.023-6.752ZM233.5 20.8c6.176.257 11.832 3.471 14.961 10.284 4.021 8.754-.25 17.887-8.058 21.887-8.138 4.169-18.549 1.319-23.322-6.413-4.964-8.042-2.244-18.419 6.107-23.326 2.79-1.64 5.795-2.47 10.311-2.432Zm-12.605 17.02c.298 1.498.443 3.046.922 4.485 1.292 3.879 4.004 6.426 8.005 7.344 4.169.957 7.827-.187 10.676-3.414 3.984-4.514 4.11-11.706.367-16.422-3.724-4.693-10.733-5.519-15.327-1.74-3.041 2.501-4.459 5.793-4.643 9.748ZM150.62 21.315l.375 6.016c.532-.484.904-.731 1.156-1.067 3.971-5.275 11.476-6.612 17.191-4.597 4.388 1.547 6.589 4.888 7.267 9.318.176 1.15.185 2.333.189 3.502.024 6.192.021 12.384.028 18.576.001 1.257.002 1.235-1.291 1.212-1.482-.025-2.965-.03-4.446.003-.716.016-.908-.264-.902-.955.06-6.626.108-13.252.113-19.877.002-2.754-1.085-5.051-3.421-6.584-1.784-1.171-3.859-1.407-5.933-1.07-4.162.676-7.003 3.082-8.663 6.889-.207.474-.301 1.034-.302 1.555-.012 6.292-.017 12.585.031 18.877.007.947-.288 1.217-1.207 1.179a41 41 0 0 0-4.24.039c-.839.052-1.136-.17-1.132-1.033.032-6.393.027-12.786.03-19.178.001-3.883.014-7.765-.022-11.648-.008-.857.241-1.214 1.147-1.17 1.274.061 2.552.015 4.031.015ZM74.675 37.879c0-5.419.013-10.837-.016-16.256-.004-.689.308-.928.887-.917 4.909.099 9.852-.113 14.716.406 6.311.673 12.129 6.374 13.597 12.499 1.485 6.194.02 11.656-4.328 16.22-3.088 3.242-7.051 5.035-11.591 5.184-4.036.132-8.079.021-12.118.072-.902.011-1.143-.283-1.137-1.152.035-5.352.018-10.704.018-16.056h-.03Zm5.719-.057h-.013c0 3.849.068 7.7-.043 11.545-.031 1.085.303 1.359 1.244 1.356 1.819-.006 3.642.093 5.455-.005 2.739-.149 5.174-1.139 7.217-2.994 3.229-2.933 4.621-6.616 4.299-10.902-.408-5.428-3.859-10.07-9.424-11.317-2.587-.58-5.343-.421-8.023-.574-.755-.043-.716.516-.715 1.043.007 3.949.004 7.899.004 11.848Z"/><path d="M16.529 22.496c0 10.474.003 20.947-.003 31.421 0 1.214-.101 1.33-1.334 1.277-3.258-.139-6.061-1.481-8.574-3.428C2.256 48.384-.321 43.831.032 38.409c.528-8.088 6.199-14.673 14.651-15.751.601-.077 1.204-.135 1.806-.202zm194.758 5.645c-.686-.359-1.235-.661-1.796-.939-6.416-3.178-13.817-1.216-17.367 4.601-3.27 5.358-1.482 12.565 3.909 15.825 4.726 2.857 9.474 2.822 14.263.176.396-.219.8-.425 1.289-.684.089.337.179.518.177.698-.016 1.369-.017 2.739-.103 4.104-.02.321-.274.795-.545.91-6.535 2.769-12.982 3.081-19.187-.903-5.768-3.703-8.331-9.088-7.803-15.795.35-4.448 2.447-8.211 5.951-11.03 6.103-4.91 12.878-5.399 20.069-2.737.951.352 1.267.884 1.171 1.893-.116 1.219-.027 2.456-.027 3.882Zm-93.365 39.747c1.668.983 1.709 2.435 1.647 3.945-.036.868-.009 1.74.024 2.608.023.596-.232.82-.822.87-2.974.252-2.981.263-2.943-2.71.011-.834.117-1.668.119-2.502 0-.308-.092-.688-.289-.902-.158-.171-.562-.23-.81-.165-.16.042-.334.401-.332.617.014 1.571.029 3.144.133 4.71.044.669-.157.938-.806.939-3.777.006-3.065.437-3.1-2.822-.037-3.478.012-6.957-.017-10.435-.007-.856.2-1.183 1.154-1.095 1.435.132 2.891.029 4.332.112 2.295.131 3.213 1.263 3.28 3.559.039 1.356-.018 2.546-1.568 3.272Zm-3.348-2.78c-.03.258-.104.443-.057.586.09.271.309.753.373.738.356-.087.954-.277.968-.468.054-.745-.031-1.514-.181-2.251-.034-.166-.55-.344-.819-.311-.154.019-.334.444-.362.701-.04.357.051.729.078 1.005m-27.912 1.675c0-1.625.03-3.25-.013-4.873-.021-.789.279-1.116 1.06-1.044.267.024.539.002.808.013 1.205.049 1.242.139 1.244 1.366.007 4.013.033 8.027.09 12.04.009.666-.136 1.042-.864 1.008-.067-.003-.135.002-.202.004-2.442.08-2.405.07-3.063-2.273-.295-1.049-.77-2.047-1.164-3.068l-.325.049c0 1.266.033 2.532-.017 3.796-.019.483-.172 1.347-.357 1.372-.842.117-1.721.026-2.577-.074-.11-.013-.229-.52-.23-.798-.018-4.149-.008-8.298-.031-12.447-.004-.677.231-.953.925-.989 2.07-.106 2.131-.066 2.82 1.86.501 1.4 1.063 2.779 1.598 4.168l.297-.109Zm38.432 3.142c0 1.368-.048 2.737.015 4.102.054 1.17.046 1.249-1.141 1.267-2.551.037-2.118.007-2.124-2.086-.01-3.715.009-7.429-.035-11.144-.01-.867.272-1.2 1.152-1.202 1.857-.006 1.887 0 2.497 1.759.489 1.41 1.024 2.805 1.539 4.206l.373-.037c.036-.624.11-1.248.099-1.87-.017-1-.078-2-.143-2.999-.048-.741.332-1.001 1.023-1.049 2.097-.145 2.175-.082 2.173 1.963-.003 3.748-.024 7.497.016 11.244.01.903-.258 1.246-1.2 1.241-2.118-.011-2.125.032-2.786-1.978-.379-1.152-.733-2.312-1.098-3.469l-.362.053Zm53.332-3.277c0-1.382-.034-2.766.018-4.147.02-.517.16-1.422.384-1.468.758-.153 1.584-.036 2.371.072.135.019.292.499.293.766.018 4.183.009 8.367.018 12.55.001.575-.207.895-.819.872l-.101.002c-2.775.032-2.268.169-2.997-2.066-.376-1.153-.761-2.303-1.142-3.454l-.387.056c0 1.138-.101 2.288.022 3.412.227 2.064.282 2.058-1.831 2.054-1.447-.003-1.464-.038-1.459-1.458.012-3.849.006-7.697.014-11.546.001-.541-.206-1.186.61-1.388 1.254-.311 2.345-.042 2.659.748.494 1.244.909 2.518 1.381 3.771.17.453.406.882.612 1.321zm-7.857 1.404c0 1.202.014 2.405-.003 3.607-.027 1.826-.992 3.129-2.789 3.398a12.2 12.2 0 0 1-3.689-.039c-1.635-.264-2.603-1.544-2.626-3.215a282 282 0 0 1-.004-7.414c.02-1.653 1.009-2.951 2.666-3.156 1.374-.17 2.812-.097 4.187.1 1.195.172 2.191 1.616 2.231 2.912.039 1.268.009 2.538.009 3.807h.019Zm-3.853.098h-.003c0-1.368.049-2.739-.034-4.101-.021-.352-.459-.679-.705-1.018-.226.34-.641.677-.648 1.021a203 203 0 0 0-.006 8.106c.007.363.371.988.633 1.023.632.085.768-.476.765-1.027-.006-1.334-.002-2.669-.002-4.003Zm61.781 7.15h-.606c-1.486-.005-1.518-.005-1.51-1.478.004-.772-.308-1.096-1.064-1.125-.59-.023-.903.178-.868.795.017.301.017.603.043.902.049.572-.169.906-.783.905-.909-.002-1.818 0-2.728-.012-.493-.007-.702-.194-.62-.757q.898-6.152 1.732-12.311c.163-1.2.264-1.325 1.514-1.324 1.212.002 2.425.009 3.637-.016.706-.015 1 .289 1.109.987q.99 6.29 2.058 12.569c.11.645-.089.876-.704.863-.404-.009-.808-.002-1.212-.002v.004Zm-2.801-10.123-.334-.021c-.277 1.398-.573 2.792-.822 4.195-.101.57-.034 1.086.778 1.08.771-.006 1.143-.329 1.026-1.106-.208-1.384-.431-2.765-.648-4.148m-37.345-4.317c2.743.031 2.757.028 3.209 2.674.602 3.524 1.167 7.055 1.775 10.578.148.855-.059 1.282-1.011 1.197-.534-.048-1.076-.004-1.614-.007-1.322-.008-1.276-.013-1.384-1.321-.035-.426-.27-1.038-.597-1.2-.866-.431-1.433.06-1.345 1.024q.136 1.488-1.366 1.494c-.639.002-1.279-.003-1.918 0-.622.004-.816-.293-.731-.894.594-4.202 1.156-8.408 1.782-12.604.045-.304.478-.724.79-.782.786-.147 1.605-.118 2.41-.16Zm.319 4.343-.292-.01c-.083.225-.199.444-.243.676-.218 1.145-.366 2.305-.64 3.436-.21.867.111 1.044.902 1.021.767-.023 1.031-.311.867-1.051-.086-.388-.092-.793-.15-1.189-.142-.962-.295-1.923-.443-2.884Zm-51.506-4.307c2.778-.002 2.815-.009 3.31 2.73.653 3.616 1.233 7.245 1.864 10.865.102.588-.105.812-.674.806-.639-.007-1.279.004-1.918.002-1.486-.004-1.52-.005-1.519-1.483 0-.815-.288-1.146-1.129-1.114-.819.031-.901.511-.911 1.138-.024 1.473-.033 1.473-1.496 1.47-2.368-.005-2.418-.011-2.137-2.316.449-3.681.98-7.352 1.457-11.03.098-.755.405-1.15 1.235-1.078.635.055 1.278.011 1.917.011Zm.449 4.287-.33-.027c-.29 1.356-.588 2.71-.865 4.069-.118.579-.088 1.07.72 1.106.74.032 1.19-.165 1.07-1.002zm6.06 2.941c0-1.171-.01-2.342.002-3.512.018-1.825 1.074-3.218 2.89-3.433 1.313-.155 2.688-.077 4 .125 1.315.203 2.369 1.656 2.418 2.987.024.635-.022 1.272.008 1.906.033.714-.26 1.005-.993 1.048-2.858.17-2.857.189-2.891-2.684-.002-.167.054-.381-.028-.492-.215-.289-.491-.532-.743-.794-.27.28-.733.536-.771.844-.092.754.037 1.532.033 2.3-.009 1.87-.052 3.74-.062 5.609-.003.526-.045 1.249.694 1.177.323-.031.703-.682.835-1.117.139-.456.064-1-.011-1.492-.114-.741.226-.972.895-.96.74.013 1.482.031 2.222.006.614-.021.805.261.848.838.239 3.236-1.241 4.822-4.542 4.795a10 10 0 0 1-1.804-.172c-1.945-.366-2.982-1.616-2.997-3.569-.009-1.137-.002-2.275-.002-3.412Zm97.519 7.197c-.571-.03-1.148-.018-1.712-.097-2.167-.302-3.493-2.066-3.133-4.225.045-.269.444-.575.744-.68.327-.115.731-.017 1.101-.013q1.806.023 1.913 1.782c.033.54.167 1.119.823.983.312-.065.67-.587.748-.957.237-1.124-.078-2.033-1.272-2.504a6.1 6.1 0 0 1-1.488-.841c-.63-.488-1.318-.978-1.757-1.619-.97-1.417-1.139-2.966-.341-4.561.792-1.586 2.284-1.577 3.734-1.638.569-.024 1.142.062 1.713.096 2 .121 3.348 1.917 2.888 3.851-.023.097-.049.271-.088.275-.876.09-1.758.234-2.63.19-.264-.013-.505-.552-.748-.858-.035-.044.002-.138-.025-.196-.182-.398-.313-.845-.594-1.159-.09-.101-.798.088-.847.255-.141.473-.191 1.027-.075 1.501.084.342.45.662.765.892.731.534 1.473 1.069 2.27 1.494 2.911 1.553 2.723 4.443 1.785 6.504-.427.937-1.259 1.37-2.259 1.465-.5.047-1.009.008-1.514.008v.051Zm-30.759-14.277c.404 0 .808-.013 1.211.002 2.092.077 3.378 1.68 2.999 3.73-.012.066-.006.144-.041.195-.676.983-1.659.312-2.493.429-.499.07-.938-.148-.918-.79.006-.2.059-.447-.035-.592-.206-.319-.466-.795-.752-.831-.58-.073-.985.379-.849.959.122.519.357 1.115.743 1.447.808.694 1.728 1.268 2.639 1.832 2.102 1.3 2.89 4.497 1.434 6.495-.445.611-1.293 1.148-2.036 1.28-1.137.202-2.361.15-3.515-.019-2.602-.38-3.042-2.466-2.84-4.314.023-.211.418-.509.67-.542.595-.078 1.209-.026 1.815-.016 1.069.018 1.28.246 1.231 1.319-.008.166-.114.372-.049.49.199.36.46.687.696 1.027.281-.298.745-.56.81-.899.236-1.222-.108-2.155-1.387-2.76a10.3 10.3 0 0 1-2.768-1.956c-1.173-1.159-1.291-2.689-.906-4.221.371-1.474 1.293-2.173 2.823-2.269.503-.032 1.009-.005 1.514-.005v.01Zm-108.606 7.044c0-2.04.021-4.08-.011-6.119-.012-.766.261-1.1 1.051-1.085 1.581.029 3.164.033 4.745 0 .745-.016 1.055.293 1.022 1.006-.015.334-.011.668-.032 1.002-.04.625-.254 1.024-1.011.846-.32-.075-.711-.121-.995-.002a1.53 1.53 0 0 0-.738.718c-.128.28-.017.659-.051.991-.091.902.348 1.169 1.198 1.144.408-.012 1.136.149 1.178.344.138.656.097 1.375-.031 2.041-.028.144-.707.246-1.079.227-1.191-.061-1.252-.028-1.25 1.175.004 1.974.004 1.99 2.044 2.068.669.026.961.227.918.959-.111 1.886-.081 1.888-2.016 1.891-1.245.002-2.492-.026-3.735.018-.889.032-1.268-.249-1.236-1.206.066-2.004.02-4.012.02-6.018zm-7.887 1.437c0-1.571-.029-3.143.013-4.712.02-.75-.264-.995-.999-.984-.458.006-1.271-.114-1.315-.312-.164-.728-.105-1.515-.047-2.273.01-.132.423-.333.65-.333 2.387.002 4.773.048 7.16.062 1.073.006.995.728 1.005 1.456.011.751-.117 1.347-1.047 1.363-.168.003-.339.034-.504.013-.899-.11-1.164.303-1.151 1.161.046 3.074.005 6.15.06 9.224.015.835-.251 1.136-1.084 1.12-3.332-.063-2.669.377-2.737-2.675-.023-1.036-.004-2.072-.004-3.108Zm100.849-1.561c0-2.004.02-4.008-.01-6.011-.011-.755.229-1.071 1.041-1.075 2.794-.014 2.801-.039 2.795 2.742-.005 2.638-.003 5.276-.054 7.914-.015.761.263 1.046.996.978.267-.024.537-.007.806-.01.53-.006.777.207.786.781.033 2.011.05 2.011-2.017 2.017q-1.361.006-2.723.008-1.588 0-1.589-1.532v-5.811zm-120.05.11c0-2.04.018-4.08-.009-6.119-.01-.759.263-1.126 1.057-1.087.705.035 1.413.031 2.12.026.589-.004.855.263.854.852q-.01 6.32 0 12.64c.001.621-.251.881-.897.922-3.113.197-3.111.212-3.107-2.819v-4.414zm84.466.205c0 2.004-.028 4.008.015 6.011.016.743-.245 1.027-.981 1.014-3.559-.063-3 .476-3.003-2.913-.004-3.406.025-6.812-.026-10.218-.013-.866.232-1.235 1.119-1.196.567.025 1.14-.055 1.709-.093.856-.058 1.204.313 1.187 1.184-.04 2.07-.013 4.14-.013 6.211zm89.134 7.009c-1.423-.019-1.5-.045-1.467-2.008.02-1.202 1.069-.733 1.694-.763 1.218-.06 1.178.029 1.239 1.754.043 1.233-.749 1.009-1.466 1.018Zm-29.3-1.345c-.039 1.341-.099 1.391-1.658 1.355-1.107-.025-1.129-.122-1.129-1.786 0-1.282.912-1.001 1.628-1.002 1.13-.002 1.198.112 1.16 1.433Zm14.351-1.451c1.375.008 1.455.092 1.447 1.393-.007 1.238-.164 1.395-1.476 1.368-1.244-.026-1.14-.082-1.283-1.918-.086-1.113.866-.715 1.311-.843Z"/></svg>