<svg xmlns="http://www.w3.org/2000/svg" fill='currentColor'  id="uuid-e34206ac-bf62-4901-ae4a-6613bb37586d" width="250" height="72.935" data-name="Capa 3" viewBox="0 0 250 72.935"><path d="M39.652 18.969q-5.406-3.284-12.99-3.286c-5.129 0-9.704 1.189-13.717 3.568-4.022 2.378-7.181 5.692-9.486 9.931S0 38.369 0 44.015q0 8.702 3.513 15.006c2.342 4.203 5.656 7.435 9.931 9.704q6.413 3.404 15.333 3.404c3.949 0 7.852-.635 11.719-1.897 3.858-1.271 7.026-3.014 9.477-5.247l-3.35-7.807c-2.669 2.161-5.519 3.74-8.533 4.739a28.7 28.7 0 0 1-9.196 1.507c-3.949 0-7.253-.744-9.931-2.233-2.678-1.48-4.702-3.695-6.082-6.636-1.051-2.247-1.573-5.03-1.819-8.088h39.801v-3.786c0-5.583-.962-10.376-2.896-14.397-1.934-4.012-4.702-7.117-8.315-9.314Zm-28.528 20.58c.276-2.424.734-4.71 1.594-6.691 1.262-2.896 3.105-5.165 5.519-6.799s5.374-2.46 8.869-2.46q6.917 0 10.594 4.575c2.199 2.728 3.259 6.622 3.491 11.375zm78.783 1.679-10.603-2.124c-2.524-.517-4.385-1.371-5.574-2.56s-1.788-2.714-1.788-4.575c0-2.451.99-4.403 2.959-5.855s4.92-2.179 8.869-2.179c1.933 0 3.867.245 5.801.726a28.5 28.5 0 0 1 5.628 2.061c1.825.899 3.441 1.979 4.857 3.241l3.232-7.589c-1.489-1.489-3.286-2.714-5.411-3.677a33 33 0 0 0-6.745-2.233 34.7 34.7 0 0 0-7.362-.781c-4.394 0-8.261.69-11.602 2.061-3.35 1.38-5.955 3.332-7.807 5.855-1.861 2.533-2.796 5.51-2.796 8.924 0 3.795 1.189 6.917 3.577 9.377q3.567 3.675 10.485 5.129l10.594 2.115c2.678.599 4.684 1.434 6.028 2.515 1.334 1.08 2.006 2.578 2.006 4.512 0 2.388-1.008 4.285-3.014 5.692-2.006 1.416-4.984 2.124-8.924 2.124-2.16 0-4.366-.227-6.636-.672a30.4 30.4 0 0 1-6.527-2.061 38.6 38.6 0 0 1-5.91-3.295l-3.241 7.589q2.68 2.11 6.137 3.568 3.46 1.444 7.589 2.233a45.7 45.7 0 0 0 8.479.781c4.457 0 8.379-.654 11.765-1.952 3.386-1.307 6.01-3.223 7.861-5.746 1.861-2.533 2.796-5.501 2.796-8.924 0-3.94-1.253-7.063-3.74-9.377-2.496-2.297-6.155-3.94-10.984-4.902Zm100.066-23.149q-4.017-2.397-10.267-2.397c-4.539 0-8.515 1.171-11.937 3.513-2.882 1.972-4.887 4.705-6.346 7.918-1.114-3.51-2.735-6.359-5.138-8.199-2.832-2.152-6.509-3.232-11.048-3.232-2.896 0-5.556.499-7.979 1.507-2.415.999-4.475 2.433-6.191 4.294-1.101 1.201-1.993 2.631-2.787 4.169v-8.971h-10.93v54.44h11.266V40.665c0-3.268.517-6.109 1.562-8.533 1.044-2.415 2.551-4.258 4.521-5.519s4.33-1.897 7.081-1.897c3.64 0 6.246 1.08 7.807 3.241 1.561 2.151 2.342 5.537 2.342 10.149v33.016h11.266V40.666c0-3.268.545-6.109 1.625-8.533 1.071-2.415 2.614-4.258 4.63-5.519q3.009-1.895 7.026-1.897c3.64 0 6.264 1.08 7.862 3.241 1.597 2.151 2.397 5.537 2.397 10.149v33.016h11.266V37.544c0-4.902-.663-8.978-2.006-12.21-1.334-3.241-3.35-5.656-6.019-7.253Zm36.697-.645H250v8.737h-23.33zM215.336 0h11.334v17.434h-11.334zm0 26.171v26.303c0 6.608 1.662 11.723 5.102 15.151 3.349 3.544 8.465 5.31 15.255 5.31 1.766 0 3.622-.195 5.57-.662 2.051-.364 3.531-.922 4.648-1.571l-1.766-8.465c-1.117.286-2.233.558-3.44.844-1.116.273-2.233.454-3.349.454-3.804 0-6.504-1.013-8.179-2.973-1.675-2.038-2.506-5.011-2.506-8.919V26.171h-11.334Z"/></svg>