<svg xmlns="http://www.w3.org/2000/svg" fill='currentColor' id="uuid-caf8a178-a82a-472d-adfb-05b37401ade2" width="250" height="133.789" data-name="Capa 1" viewBox="0 0 250 133.789"><path d="M186.953 33.445h11.516v6.031h10.414v5.484h10.414v6.578h-10.414v5.484h10.414V63.6c-1.813.016-3.633.023-5.445.031q-.774.002-1.57.016h-1.492q-.75 0-1.383.008-1.071-.063-1.617-.609c-.078-1.828-.023-3.648 0-5.484h-10.414v-6.031h-9.867v6.031h-10.414v6.031h-10.414v4.937h10.414v6.578h-10.414v4.937h10.414v6.578h-10.414v4.937h10.414v6.031h10.414v6.031h9.867v-6.031h10.414c-.008-.891-.023-1.789-.031-2.703-.008-.922 0-1.852.031-2.773q.548-.547 1.617-.609.68-.002 1.383.008h1.492q.781 0 1.57.016h1.578c1.289 0 2.578.016 3.867.023v6.578h-10.414v5.484h10.414q.054 4.656 0 6.031-.547.547-1.516.609c-.414 0-.82 0-1.242-.008h-1.344c-.469 0-.93-.008-1.414-.016h-1.422c-1.164 0-2.32-.016-3.484-.023v5.484h-10.414c.008.891.023 1.789.031 2.703.008.922 0 1.852-.031 2.773q-.548.547-1.617.609-.68.002-1.383-.008h-1.492q-.774-.002-1.57-.016h-1.578c-1.289 0-2.578-.016-3.867-.023v-6.031H176.54v-5.484h-10.414v-6.031h-10.414v-6.578h10.414v-4.937c-.805.102-1.609.203-2.43.305-2.766.281-5.234.094-7.984-.305v-6.578h10.414v-4.937h-10.414v-7.125h10.414v-4.937h-10.414v-6.578h10.414v-4.937h-10.414v-6.578h10.414v-6.031h10.414v-5.484h10.414zm.547 6.578v4.937h9.867v-4.937zm-10.414 6.031v4.937h9.867v-4.937zm21.383 0v4.937h9.32v-4.937zm-31.797 5.484v5.484h9.867v-5.484zm0 46.602v5.484h9.867V98.14zm10.414 6.031v4.937h9.867v-4.937zm21.383 0v4.937h9.32v-4.937zm-10.969 6.031v4.937h9.867v-4.937zm-73.469-99.788h11.516v5.484h10.414v6.031h10.414v6.578c-3.648.461-6.781.531-10.414 0v4.938h10.414v6.578h-10.969v-6.031h-10.969v-5.484h-9.867v5.484h-10.414v6.031H93.742v4.937h10.414v6.578H93.742v5.484h10.414V63.6H93.742v4.937h10.414v5.484h10.414v6.031h9.867c-.008-.891-.023-1.789-.031-2.703-.008-.922 0-1.852.031-2.773q.547-.547 1.57-.609.648 0 1.312.008c.664.008.917.005 1.422 0s1.003 0 1.492.016h1.5c1.227 0 2.453.016 3.68.023V68.53h10.969v6.578h-10.414v4.937h10.414v6.578h-10.414v6.031c-3.648.461-6.781.531-10.414 0v5.484h-11.516v-5.484c-.805.102-1.609.203-2.43.305-2.766.281-5.234.094-7.984-.305v-6.031H93.21v-5.484H82.796v-7.125H93.21v-4.937H82.241c.18-2.172.359-4.344.547-6.578h10.414v-4.937H82.788v-6.578h10.414v-4.937H82.788v-6.578h10.414v-5.484H82.788v-6.031h10.414v-6.031h10.414v-6.031h10.414v-5.484.008Zm.547 6.031v5.484h9.867v-5.484zm-10.414 6.031v5.484h9.867v-5.484zm21.383 0v5.484h9.867v-5.484zM93.75 28.507v4.937h9.867v-4.937zm0 46.602v4.937h9.867v-4.937zm10.414 6.031v4.937h9.867V81.14zm21.383 0v4.937h9.867V81.14zm-10.969 5.484v4.937h9.867v-4.937zM20.836 0h11.516v6.031h9.867V0h10.969v6.578H42.774v5.484h10.414v6.031H42.219v-5.484h-9.867v5.484H21.938v6.031H10.969v5.484h10.969v5.484h9.867v-5.484h10.969v6.031q-7.726 1.344-10.414 0v5.484h10.414v6.031H31.805V41.67h-9.867v5.484H10.969v5.484h10.969v6.578H10.969v4.937h10.969v6.578H10.969v4.937c.742 0 1.492-.016 2.258-.016.969 0 1.945-.008 2.914-.016.492 0 .984-.008 1.492-.016h1.422c.43 0 .867 0 1.312-.008q1.016.063 1.57.609.057 1.524.031 3.047c0 .555-.008 1.109-.016 1.68 0 .43-.016.859-.016 1.297q-8.742 1.11-10.969 0v5.484h10.969q.054 4.656 0 6.031-.547.547-1.57.609-.645.002-1.312-.008h-1.422c-.492 0-.984-.008-1.492-.016h-1.5c-1.227 0-2.453-.016-3.68-.023v5.484H0v-6.578h10.414v-4.937H0v-6.578h10.414v-4.937H0v-6.578h10.414v-5.484H0v-6.031h10.414v-5.484H0v-6.578h10.414v-4.937H0v-6.578h10.414v-4.937H0v-6.578h10.414v-5.484H0v-6.031h10.414V6.045h10.414V.016zm1.094 6.578v5.484h9.867V6.578zm-10.969 6.031v4.937h9.867v-4.937zm0 23.023v5.484h9.867v-5.484zm52.086 15.899h11.516v6.578H63.594v4.938h10.969v6.578c-3.477.633-6.891.602-10.414.547-.18 1.445-.359 2.898-.547 4.383h10.969v6.578H63.602v5.484h10.969q.054 4.656 0 6.031-.547.547-1.57.609-.648 0-1.313-.008h-1.422c-.492 0-.984-.008-1.492-.016h-1.5c-1.227 0-2.453-.016-3.68-.023v4.937h10.969v6.578H63.594v4.937h10.969v6.578H63.594v5.484h10.969v6.031c-3.578.625-7.469 1.164-10.969 0v6.031H52.625v-6.578h10.414v-4.937H52.625v-6.578h10.414v-5.484H52.625v-6.031h10.414v-5.484H52.625v-6.578h10.414v-4.937H52.625v-6.578h10.414v-4.937H52.625v-6.578h10.414v-5.484H52.625q-.054-4.657 0-6.031.547-.547 1.516-.609c.414 0 .82 0 1.242.008h1.344c.469 0 .93.008 1.414.016h1.422c1.164 0 2.32.016 3.484.023v-5.484.008Zm175.984-12.609H250V45.5h-10.414v4.937H250v6.578h-10.414v4.937H250v6.578h-10.414v5.484H250v6.578c-3.641.531-6.766.461-10.414 0v4.937H250v7.125c-1.531.016-3.063.023-4.594.031-.437 0-.867.008-1.32.016q-3.289.015-4.508-.594v4.937h10.414v6.578h-10.414v5.484h10.414v6.031h-10.969v-5.484h-10.414v-6.578h10.414v-4.937h-10.414V91.56h10.414c-.18-1.625-.359-3.258-.547-4.937-.578 0-1.148.016-1.742.016q-1.139.002-2.266.016-.563.002-1.148.016c-1.727.008-3.063-.047-4.711-.594v-6.578h10.414v-4.937h-10.414v-6.578h10.414v-4.937h-10.414v-6.578h10.414v-5.484h-10.414v-6.031h10.414v-6.031h.008ZM63.047 22.477h11.516v6.031H63.594v5.484h10.969v6.578H63.047v-6.031H52.633v-6.578h10.414zm175.984-12.61H250v6.578h-10.414v4.937H250v6.578c-3.453.625-6.914.734-10.414.547q-.547-.547-.602-1.922l.016-1.68c0-.555.008-1.109.016-1.68 0-.43.016-.859.016-1.297q-.781.134-1.578.273-6.445.922-8.844-.273v-6.031h10.414V9.866z"/></svg>