<svg xmlns="http://www.w3.org/2000/svg" fill='currentColor' id="uuid-1ecd9de0-3553-491f-b5ee-cfb5aed20152" width="250" height="77.323" viewBox="0 0 250 77.323"><path d="M131.01 33.806c-8.001-.084-16.003-.018-24.005-.036-.644-.001-.827.212-.82.837.028 2.632.011 5.264.012 7.896q0 1.035 1.056 1.038c7.49 0 14.981-.003 22.471.006.61 0 1.229.037 1.829.141.842.145 1.53.567 1.929 1.363 1.193 2.382-.186 4.735-2.836 4.841q-.23.01-.46.012c-8.973-.005-17.946-.008-26.919-.019-1.748-.002-2.754-.984-2.834-2.738-.022-.484 0-.971 0-1.456 0-5.009-.004-10.017.002-15.026.003-2.11 1.015-3.149 3.131-3.238.383-.016.767-.017 1.15-.017l31.674-.002c1.508 0 1.339.106 1.343-1.378.007-2.428.002-4.855.002-7.283q0-1.146-1.118-1.148h-16.642c-5.445 0-10.891-.041-16.335.03-1.334.017-2.721.227-3.983.648-4.961 1.653-8.468 6.704-8.59 12.29-.103 4.7-.168 9.401-.167 14.101.003 8.221 6.665 14.985 14.887 15.048 8.282.063 16.566.013 24.848-.009 1.861-.005 3.651-.378 5.323-1.25 6.614-3.449 9.085-11.777 5.348-18.235-2.28-3.94-5.629-6.366-10.295-6.416Zm79.858-6.387c12.706.017 25.411.01 38.117.009 1.01 0 1.013-.004 1.014-1.02q.003-3.872 0-7.743c0-1.061-.003-1.066-1.055-1.066q-9.702-.002-19.403 0c-6.34 0-12.681-.047-19.02.036-1.454.019-2.98.276-4.339.781-6.142 2.285-9.901 9.954-7.397 16.592 1.791 4.747 6.157 8.674 12.263 8.581 8.588-.131 17.179-.033 25.769-.033.256 0 .512-.009.767.007 1.358.085 2.291.78 2.844 2.006.523 1.159.219 2.187-.502 3.152-.78 1.043-1.889 1.19-3.081 1.189-12.629-.007-25.258.002-37.886-.019-.768-.001-1.017.205-1.004.989.045 2.606.016 5.213.017 7.819 0 1.039.003 1.042 1.073 1.042 12.603 0 25.207.011 37.81-.016 1.192-.003 2.415-.108 3.57-.387 6.237-1.505 10.578-8.414 9.367-14.758-1.142-5.982-6.071-11.024-13.054-10.849-8.431.212-16.871.052-25.308.046a9 9 0 0 1-1.526-.11c-1.981-.332-3.109-2.549-2.252-4.364.646-1.369 1.736-1.886 3.215-1.884Zm-19.288-8.901c.002-.771-.274-.941-.979-.932-2.581.033-5.164.012-7.745.013q-1.127 0-1.13 1.15l-.002 32.503c0 .434.012.872-.035 1.302-.243 2.22-2.662 3.459-4.609 2.38-1.204-.667-1.666-1.694-1.663-3.044.017-8.688.014-17.376 0-26.063-.001-.891-.044-1.795-.195-2.671-1.221-7.073-8.747-11.876-15.752-10.126-5.665 1.415-10.293 6.259-10.052 12.841.191 5.206.038 10.424.038 15.637 0 5.775.011 11.55-.014 17.324-.003.699.198.932.906.923 2.581-.034 5.164-.012 7.745-.014q1.14 0 1.142-1.129-.001-16.328.004-32.656c0-.458.012-.923.091-1.372.357-2.023 2.595-3.122 4.434-2.219 1.405.69 1.832 1.855 1.829 3.334-.019 8.739-.016 17.478.001 26.217.002.889.065 1.793.236 2.664 1.113 5.687 6.729 10.163 12.759 10.073 6.457-.096 13.042-5.035 12.992-12.866-.071-11.089-.025-22.179-.002-33.269ZM13.849 13.641c2.173 1.329 4.6 1.625 7.073 1.568 2.787-.064 5.51-.595 8.183-1.378 3.243-.949 6.328-2.296 9.367-3.753.337-.161.606-.186.961-.013 1.117.545 2.255 1.046 3.391 1.55 4.207 1.866 8.547 3.247 13.171 3.571 2.671.187 5.286-.021 7.709-1.302 1.936-1.023 2.345-2.682 1.136-4.492-1.558-2.333-3.747-3.918-6.22-5.122C52.414 1.251 45.839-.226 38.947-.328a41 41 0 0 0-7.986.786c-4.833.952-9.499 2.382-13.724 4.997-1.76 1.089-3.268 2.465-4.354 4.249-.919 1.51-.553 3.008.966 3.937m49.849 49.77c-1.335-.716-2.773-1.093-4.271-1.245-3.406-.345-6.714.224-9.983 1.107-3.487.943-6.781 2.386-10.029 3.94-.367.176-.648.149-1.017-.014-2.15-.952-4.288-1.944-6.484-2.781-3.851-1.468-7.827-2.402-11.982-2.348-2.091.027-4.113.399-5.959 1.45-1.701.969-2.137 2.613-1.052 4.222 1.498 2.22 3.537 3.829 5.918 5.03 6.327 3.189 13.043 4.761 20.438 4.878.938-.054 2.201-.088 3.457-.205a46.3 46.3 0 0 0 15.321-4.15c2.671-1.242 5.069-2.852 6.759-5.344 1.241-1.83.833-3.494-1.118-4.541Zm3.926-47.374c-1.05-.352-2.1-.48-3.211-.185-1.793.476-3.598.924-5.418 1.277a1656 1656 0 0 1-17.539 3.301c-1.079.197-2.217.375-3.289.243a100 100 0 0 1-7.753-1.275 960 960 0 0 1-16.27-3.484c-1.182-.263-2.318-.336-3.435.103-.958.376-1.926.775-2.797 1.313-2.94 1.816-4.878 4.492-6.205 7.621C.772 27.157 0 29.422.005 31.867c0 .23-.011.46.002.689.144 2.549 1.424 4.662 4.122 5.346 1.738.441 3.494.48 5.243.265 4.062-.499 8.12-1.038 12.169-1.633 5.797-.851 11.521-2.078 17.204-3.499.285-.071.609-.069.899-.015.601.111 1.187.298 1.786.423 4.528.943 9.044 1.955 13.592 2.79 3.384.621 6.809 1.017 10.219 1.496 2.442.343 4.876.731 7.367.493 2.327-.223 4.07-1.19 4.815-3.502.261-.81.444-1.677.472-2.525.144-4.39-1.276-8.268-4.004-11.683-1.663-2.082-3.722-3.623-6.265-4.474Zm2.52 24.065c-.89-.198-1.819-.335-2.726-.316-1.853.038-3.704.191-5.554.314a126.7 126.7 0 0 0-22.426 3.516c-.508.127-1.105.105-1.618-.02-4.964-1.209-9.968-2.205-15.047-2.778-3.04-.343-6.086-.653-9.137-.871a36 36 0 0 0-5.21-.011c-2.138.158-3.925 1.011-4.773 3.187a8.94 8.94 0 0 0-.591 3.882c.184 2.821.994 5.436 2.574 7.801 1.549 2.319 3.512 4.127 6.191 5.053 1.092.377 2.2.664 3.368.319 1.522-.45 3.041-.914 4.573-1.328a158 158 0 0 1 17.86-3.711c.781-.117 1.599-.099 2.388-.02 1.025.103 2.037.328 3.054.502 6.342 1.088 12.603 2.523 18.748 4.432 1.114.346 2.187.388 3.263.025.831-.28 1.685-.568 2.425-1.022 4.811-2.949 6.665-7.599 7.31-12.916 0-.134.005-.268 0-.402-.123-3.036-1.704-4.979-4.669-5.638Z"/></svg>