<svg xmlns="http://www.w3.org/2000/svg" fill='currentColor' id="uuid-a7fc2a27-7594-4d9f-a1b4-d89e9f5e43a3" width="250" height="80.793" data-name="Capa 9" viewBox="0 0 250 80.793"><path fill-rule="evenodd" d="M227.619 20.271q-.113.034-.228.073a1 1 0 0 0-.156.029c-8.407 2.449-17.521 3.072-26.877 1.746-1.269-.18-2.293 1.151-2.285 3.018.008 1.86.544 3.455 2.302 3.691 5.529.77 11.806 1.716 21.846.437 2.165-.223 3.357.504 2.814 2.225-.948 3.108-17.477 6.347-34.733 2.051-1.307-.397-3.428.981-3.4 2.88.028 1.895.889 3.201 2.188 3.571 13.268 3.81 23.823 3.889 35.685.257 2.566-.995 3.592 2.796.836 4.091-4.609 3.133-23.437 5.936-36.636 2.38-1.293-.348-3.424-.491-3.851 2.625.027 1.852.788 3.93 2.759 4.338 13.13 3.31 25.487 2.24 37.239-1.701 1.845-.664 3.24 3.11-.434 4.694-4.199 2.252-21.858 6.61-34.918 3.543-1.923-.323-2.997.864-2.971 2.686.175 3.061 3.255 3.654 4.528 3.928 12.993 2.828 20.615 1.614 32.26-2.627 2.08-.915 3.048.092 2.441 1.745-.598 2.697-10.897 8.336-25.709 8.015-.64 4.673 3.4 6.758 12.076 5.432 22.523-3.687 35.008-20.832 34.382-43.009-1.947-16.305-7.257-19.571-19.158-16.117ZM160.565 62.38h-5.599l-1.973 18.102h5.599c5.293 0 9.238-3.284 9.868-9.05.624-5.741-2.603-9.052-7.895-9.052m6.749 9.052c-.566 5.197-4.053 8.014-8.786 8.014h-4.327l1.747-16.032h4.325c4.733 0 7.604 2.845 7.04 8.017Zm-42.581-9.362c-4.961 0-9.447 4.034-10.014 9.232-.579 5.327 3.013 9.491 7.976 9.491s9.461-4.164 10.042-9.491c.567-5.198-3.041-9.232-8.004-9.232m6.859 9.232c-.519 4.759-4.431 8.431-8.782 8.431s-7.464-3.671-6.944-8.431c.503-4.628 4.401-8.172 8.752-8.172s7.477 3.543 6.974 8.172m-27.095-7.887h11.871l.113-1.035h-12.965l-1.971 18.102h1.094l.924-8.482h8.81l.112-1.033h-8.81zm71.89-1.345c-3.231 0-5.592 2.278-5.855 4.681-.615 5.663 8.65 4.24 8.089 9.386-.238 2.172-2.146 3.569-4.359 3.569-2.953 0-4.539-2.017-4.539-2.017l-.831.853s1.689 2.251 5.2 2.251c3.181 0 5.394-2.095 5.678-4.707.66-6.051-8.61-4.577-8.088-9.361.191-1.758 1.966-3.569 4.612-3.569 2.367 0 3.723 1.553 3.723 1.553l.716-.958s-1.445-1.681-4.346-1.681m-32.13 0c-4.962 0-9.447 4.034-10.014 9.232-.58 5.327 3.012 9.491 7.975 9.491s9.46-4.164 10.041-9.491c.567-5.198-3.04-9.232-8.002-9.232m6.857 9.232c-.517 4.759-4.43 8.431-8.78 8.431s-7.463-3.671-6.944-8.431c.504-4.628 4.4-8.172 8.751-8.172s7.478 3.543 6.974 8.172Zm-46.362-16.461h4.041l4.241-37.391h-4.039zm5.117-42.797c.44.427 1.043.638 1.819.638.97 0 1.747-.3 2.323-.9q.868-.901.811-2.44-.039-1.09-.697-1.708-.657-.621-1.817-.62-1.498 0-2.343.881-.849.883-.793 2.421.037 1.09.697 1.727Zm34.766 13.591q3.536-2.552 6.987-3.83 3.452-1.276 6.144-1.276 3.291 0 4.685 1.821 1.392 1.82.997 5.386l-3.113 27.105h4.039l3.156-27.967q.57-4.993-1.599-7.584-2.167-2.59-6.806-2.591-3.327.002-6.961 1.445-3.634 1.447-7.173 3.886L147.407.632h-3.963l-6.149 54.209h4.04zM241.06 9.511h.571l.739-4.965h1.945l.077-.52h-4.64l-.081.52h2.124zM6.311 20.265q.34-3.116 1.656-5.555a13.7 13.7 0 0 1 3.405-4.148q2.091-1.71 4.844-2.61 2.755-.9 6.008-.901 3.104 0 6.01.694 2.904.694 4.993 1.558l1.489-3.34q-2.32-1.127-5.399-1.916-3.076-.789-6.926-.789c-3.85 0-5.008.37-7.311 1.108q-3.459 1.108-6.149 3.248-2.692 2.14-4.434 5.236-1.74 3.099-2.197 7.077L.145 39.223q-.462 3.868.545 6.908c.668 2.027 1.716 3.741 3.135 5.142q2.133 2.103 5.163 3.21 3.031 1.104 6.659 1.106 3.891 0 7.529-.75c2.424-.502 4.559-1.178 6.397-2.028l2.447-21.662h-3.927l-2.16 19.184a34 34 0 0 1-4.451 1.052 29.7 29.7 0 0 1-5.034.413q-3.067 0-5.492-.864T6.921 48.42q-1.612-1.653-2.33-4.035-.721-2.386-.382-5.464l2.1-18.658ZM249.372 4.026l-2.384 3.99-1.174-3.94-.014-.05h-.629l-.815 5.485h.563l.651-4.348 1.104 3.677h.406l2.187-3.657-.644 4.328h.562L250 4.026zM131.64 51.763q-1.379.186-2.612.186-1.309 0-2.349-.337a4.04 4.04 0 0 1-1.74-1.088q-.702-.751-.988-1.99c-.191-.826-.224-1.84-.089-3.04l2.783-24.702h10.063l.404-3.341h-10.135l1.199-10.436h-3.514l-1.611 10.436h-6.395l-.405 3.341h6.395l-2.843 25.19q-.287 2.515.19 4.334.476 1.824 1.584 2.985 1.108 1.166 2.774 1.726 1.665.564 3.76.564 1.683 0 3.281-.243 1.6-.247 2.712-.546l-.05-3.453q-1.037.225-2.415.414ZM105.451 17.45H95.09l.668-5.846q.456-3.98 2.425-5.969 1.967-1.989 5.147-1.99 1.344 0 2.661.169 1.314.17 2.408.432l.886-3.491q-.909-.3-2.505-.526a24.5 24.5 0 0 0-3.392-.226q-2.282 0-4.274.789a10.9 10.9 0 0 0-3.529 2.252q-1.537 1.464-2.51 3.549-.973 2.081-1.293 4.635l-.692 6.221H76.326l.66-5.594q.394-3.678 2.325-5.629c1.287-1.303 3.031-1.954 5.223-1.954q1.198 0 2.474.187 1.28.19 2.072.415l.923-3.493q-.871-.298-2.336-.525a21 21 0 0 0-3.113-.224q-2.283 0-4.273.768a10.9 10.9 0 0 0-3.513 2.179c-1.014.936-1.846 2.077-2.499 3.414q-.974 2.008-1.262 4.449l-.682 6.007h-6.358l-.369 3.341h6.359l-4.124 34.05h4.039l4.085-34.05h14.765l-6.316 52.872h4.001l6.317-52.872h10.359zM54.456 54.841h4.039l4.242-37.391h-4.04zm.433-38.142q-1.68.113-3.545.789a28 28 0 0 0-3.716 1.67 30 30 0 0 0-3.568 2.253 28 28 0 0 0-3.051 2.571l.366-6.532h-3.291l-4.241 37.391h4.039l3.037-27.067q1.482-1.425 3.216-2.647a32 32 0 0 1 3.533-2.158 25.5 25.5 0 0 1 3.554-1.54q1.754-.6 3.248-.712zm7.122-9.685q-1.5 0-2.346.881c-.562.588-.829 1.396-.793 2.421q.04 1.09.698 1.727.658.64 1.818.638 1.459 0 2.324-.9.866-.901.809-2.44-.037-1.09-.695-1.708-.66-.621-1.815-.62Z"/><path fill-rule="evenodd" d="M193.125 25.611c.024-2.219.847-4.233 2.254-5.523 1.226-1.124 2.764-1.611 4.338-1.374a59.4 59.4 0 0 0 24.873-1.445q.142-.038.286-.069l.098-.029c4.764-1.303 10.125-2.272 14.823-.24C232.565 6.767 221.192.151 208.331.003c-13.708-.161-25.891 7.064-33.261 18.216 1.359 1.23 7.741 6.597 18.302 9.647a9.5 9.5 0 0 1-.248-2.254Z"/></svg>