<svg xmlns="http://www.w3.org/2000/svg" fill='currentColor' id="uuid-71f1a954-df71-42d0-b89e-ffb57e5ed142" width="250" height="41.499" data-name="Capa 1" viewBox="0 0 250 41.499"><path d="M136.731 1.342c3.859-.055 7.711-.102 11.688-.156q1.805-.031 3.656-.07c7.758-.047 12.914.539 18.735 6.039 4.125 5.891 3.766 12.133 3.328 19.118-.953 4.352-3.539 7.688-6.649 10.805-4.141 2.125-7.117 2.797-11.844 2.734-1 0-1.992-.016-3.024-.016l-3.781-.07c-3.992-.055-7.985-.102-12.102-.156V1.342h-.008Zm14.133 12.469v13.297q5.391.508 7.844-1.25c1.828-2.93 1.969-5.367 1.297-8.727q-1.164-2.203-3.328-3.328h-5.82l.008.008ZM96.832 1.342q11.632 0 14.235 1.734c.516.781 1.031 1.563 1.555 2.367.57.828 1.148 1.656 1.734 2.508q.79 1.25 1.586 2.531l1.563 2.274a181 181 0 0 1 3.422 5.211l.828-16.625h11.633v39.064q-10.805 0-13.321-1.734l-1.586-2.367c-.578-.828-1.164-1.656-1.758-2.508-.531-.836-1.07-1.672-1.617-2.531l-1.563-2.274a165 165 0 0 1-3.422-5.211c-.047 1.063-.102 2.125-.156 3.211l-.211 4.164a284 284 0 0 1-.102 2.117c-.031.672-.07 1.336-.109 2.031l-.094 1.875q-.172 1.562-1 3.227H96.816V1.342zm109.823 1.5c2.305 1.477 3.977 3.024 5.703 5.149.633.773 1.266 1.539 1.922 2.336 2.867 5.352 2.399 13.469.695 19.126-2.797 5.57-7.289 9.008-13.008 11.258-7.258 1.297-13.938.508-20.258-3.477-4.688-4.828-6.805-9.586-7.016-16.258.148-6.367 1.883-11.18 6.266-15.86 7.094-6.156 17.516-6.555 25.696-2.274m-17.571 11.797c-1.914 3.039-1.891 5.805-1.336 9.25.844 2.602 2.344 3.563 4.656 4.875 2.859 1.102 3.899.93 6.805-.156q2.851-1.82 4-4.828.485-4.844-1.555-9.094c-2.102-2.039-2.852-2.492-5.766-2.75-3.039.234-4.438.797-6.805 2.703ZM83.487 1.498c6.461 3.82 9.367 7.844 11.688 14.805.617 6.133.203 11.438-3.328 16.625-5.274 6.008-9.524 7.946-17.399 8.571-5.945-.195-11.118-2.195-15.422-6.328-4.758-5.36-5.336-11.11-5.008-18.094.789-5.992 3.328-9.836 7.906-13.657C68.44.162 76.479-1.252 83.479 1.498zM68.58 13.811c-1.633 2.938-2.492 5.039-2.492 8.414 1.07 3.086 2.438 4.524 4.985 6.547 2.899 1.188 3.875.945 6.805-.258q2.352-1.281 4-3.063c.82-3.789 1.141-5.781-.156-9.453-1.57-2.274-2.211-3.094-4.828-3.844-3.203-.266-5.735-.375-8.313 1.664zM218.179 1.342c3.602-.031 7.203-.07 10.907-.102l3.414-.047 2.727-.016 2.774-.023c2.781.203 5.016.859 7.61 1.852V4.67l2.492.828c2.008 3.008 1.906 5.25 1.867 8.727l.016 1.703c-.016 3.07-.141 4.399-1.891 7.024l1.664.828c.07 1.211.117 2.422.156 3.633q.047 1.015.086 2.047c-.078.594-.164 1.188-.242 1.797-.82.547-1.648 1.094-2.492 1.664.414.461.82.922 1.25 1.406 1.469 2.258 1.352 3.445 1.25 6.078-4.281.5-8.196.734-12.469 0-2.781-2.383-4.297-5.016-5.82-8.313l-.828-1.664-.828 9.977h-11.633V1.342h-.008Zm11.633 10.805v4.985q4.422.242 8.313-1.664v-2.492c-1.898-.953-2.984-.914-5.094-.883q-1.594.024-3.219.055Z"/><path d="M42.689 1.248c.656 0 1.313.008 1.992.016q1.062 0 2.149.008c.75 0 1.492.016 2.258.023a1284 1284 0 0 1 7.844.047c-1.063 2.922-2.281 5.203-4.188 7.649q-.726.937-1.461 1.891c-.5.641-1 1.281-1.516 1.938l-1.539 1.984c-1.25 1.609-2.5 3.219-3.758 4.82a128 128 0 0 0 5.828 8.297c.438.57.875 1.148 1.328 1.734.914 1.188 1.836 2.367 2.75 3.555q.657.851 1.32 1.727c.398.516.797 1.023 1.203 1.555q.86 1.422.859 3.922-13.078 1-16.93-1.039c-1.531-1.766-2.649-3.602-3.852-5.61a234 234 0 0 0-2.391-3.102c-.867-1.109-1.727-2.227-2.594-3.344-.422-.539-.844-1.078-1.273-1.633q-2.922-3.938-2.734-5.992c.836-2.094 1.93-3.664 3.281-5.469q.774-1.04 1.57-2.117.813-1.086 1.648-2.188c.547-.734 1.086-1.461 1.648-2.219q4.734-6.336 6.547-6.453h.008Zm-31.462.93 2.492.828v34.907q-3.328.828-4.805.211c-3.727-2.711-5.633-5.211-7.664-9.352l-.828-1.664C-.226 20.045-.765 13.592 3.923 7.811c2.32-2.305 4.445-4.016 7.305-5.633Zm9.141 21.61q2.493 0 3.781 1.258a480 480 0 0 1 4.32 5.649c.508.656 1.023 1.305 1.547 1.977.477.633.961 1.258 1.453 1.906.438.578.883 1.156 1.336 1.758.281.523.563 1.039.859 1.578l-.828 2.492H20.367c-1.367-2.742-.953-5.774-.938-8.782q.002-.982-.008-2 .008-4.907.945-5.844v.008Zm0-22.446h13.297c-1.641 4.109-3.336 6.524-6.133 9.821q-.602.742-1.211 1.508-1.196 1.422-3.461 3.641h-3.328q-.033-3.268-.055-6.547c0-.617-.016-1.242-.023-1.883q-.024-4.688.906-6.539z"/></svg>