<svg xmlns="http://www.w3.org/2000/svg" fill='currentColor' id="uuid-c8c59523-fa8f-4c74-8aa1-831b3eaf5efe" width="250" height="165.211" data-name="Capa 8" viewBox="0 0 250 165.211"><path d="m0 78.498 49.058-39.244 49.067 39.244V0H0zm49.058 47.459L0 86.712v78.499h98.125V86.712H49.058zm115.9-16.559-5.116-26.337h-3.801l-6.414 16.875-6.414-16.875h-3.8l-5.116 26.337h4.683l3.142-16.292 5.925 15.688h3.141l5.926-15.688 3.16 16.292zm27.803-8.09q.977-2.522.902-5.398h-10.195v4.005h4.798a9.7 9.7 0 0 1-1.308 2.259 8.4 8.4 0 0 1-1.768 1.693 8 8 0 0 1-2.108 1.063 7.3 7.3 0 0 1-2.286.367 7.8 7.8 0 0 1-3.273-.697 8.5 8.5 0 0 1-2.68-1.926 9.1 9.1 0 0 1-1.816-2.881 9.4 9.4 0 0 1-.658-3.506q0-1.976.678-3.64a9.1 9.1 0 0 1 1.852-2.896 8.5 8.5 0 0 1 2.69-1.911 7.7 7.7 0 0 1 3.17-.676q1.692 0 3.32.762 1.626.76 2.887 2.303l4.101-2.202q-2.05-2.763-4.732-4.09-2.68-1.326-5.52-1.325-2.54.001-4.882.997a13.3 13.3 0 0 0-4.185 2.82c-1.229 1.219-2.198 2.652-2.907 4.308s-1.062 3.475-1.062 5.456q0 2.822.987 5.294a14 14 0 0 0 2.737 4.365 12.7 12.7 0 0 0 4.11 2.964q2.36 1.07 5.107 1.071c2.747.001 3.536-.365 5.117-1.093q2.37-1.09 4.156-3.028c1.786-1.938 2.113-2.777 2.766-4.457Zm29.664-18.247h-3.801l-6.414 16.875-6.414-16.875h-3.8l-5.116 26.337h4.683l3.141-16.292 5.926 15.688h3.141l5.926-15.688 3.159 16.292h4.685zm-98.286 40.8h1.408v13.323h-1.408zm16.881 13.324v-13.324h-1.389v10.807l-8.584-10.807h-1.16v13.324h1.408v-10.804l8.564 10.804zm7.375-.391q1.284.505 2.807.505a8.3 8.3 0 0 0 2.665-.429 6.4 6.4 0 0 0 2.227-1.265v-5.082h-1.351v4.358c-.425.319-.844.658-1.323.82a6.7 6.7 0 0 1-2.16.342 6.1 6.1 0 0 1-2.255-.409 5.4 5.4 0 0 1-1.808-1.162 5.4 5.4 0 0 1-1.199-1.761 5.5 5.5 0 0 1-.428-2.189q0-1.198.428-2.198a5.4 5.4 0 0 1 1.199-1.752 5.4 5.4 0 0 1 1.808-1.16 6.2 6.2 0 0 1 2.275-.409q1.16 0 2.169.361 1.01.362 1.846 1.198l.876-.893a5.54 5.54 0 0 0-2.161-1.446q-1.265-.477-2.788-.476c-1.523.001-1.951.167-2.807.503a6.8 6.8 0 0 0-2.236 1.418 6.4 6.4 0 0 0-1.475 2.149q-.524 1.238-.524 2.703c0 1.465.174 1.879.524 2.703a6.5 6.5 0 0 0 1.465 2.152 6.7 6.7 0 0 0 2.227 1.417Zm20.81-11.714v-1.219h-9.134v13.324h9.42v-1.218h-8.012v-4.948h6.889v-1.199h-6.889v-4.74zm5.005 1.302 8.565 10.803h1.161v-13.324h-1.389v10.808l-8.584-10.808h-1.16v13.324h1.407zm14.065-2.521h1.408v13.323h-1.408zm15.168 12.106h-8.012v-4.948h6.89v-1.199h-6.89v-4.74h7.727v-1.219h-9.135v13.324h9.42zm13.084-5.111q.657-1.017.657-2.425 0-2.152-1.456-3.36-1.456-1.209-3.986-1.21h-4.987v13.323h1.408v-4.225h3.579c.382 0 .64-.142.986-.183l3.125 4.408h1.542l-3.321-4.659c.175-.058.418-.036.58-.108q1.218-.543 1.874-1.562Zm-4.825.904h-3.54v-6.68h3.54q1.999 0 3.036.876 1.037.875 1.038 2.475 0 1.578-1.038 2.455-1.036.874-3.036.874m8.812-7.899h1.408v13.323h-1.408zm5.081 13.324 1.593-3.559h7.434l1.593 3.559h1.485l-6.09-13.323h-1.39l-6.09 13.323h1.466Zm5.31-11.866 3.206 7.165h-6.412zm-112.851 33.784-4.677-7.651h-1.539l5.456 8.928v4.713h1.423v-4.713l5.456-8.928h-1.442zm21.552-7.095q-1.248-.556-2.981-.556h-5.105v13.641h1.441v-4.307h3.664q1.734 0 2.981-.565 1.247-.564 1.919-1.608.673-1.041.672-2.483 0-1.481-.672-2.525t-1.919-1.597m.087 6.626q-1.062.886-3.108.887h-3.624v-6.822h3.624q2.047 0 3.108.897c1.061.897 1.062 1.441 1.062 2.534q0 1.617-1.062 2.504m13.711 1.578q1.247-.555 1.919-1.599.673-1.041.673-2.483 0-2.202-1.491-3.44t-4.082-1.238h-5.106v13.641h1.441v-4.326h3.664c.391 0 .655-.145 1.009-.188l3.199 4.514h1.579l-3.4-4.77c.179-.059.428-.037.594-.111Zm-3.021-.673h-3.624v-6.84h3.624q2.047 0 3.108.897c1.061.897 1.063 1.441 1.063 2.534q0 1.617-1.063 2.513t-3.108.896m20.1-6.235a6.8 6.8 0 0 0-2.27-1.453q-1.305-.516-2.845-.516-1.56 0-2.865.516-1.306.517-2.27 1.462c-.964.945-1.143 1.364-1.5 2.201q-.536 1.258-.536 2.758c0 1.5.179 1.92.536 2.757a6.7 6.7 0 0 0 3.78 3.663q1.314.517 2.855.517c1.541 0 1.974-.173 2.845-.517a6.8 6.8 0 0 0 2.27-1.451 6.6 6.6 0 0 0 1.5-2.203q.536-1.267.536-2.767c0-1.5-.179-1.922-.536-2.767a6.6 6.6 0 0 0-1.5-2.201Zm.166 7.219a5.5 5.5 0 0 1-1.198 1.793 5.4 5.4 0 0 1-1.813 1.19q-1.043.419-2.27.419c-1.227 0-1.579-.14-2.28-.419a5.5 5.5 0 0 1-1.832-1.19 5.4 5.4 0 0 1-1.207-1.802 5.8 5.8 0 0 1-.429-2.241q0-1.228.429-2.25a5.5 5.5 0 0 1 1.207-1.794 5.4 5.4 0 0 1 1.832-1.187q1.052-.419 2.28-.419c1.228 0 1.575.139 2.27.419a5.4 5.4 0 0 1 1.813 1.187 5.5 5.5 0 0 1 1.198 1.794q.429 1.022.429 2.25c0 1.228-.144 1.568-.429 2.25m8.535-1.42-4.676-7.651h-1.54l5.456 8.928v4.713h1.423v-4.713l5.456-8.928h-1.441zm9.51-.323h7.055v-1.227h-7.055V152.7h7.912v-1.248h-9.354v13.641h9.646v-1.246h-8.204zm13.368-4.551a5.4 5.4 0 0 1 1.832-1.187 6.1 6.1 0 0 1 2.28-.419q1.17 0 2.183.379 1.014.38 1.852 1.239l.916-.917a5.6 5.6 0 0 0-2.202-1.49 7.8 7.8 0 0 0-2.787-.497q-1.539 0-2.845.516-1.305.517-2.27 1.453c-.965.936-1.144 1.358-1.5 2.201q-.536 1.267-.536 2.767c0 1.5.179 1.923.536 2.767a6.7 6.7 0 0 0 1.491 2.203 6.7 6.7 0 0 0 2.261 1.451q1.305.517 2.845.517 1.5 0 2.806-.507a5.7 5.7 0 0 0 2.202-1.501l-.916-.915q-.838.857-1.852 1.247c-1.014.39-1.403.39-2.183.39q-1.227 0-2.28-.419a5.45 5.45 0 0 1-1.832-1.19 5.6 5.6 0 0 1-1.218-1.793q-.438-1.023-.438-2.25c0-1.227.146-1.568.438-2.25a5.6 5.6 0 0 1 1.218-1.794Zm9.607-1.529h4.794v12.393h1.442V152.7h4.794v-1.248h-11.03zm24.213.604a6.8 6.8 0 0 0-2.27-1.453q-1.306-.516-2.845-.516-1.559 0-2.865.516c-1.306.516-1.627.833-2.27 1.462a6.8 6.8 0 0 0-1.5 2.201q-.537 1.258-.536 2.758c.001 1.5.178 1.92.536 2.757a6.72 6.72 0 0 0 3.781 3.663q1.314.517 2.854.517c1.54 0 1.974-.173 2.845-.517a6.8 6.8 0 0 0 2.27-1.451 6.6 6.6 0 0 0 1.5-2.203q.536-1.267.536-2.767c0-1.5-.178-1.922-.536-2.767a6.6 6.6 0 0 0-1.5-2.201Zm.166 7.219a5.5 5.5 0 0 1-1.198 1.793 5.4 5.4 0 0 1-1.813 1.19q-1.043.419-2.27.419c-1.227 0-1.579-.14-2.28-.419a5.45 5.45 0 0 1-1.832-1.19 5.45 5.45 0 0 1-1.208-1.802 5.8 5.8 0 0 1-.429-2.241q0-1.228.429-2.25a5.43 5.43 0 0 1 3.04-2.981q1.052-.419 2.28-.419c1.228 0 1.575.139 2.27.419a5.4 5.4 0 0 1 1.813 1.187 5.5 5.5 0 0 1 1.198 1.794q.429 1.022.429 2.25c0 1.228-.144 1.568-.429 2.25m13.494-.769a3.4 3.4 0 0 0-1.208-1.062 8.5 8.5 0 0 0-1.637-.653 41 41 0 0 0-1.784-.467 15 15 0 0 1-1.647-.487q-.75-.273-1.208-.761-.458-.486-.458-1.286 0-.702.38-1.256.38-.556 1.179-.887c.799-.331 1.209-.331 2.027-.331q.916 0 1.9.272a6.5 6.5 0 0 1 1.861.857l.487-1.15q-.819-.565-1.948-.888a8.3 8.3 0 0 0-2.28-.32q-1.734 0-2.845.516c-1.111.516-1.289.799-1.646 1.364a3.4 3.4 0 0 0-.536 1.862q0 1.09.458 1.763t1.209 1.081q.75.408 1.647.653.896.243 1.793.456.895.216 1.637.499.74.282 1.199.769.457.488.458 1.286 0 .664-.38 1.208-.38.546-1.189.868t-2.095.322q-1.345 0-2.563-.477-1.218-.479-1.939-1.181l-.565 1.112q.76.779 2.154 1.275 1.394.497 2.913.498 1.754 0 2.874-.517t1.666-1.364c.546-.847.545-1.178.545-1.842q0-1.07-.458-1.735Z"/></svg>