<svg xmlns="http://www.w3.org/2000/svg" fill='currentColor' id="uuid-6c793264-e57a-47d9-a6a9-2234308960df" width="250" height="143.719" data-name="Capa 6" viewBox="0 0 250 143.719"><path d="m138.386 132.778-5.183-24.655-9.041 1.901 7.084 33.695 33.695-7.084-1.9-9.04zm104.531-47.719-9.04 1.9 5.183 24.655-24.655 5.183 1.9 9.041L250 118.754zm-120.512-28.3-5.183-24.655 24.655-5.183-1.901-9.04-33.695 7.083 7.084 33.695zm95.491-45.819 5.183 24.655 9.04-1.9L225.036 0l-33.695 7.083 1.9 9.04zM17.849 69.925q-.968-.583-2.45-.584-1.591 0-2.81.809c-.689.457-1.177 1.088-1.535 1.831-.277-.813-.672-1.472-1.247-1.897q-1.009-.742-2.571-.742-1.034 0-1.883.345a4.2 4.2 0 0 0-1.456.981 4.3 4.3 0 0 0-.664.945v-2.006H0v12.96h3.313v-7.182q0-1.088.332-1.855.331-.77.953-1.18.623-.41 1.499-.41 1.14 0 1.628.688.492.689.492 2.174v7.764h3.313v-7.182q0-1.088.33-1.855.332-.77.968-1.18t1.484-.41q1.165 0 1.656.688.49.689.49 2.174v7.764h3.313v-7.898q0-1.802-.477-2.981-.477-1.18-1.445-1.762Zm13.929 6.968q0 1.009-.384 1.764-.385.754-1.061 1.165c-.676.411-.975.412-1.577.412q-.795 0-1.311-.293-.518-.291-.768-.899-.252-.61-.252-1.512v-7.924h-3.313v7.872q.001 1.775.515 2.968.517 1.193 1.579 1.788 1.058.598 2.677.597 1.535 0 2.664-.768c.551-.377.965-.914 1.311-1.528v2.031h3.233v-12.96h-3.313zm15.714-6.757q-1.325-.796-3.179-.796-1.882.001-3.354.863c-1.472.862-1.749 1.363-2.306 2.37s-.835 2.183-.835 3.526q0 2.067.861 3.578c.861 1.511 1.391 1.784 2.452 2.331q1.59.822 3.789.822 1.404 0 2.81-.451 1.403-.45 2.331-1.219l-.927-2.226q-.902.716-1.989 1.046c-1.087.33-1.447.332-2.172.332q-1.326 0-2.226-.479a3.03 3.03 0 0 1-1.352-1.43c-.206-.434-.314-.974-.379-1.564h9.257v-.981q0-2.014-.729-3.472-.727-1.456-2.053-2.252Zm-4.943 1.973q.783-.515 1.896-.515 1.484 0 2.28.966c.463.565.686 1.381.744 2.372h-6.448c.063-.498.161-.965.336-1.365q.412-.939 1.193-1.458Zm20.817-1.947q-1.272-.822-2.994-.822-1.617 0-2.836.796c-.605.395-1.013.913-1.324 1.493v-7.748h-3.313v18.684h3.233v-2.214c.302.655.723 1.23 1.365 1.658q1.232.822 2.875.822 1.695 0 2.981-.822 1.287-.821 2.001-2.347.716-1.524.716-3.591 0-2.093-.716-3.591-.715-1.495-1.989-2.319ZM61.83 79.24q-.901 1.074-2.385 1.074c-1.484 0-1.786-.358-2.385-1.074q-.903-1.073-.902-3.168 0-2.118.902-3.166.9-1.046 2.385-1.046c1.485 0 1.784.349 2.385 1.046q.901 1.047.902 3.166-.001 2.095-.902 3.168m12.298.86q-.663 0-1.113-.265-.452-.263-.677-.807c-.225-.544-.224-.8-.224-1.313V63.882h-3.313v13.993q0 2.439 1.1 3.697c1.1 1.258 1.868 1.26 3.406 1.26a7 7 0 0 0 .966-.067q.463-.065.94-.173l.054-2.623q-.265.078-.556.106c-.291.028-.388.026-.582.026Zm11.95-9.964q-1.326-.796-3.179-.796-1.882.001-3.354.863c-1.472.862-1.749 1.363-2.306 2.37s-.835 2.183-.835 3.526q0 2.067.861 3.578c.861 1.511 1.391 1.784 2.452 2.331q1.59.822 3.789.822 1.403 0 2.81-.451 1.403-.45 2.331-1.219l-.927-2.226q-.902.716-1.989 1.046c-1.087.33-1.447.332-2.172.332q-1.326 0-2.226-.479a3.03 3.03 0 0 1-1.352-1.43c-.206-.434-.314-.974-.379-1.564h9.257v-.981q0-2.014-.729-3.472-.727-1.456-2.053-2.252Zm-4.943 1.973q.783-.515 1.896-.515 1.484 0 2.28.966c.463.565.686 1.381.744 2.372h-6.448c.063-.498.161-.965.336-1.365q.412-.939 1.193-1.458Zm19.745 4.308q-.888-.847-2.612-1.165l-2.648-.505q-.77-.133-1.141-.503a1.26 1.26 0 0 1-.371-.93q0-.741.623-1.191.621-.452 1.922-.451.663-.001 1.365.173.702.172 1.365.477.661.304 1.165.729l.902-2.174a4.7 4.7 0 0 0-1.365-.861 8.5 8.5 0 0 0-1.656-.505 9.4 9.4 0 0 0-1.801-.173q-1.618 0-2.864.505-1.246.503-1.948 1.43-.702.928-.701 2.2 0 1.407.861 2.293.86.889 2.504 1.206l2.651.505q.822.16 1.232.49.412.333.412.94 0 .717-.623 1.154-.621.437-1.894.438a8.5 8.5 0 0 1-3.208-.637 9 9 0 0 1-1.432-.742l-.848 2.172a5.7 5.7 0 0 0 1.484.835 10 10 0 0 0 1.868.518 12 12 0 0 0 2.107.185q1.67 0 2.916-.49 1.245-.491 1.935-1.419c.69-.928.688-1.361.688-2.226q0-1.431-.886-2.28Zm12.229-2.636a6.1 6.1 0 0 0-1.298 1.827 5.25 5.25 0 0 0-.451 2.187q0 1.511.783 2.638.781 1.126 2.239 1.762t3.446.636a8 8 0 0 0 3.326-.716c.876-.398 1.635-.947 2.322-1.591l1.931 2.042h4.029l-4.163-4.186a12.4 12.4 0 0 0 1.339-2.916q.596-1.935.677-4.109h-2.756a15.6 15.6 0 0 1-.451 3.047 10.2 10.2 0 0 1-.765 2.043l-3.568-3.8c.731-.433 1.367-.87 1.842-1.316q.874-.822 1.27-1.723.398-.9.399-1.909-.001-1.244-.584-2.159c-.583-.915-.932-1.083-1.628-1.417q-1.047-.504-2.506-.505-1.564 0-2.728.556-1.167.557-1.803 1.564-.635 1.009-.636 2.331 0 1.114.518 2.161c.302.611.799 1.257 1.43 1.927l-.17.1a10 10 0 0 0-2.042 1.525Zm7.169 5.935q-.993.491-2.265.49-1.618 0-2.491-.714-.876-.718-.876-1.963 0-.741.252-1.337.252-.599.809-1.113c.364-.339.843-.683 1.428-1.03l4.499 4.652c-.424.417-.869.776-1.357 1.015Zm-3.272-13.197q.584-.543 1.536-.544.876-.002 1.406.477.53.475.528 1.378 0 .608-.291 1.113c-.291.505-.507.671-.94 1.007-.336.26-.792.555-1.312.868a17 17 0 0 1-.795-.934q-.398-.517-.556-.953c-.158-.436-.16-.606-.16-.94q0-.928.584-1.471Zm20.964 5.962q-.716 1.499-.716 3.591 0 2.067.716 3.591.715 1.526 1.999 2.347 1.288.822 2.983.822 1.643 0 2.862-.822c.652-.439 1.078-1.031 1.378-1.708v2.265h3.233V63.883h-3.313v7.797c-.31-.602-.724-1.137-1.337-1.543q-1.208-.796-2.823-.796-1.695 0-2.983.822-1.285.823-1.999 2.319Zm3.524.425q.9-1.046 2.385-1.046c1.485 0 1.784.349 2.385 1.046q.901 1.047.902 3.166-.001 2.095-.902 3.168-.901 1.074-2.385 1.074c-1.484 0-1.786-.358-2.385-1.074q-.902-1.073-.902-3.168 0-2.118.902-3.166m12.378-3.3h3.313v12.96h-3.313zm-.214-6.016h3.712v3.233h-3.712zm16.564 17.332q.688-.928.688-2.226 0-1.431-.886-2.28-.888-.847-2.612-1.165l-2.648-.505q-.77-.133-1.141-.503a1.26 1.26 0 0 1-.371-.93q0-.741.623-1.191.621-.452 1.922-.451.663-.001 1.365.173.702.172 1.365.477.661.304 1.165.729l.902-2.174a4.7 4.7 0 0 0-1.365-.861 8.5 8.5 0 0 0-1.656-.505 9.4 9.4 0 0 0-1.801-.173q-1.618 0-2.864.505-1.246.503-1.948 1.43-.702.928-.701 2.2 0 1.407.861 2.293.86.889 2.504 1.206l2.651.505q.822.16 1.232.49.412.333.412.94 0 .716-.623 1.154-.621.437-1.894.438a8.5 8.5 0 0 1-3.208-.637 9 9 0 0 1-1.432-.742l-.848 2.172a5.7 5.7 0 0 0 1.484.835 10 10 0 0 0 1.868.518 12 12 0 0 0 2.107.185q1.67 0 2.916-.49 1.245-.491 1.935-1.419Zm5.935 1.087q1.59.822 3.789.822 1.404 0 2.81-.451 1.403-.45 2.331-1.219l-.927-2.226q-.902.716-1.989 1.046c-1.087.33-1.447.332-2.172.332q-1.326 0-2.226-.479a3.03 3.03 0 0 1-1.352-1.43c-.206-.434-.314-.974-.379-1.564h9.257v-.981q0-2.013-.729-3.472-.727-1.456-2.053-2.252c-1.326-.796-1.943-.796-3.179-.796q-1.882.001-3.354.863c-1.472.862-1.749 1.363-2.306 2.37s-.835 2.183-.835 3.526q0 2.067.861 3.578c.861 1.511 1.391 1.784 2.452 2.331Zm1.417-9.9q.783-.515 1.896-.515 1.484 0 2.28.966c.463.565.686 1.381.744 2.372h-6.448c.063-.498.161-.965.336-1.365q.412-.939 1.193-1.458Zm18.924 1.075q.252.638.252 1.643v7.738h3.313v-7.898q0-1.802-.505-2.981-.504-1.18-1.51-1.762-1.009-.583-2.571-.584c-1.562-.001-1.976.244-2.797.729-.661.392-1.143.968-1.523 1.65v-2.114h-3.233v12.96h3.313v-7.288q0-1.008.397-1.762.397-.757 1.113-1.167c.716-.41 1.033-.41 1.669-.41q.796 0 1.313.304.515.303.768.94Zm-5.433-7.499q.411-.452 1.074-.451.37-.001.714.173.346.172.876.595.715.557 1.206.768.49.213 1.046.214 1.353 0 2.2-1.048.848-1.046.955-2.875l-1.643-.106q-.132.929-.531 1.391c-.399.462-.628.464-1.087.464q-.344.001-.688-.173-.346-.172-.927-.595a8 8 0 0 0-1.128-.729 2.36 2.36 0 0 0-1.1-.252q-1.349 0-2.2 1.046-.847 1.047-.979 2.877l1.643.106q.158-.954.569-1.404Zm14.776 16.324q1.484.822 3.498.822c2.014 0 2.508-.274 3.498-.822s1.758-1.329 2.306-2.347q.822-1.524.822-3.591c0-2.067-.274-2.569-.822-3.576s-1.316-1.786-2.306-2.334-2.157-.822-3.498-.822-2.508.274-3.498.822-1.758 1.326-2.306 2.334-.822 2.198-.822 3.576.274 2.575.822 3.591a5.7 5.7 0 0 0 2.306 2.347m1.113-9.104q.9-1.046 2.385-1.046c1.485 0 1.784.349 2.385 1.046q.901 1.047.902 3.166-.001 2.095-.902 3.168-.901 1.074-2.385 1.074c-1.484 0-1.786-.358-2.385-1.074q-.902-1.073-.902-3.168 0-2.118.902-3.166m22.022 5.791q0-1.431-.886-2.28-.888-.847-2.612-1.165l-2.648-.505q-.77-.133-1.141-.503a1.26 1.26 0 0 1-.371-.93q0-.741.623-1.191.621-.452 1.922-.451.663-.001 1.365.173.702.172 1.365.477.661.304 1.165.729l.902-2.174a4.7 4.7 0 0 0-1.365-.861 8.5 8.5 0 0 0-1.656-.505 9.4 9.4 0 0 0-1.801-.173q-1.618 0-2.864.505-1.245.503-1.948 1.43-.701.928-.701 2.2 0 1.407.861 2.293.86.889 2.504 1.206l2.651.505q.821.16 1.232.49.411.333.412.94 0 .716-.623 1.154-.621.437-1.894.438a8.5 8.5 0 0 1-3.208-.637 9 9 0 0 1-1.432-.742l-.848 2.172a5.7 5.7 0 0 0 1.484.835 10 10 0 0 0 1.868.518 12 12 0 0 0 2.107.185q1.67 0 2.916-.49 1.245-.491 1.935-1.419c.69-.928.688-1.361.688-2.226ZM107.275 91.527q-.752-.451-1.811-.453-1.07.001-1.909.49c-.56.329-.995.779-1.313 1.353s-.476 1.244-.476 2.008q0 1.175.49 2.037c.49.862.794 1.017 1.397 1.328.604.315 1.324.468 2.158.468q.801.001 1.602-.256c.53-.172.976-.403 1.327-.695l-.53-1.269q-.51.41-1.13.6a4.3 4.3 0 0 1-1.24.187c-.501 0-.926-.091-1.265-.271a1.74 1.74 0 0 1-.772-.816c-.117-.247-.179-.556-.216-.893h5.274v-.556q0-1.148-.417-1.979a3.04 3.04 0 0 0-1.171-1.284Zm-2.813 1.127q.444-.297 1.079-.297.844 0 1.299.552c.262.32.391.786.425 1.35h-3.626c.037-.268.047-.559.143-.775.157-.358.38-.637.68-.83m9.759 1.788-1.511-.289c-.293-.047-.508-.146-.647-.285a.72.72 0 0 1-.212-.531.79.79 0 0 1 .355-.677q.355-.259 1.093-.26.379 0 .779.099.402.099.775.274.38.17.666.413l.512-1.236a2.7 2.7 0 0 0-.776-.49 4.7 4.7 0 0 0-.944-.289 5.3 5.3 0 0 0-1.028-.099c-.614 0-1.155.095-1.631.289q-.708.284-1.108.816-.4.526-.399 1.251-.002.8.49 1.306.489.505 1.426.688l1.511.285q.467.092.699.281.235.188.234.534a.76.76 0 0 1-.355.658q-.353.248-1.079.249-.45.001-.918-.092a4.5 4.5 0 0 1-.907-.271 5 5 0 0 1-.816-.424l-.483 1.24q.362.287.845.476a6.5 6.5 0 0 0 2.264.399q.953.001 1.66-.278c.476-.187.841-.457 1.105-.809q.39-.527.391-1.269c0-.541-.168-.977-.505-1.299q-.508-.482-1.489-.662Zm10.596 2.513q.41-.869.41-2.045.001-1.194-.41-2.048a3.14 3.14 0 0 0-1.137-1.32q-.735-.467-1.701-.468-.934 0-1.639.468c-.364.246-.604.57-.775.937v-1.252h-1.843v10.098h1.887v-3.889c.177.333.41.631.757.861q.692.46 1.613.461c.655 0 1.225-.153 1.708-.468q.725-.467 1.13-1.335m-2.008-.242q-.511.61-1.357.611c-.846.001-1.017-.205-1.361-.611q-.511-.61-.512-1.803.001-1.207.512-1.807.515-.594 1.361-.596c.846-.002 1.017.201 1.357.596q.516.599.516 1.807 0 1.192-.516 1.803m10.314 1.895v-4.469q0-1.056-.348-1.726a2.2 2.2 0 0 0-1.05-1.006c-.469-.219-1.064-.333-1.789-.333q-.528.002-1.127.113a7 7 0 0 0-1.13.318 4.2 4.2 0 0 0-.929.476l.545 1.284a5.6 5.6 0 0 1 1.313-.582q.65-.191 1.265-.19c.527 0 .896.113 1.119.333.219.223.333.585.333 1.086v.318h-.53c-1.064 0-1.917.07-2.55.212q-.954.21-1.375.687-.423.474-.424 1.288c0 .446.121.841.355 1.196q.358.526.984.838.625.307 1.426.307.605.001 1.072-.212.466-.207.779-.596c.145-.181.215-.416.293-.645v1.303h1.767Zm-2.022-2.022q-.226.408-.611.64a1.67 1.67 0 0 1-.885.234q-.62-.001-.966-.314a1.06 1.06 0 0 1-.347-.816q.001-.291.128-.483.13-.197.424-.311.292-.116.775-.164.484-.055 1.193-.055h.515v.333q-.001.528-.226.937Zm7.519-4.046q.45 0 .944.18.487.18.881.53l.559-1.313a3.1 3.1 0 0 0-1.148-.636 4.6 4.6 0 0 0-1.404-.227q-1.162 0-2.023.461c-.861.461-1.017.746-1.327 1.313-.315.571-.468 1.247-.468 2.03s.154 1.47.468 2.055a3.26 3.26 0 0 0 1.327 1.35q.86.476 2.023.475.696 0 1.397-.234.701-.23 1.155-.625l-.559-1.327q-.394.361-.893.541a2.7 2.7 0 0 1-.933.183q-.984-.001-1.518-.644c-.359-.424-.538-1.013-.538-1.756q0-1.136.538-1.745.534-.613 1.518-.611Zm3.545-1.313h1.887v7.381h-1.887zm-.121-3.427h2.114v1.84h-2.114zm5.347 3.742a3.3 3.3 0 0 0-1.313 1.328q-.47.86-.468 2.041c.002 1.181.154 1.467.468 2.045q.468.868 1.313 1.335c.563.315 1.229.468 1.993.468s1.43-.153 1.993-.468a3.27 3.27 0 0 0 1.313-1.335q.467-.869.468-2.045c.001-1.176-.157-1.467-.468-2.041a3.34 3.34 0 0 0-1.313-1.328q-.846-.467-1.993-.468c-1.147-.001-1.43.157-1.993.468m3.866 3.369q0 1.193-.516 1.803-.511.61-1.357.611c-.846.001-1.017-.205-1.36-.611q-.511-.61-.512-1.803.001-1.207.512-1.807.516-.594 1.36-.596c.844-.002 1.017.201 1.357.596q.516.599.516 1.807m3.643-2.733q-.4.526-.399 1.251-.002.8.49 1.306.488.505 1.426.688l1.511.285q.467.092.699.281.235.188.234.534a.76.76 0 0 1-.355.658q-.353.248-1.079.249-.45.001-.918-.092a4.5 4.5 0 0 1-.907-.271 5.3 5.3 0 0 1-.816-.424l-.483 1.24q.362.287.845.476.483.187 1.064.293.58.108 1.2.106.954.001 1.661-.278c.476-.187.841-.457 1.105-.809q.39-.527.391-1.269c0-.541-.168-.977-.505-1.299q-.508-.482-1.489-.662l-1.51-.289c-.293-.047-.508-.146-.648-.285a.72.72 0 0 1-.212-.531.79.79 0 0 1 .355-.677q.355-.259 1.094-.26.378 0 .779.099.402.099.775.274.38.17.666.413l.512-1.236a2.7 2.7 0 0 0-.775-.49 4.7 4.7 0 0 0-.944-.289 5.3 5.3 0 0 0-1.028-.099c-.615 0-1.156.095-1.632.289q-.708.284-1.108.816Zm14.836.362q.45 0 .944.18.487.18.882.53l.559-1.313a3.1 3.1 0 0 0-1.148-.636 4.6 4.6 0 0 0-1.404-.227q-1.163 0-2.023.461c-.86.461-1.017.746-1.328 1.313q-.47.856-.468 2.03c.002 1.174.154 1.47.468 2.055a3.26 3.26 0 0 0 1.328 1.35q.86.476 2.023.475.696 0 1.397-.234.701-.23 1.156-.625l-.559-1.327q-.395.361-.893.541a2.7 2.7 0 0 1-.933.183q-.984-.001-1.518-.644c-.358-.424-.538-1.013-.538-1.756q0-1.136.538-1.745.534-.613 1.518-.611Zm7.713-1.467q-1.03.076-1.646.552c-.314.242-.524.591-.68.999v-1.397h-1.843v7.381h1.92v-3.972q0-.857.465-1.335.47-.475 1.39-.567l1.086-.106-.121-1.598-.57.044Zm6.778.454q-.752-.451-1.811-.453-1.07.001-1.909.49-.838.493-1.313 1.353c-.475.86-.476 1.244-.476 2.008q0 1.175.49 2.037c.49.862.794 1.017 1.397 1.328.604.315 1.324.468 2.158.468q.801.001 1.602-.256c.53-.172.976-.403 1.327-.695l-.53-1.269q-.51.41-1.13.6a4.3 4.3 0 0 1-1.24.187c-.501 0-.926-.091-1.265-.271a1.74 1.74 0 0 1-.772-.816c-.117-.247-.179-.556-.216-.893h5.274v-.556q0-1.148-.417-1.979a3.04 3.04 0 0 0-1.171-1.284Zm-2.813 1.127q.444-.297 1.079-.297.844 0 1.299.552c.262.32.391.786.425 1.35h-3.626c.037-.268.047-.559.143-.775.157-.358.38-.637.68-.83m10.838-1.248c-.468-.219-1.064-.333-1.788-.333q-.528.002-1.127.113a7 7 0 0 0-1.13.318 4.2 4.2 0 0 0-.929.476l.545 1.284a5.6 5.6 0 0 1 1.313-.582q.65-.191 1.265-.19c.527 0 .896.113 1.119.333.219.223.333.585.333 1.086v.318h-.53c-1.064 0-1.917.07-2.549.212q-.954.21-1.375.687-.423.474-.424 1.288c0 .446.121.841.355 1.196q.358.526.984.838.625.307 1.427.307.604.001 1.071-.212a2.05 2.05 0 0 0 .779-.596c.145-.181.215-.416.293-.644v1.303h1.766v-4.469q-.001-1.056-.347-1.726a2.2 2.2 0 0 0-1.05-1.006Zm-.625 5.179q-.226.408-.611.64a1.67 1.67 0 0 1-.885.234q-.62-.001-.965-.314a1.06 1.06 0 0 1-.348-.816q.001-.291.128-.483c.088-.132.226-.234.424-.311q.292-.116.776-.164.483-.055 1.192-.055h.516v.333q-.001.528-.227.937Zm8.061.567q-.226.05-.439.051-.707 0-1.024-.362-.318-.363-.318-1.086v-3.109h2.235v-1.419h-2.235v-2.205h-1.887v2.205h-1.419v1.419h1.419v3.215q0 1.417.724 2.158t2.206.739q.39 0 .809-.088.413-.093.687-.245l-.289-1.386q-.242.06-.468.113Zm1.675-5.925h1.887v7.381h-1.887zm-.121-3.427h2.114v1.84h-2.114zm7.008 8.588-2.055-5.161h-2.009l3.201 7.381h1.628l3.247-7.381h-1.887zm8.211 2.37c.765 0 1.43-.153 1.993-.468a3.27 3.27 0 0 0 1.313-1.335q.467-.869.468-2.045c.001-1.176-.157-1.467-.468-2.041a3.33 3.33 0 0 0-1.313-1.328q-.846-.467-1.993-.468c-1.147-.001-1.43.157-1.993.468a3.3 3.3 0 0 0-1.313 1.328q-.47.86-.469 2.041c.001 1.181.154 1.467.469 2.045a3.25 3.25 0 0 0 1.313 1.335c.563.315 1.229.468 1.993.468m-1.361-5.654q.516-.594 1.361-.596c.845-.002 1.017.201 1.357.596q.516.599.516 1.807 0 1.193-.516 1.803-.511.61-1.357.611c-.846.001-1.017-.205-1.361-.611q-.511-.61-.512-1.803.001-1.207.512-1.807"/><path d="M224.508 97.43q-.45.001-.918-.092a4.5 4.5 0 0 1-.907-.271 5 5 0 0 1-.816-.424l-.483 1.24q.362.287.845.476.483.187 1.064.293.58.108 1.2.106.954.001 1.66-.278c.476-.187.841-.457 1.105-.809q.39-.527.391-1.269c0-.541-.168-.977-.505-1.299q-.509-.482-1.488-.662l-1.511-.289c-.293-.047-.508-.146-.647-.285a.72.72 0 0 1-.212-.531.79.79 0 0 1 .355-.677q.355-.259 1.093-.26.378 0 .779.099c.401.099.527.157.775.274q.38.17.666.413l.512-1.236a2.7 2.7 0 0 0-.775-.49 4.7 4.7 0 0 0-.944-.289 5.3 5.3 0 0 0-1.028-.099q-.92-.001-1.631.289-.708.284-1.109.816-.4.526-.398 1.251-.002.8.49 1.306.488.505 1.426.688l1.511.285q.467.092.699.281.235.188.234.534a.76.76 0 0 1-.355.658q-.353.248-1.079.249Z"/></svg>