<svg xmlns="http://www.w3.org/2000/svg" fill='currentColor' id="uuid-ae62fa3e-0afe-4d89-b032-8021d3a532a3" width="250" height="121.387" data-name="Capa 5" viewBox="0 0 250 121.387"><path d="m93.099 47.566 26.304-15.186 9.077-5.242 17.188-9.924v35.883h9.938V.898l-9.938 5.738-26.184 15.117L93.099 5.952 83.161.001v53.097h.358zm0-30.936 17.308 10.365-17.308 9.988V16.631Zm-65.826 85.379L8.174 66.755H0v53.867h8.861v-36.11l15.436 27.933h5.73L45.46 84.337v36.285h8.864V66.755h-8.021zm62.733 2.259c0 1.94-.37 3.631-1.107 5.086q-1.111 2.173-3.056 3.358-1.95 1.187-4.549 1.188-2.292.002-3.781-.846-1.491-.84-2.217-2.593c-.485-1.175-.724-2.624-.724-4.359V83.257h-9.551v22.696c0 3.414.494 6.262 1.489 8.556q1.49 3.44 4.545 5.155c2.036 1.15 4.611 1.722 7.717 1.722q4.432-.001 7.679-2.214c1.59-1.087 2.784-2.636 3.784-4.408v5.857h9.321V83.257h-9.551v21.011Zm40.343 8.979a9.7 9.7 0 0 1-2.217.267q-3.591.002-5.195-1.834-1.604-1.83-1.604-5.497V90.439h11.308v-7.182h-11.308V72.102h-9.551v11.155H104.6v7.182h7.182v16.279c0 4.788 1.222 8.425 3.666 10.925q3.67 3.741 11.155 3.743 1.985-.001 4.088-.46c2.103-.459 2.562-.709 3.476-1.219l-1.449-7.033q-1.227.31-2.369.572Zm33.503-29.069c-2.369-1.119-5.388-1.685-9.053-1.685q-2.676.002-5.693.572-3.022.578-5.73 1.604-2.713 1.033-4.701 2.413l2.751 6.492q3.361-1.988 6.647-2.941c2.189-.634 4.331-.958 6.42-.958 2.646 0 4.533.566 5.652 1.685s1.682 2.954 1.682 5.497v1.604h-2.674q-8.099.002-12.915 1.076c-3.209.709-5.528 1.872-6.952 3.476q-2.14 2.407-2.139 6.529c0 2.245.597 4.253 1.794 6.038s2.854 3.196 4.968 4.241c2.111 1.045 4.521 1.567 7.219 1.567 2.036 0 3.846-.361 5.425-1.07q2.369-1.072 3.936-3.022c.64-.794 1.107-1.715 1.489-2.697v6.024h8.938V98.008q.001-5.353-1.757-8.749-1.757-3.403-5.31-5.08Zm-3.171 26.203q-1.146 2.069-3.093 3.252c-1.947 1.183-2.789 1.181-4.471 1.181q-3.132 0-4.891-1.604c-1.759-1.604-1.757-2.444-1.757-4.123q.001-1.454.65-2.45.65-.988 2.139-1.567c.995-.379 2.304-.659 3.936-.839 1.629-.174 3.641-.267 6.035-.267h2.599v1.685q0 2.669-1.147 4.732m49.129-26.203c-1.934-1.119-4.405-1.685-7.409-1.685s-5.693.703-8.062 2.102c-1.905 1.13-3.295 2.79-4.393 4.755v-6.092h-9.324v37.364h9.551V99.611c0-1.934.382-3.631 1.147-5.08q1.147-2.18 3.209-3.364 2.065-1.183 4.816-1.181 2.292 0 3.781.877 1.491.875 2.217 2.711.723 1.837.724 4.738v22.31h9.551V97.851q0-5.196-1.452-8.593-1.45-3.403-4.356-5.08m38.741 28.497q-1.226.31-2.369.572a9.7 9.7 0 0 1-2.217.267q-3.591.002-5.195-1.834-1.605-1.83-1.604-5.497V90.439h11.308v-7.182h-11.308V72.102h-9.551v11.155h-7.182v7.182h7.182v16.279c0 4.788 1.222 8.425 3.666 10.925q3.67 3.741 11.155 3.743 1.986-.001 4.088-.46c2.102-.459 2.562-.709 3.476-1.219z"/></svg>