<svg xmlns="http://www.w3.org/2000/svg" fill='currentColor' id="uuid-a2af24bc-818f-4781-8d34-dc0f3aeecb5e" width="250" height="77.237" data-name="open-english" viewBox="0 0 250 77.237"><path d="M16.875 27.915q-2.525-1.329-5.713-1.329c-3.188 0-4.031.443-5.714 1.329a9.9 9.9 0 0 0-3.986 3.797Q0 34.18 0 37.482q0 3.342 1.443 5.809a9.8 9.8 0 0 0 3.967 3.797q2.525 1.329 5.714 1.329c3.189 0 4.037-.443 5.733-1.329a9.85 9.85 0 0 0 4.005-3.815q1.461-2.487 1.461-5.79c0-3.303-.487-4.125-1.461-5.77a9.93 9.93 0 0 0-3.987-3.797Zm-3.151 12.888q-1.044 1.159-2.601 1.159c-1.557 0-1.886-.38-2.544-1.139q-.988-1.139-.987-3.341 0-2.164 1.025-3.303t2.544-1.139c1.52 0 1.866.38 2.562 1.139q1.044 1.14 1.044 3.303c0 2.163-.348 2.55-1.044 3.322ZM25.36 26.851v31.474h7.441V45.188a6.63 6.63 0 0 0 2.487 2.354q1.575.873 3.74.873 2.543 0 4.613-1.329 2.069-1.328 3.265-3.815t1.196-5.79c0-3.303-.399-4.125-1.196-5.77q-1.197-2.468-3.265-3.797-2.07-1.329-4.613-1.329-2.164 0-3.759.873-1.595.874-2.468 2.354V26.85zm8.561 7.404q1.12-1.177 2.753-1.177c1.633 0 2.005.386 2.753 1.158q1.12 1.158 1.12 3.246 0 2.05-1.12 3.246t-2.753 1.196c-1.633 0-2.006-.392-2.753-1.177q-1.12-1.176-1.12-3.265 0-2.05 1.12-3.227m37.604 2.999q0-3.264-1.367-5.676a9.3 9.3 0 0 0-3.797-3.701q-2.43-1.29-5.581-1.291-3.189 0-5.638 1.329c-2.449 1.329-2.904 2.145-3.816 3.777q-1.367 2.449-1.367 5.79c0 3.341.461 4.164 1.386 5.809q1.385 2.468 3.834 3.797t5.6 1.329q2.62 0 4.783-.987 2.165-.987 3.588-2.714a9.3 9.3 0 0 0 1.917-3.93h-7.935q-.798 1.671-2.658 1.671-1.33 0-2.183-.854-.854-.854-.968-2.601h14.085a13.5 13.5 0 0 0 .114-1.746Zm-14.161-1.86q.265-1.443 1.139-2.184.873-.74 2.24-.74c1.367 0 1.67.259 2.278.778q.91.779.911 2.145zm17.198-8.543V48.15h7.441V36.722q0-1.821.949-2.867.948-1.044 2.62-1.044 1.595 0 2.544 1.044.948 1.045.949 2.867V48.15h7.441V35.735q0-4.176-2.164-6.625t-5.846-2.45q-2.164 0-3.835.893-1.67.892-2.658 2.335v-3.037zm48.481 1.025q-2.43-1.29-5.581-1.291-3.189 0-5.638 1.329a9.46 9.46 0 0 0-3.816 3.777q-1.367 2.449-1.367 5.79c0 3.341.461 4.164 1.386 5.809q1.385 2.468 3.834 3.797t5.6 1.329q2.62 0 4.783-.987t3.588-2.714a9.3 9.3 0 0 0 1.917-3.93h-7.935q-.798 1.671-2.658 1.671-1.33 0-2.183-.854-.854-.854-.968-2.601h14.085a13.5 13.5 0 0 0 .114-1.746q0-3.264-1.367-5.676a9.3 9.3 0 0 0-3.797-3.701Zm-8.998 7.517q.265-1.443 1.139-2.184.873-.74 2.24-.74c1.367 0 1.67.259 2.278.778q.91.779.911 2.145zm31.132-8.733q-2.164 0-3.835.893-1.67.892-2.658 2.335v-3.037h-7.441V48.15h7.441V36.722q0-1.821.949-2.867.948-1.044 2.62-1.044 1.594 0 2.544 1.044.949 1.045.95 2.867V48.15h7.441V35.735q0-4.176-2.164-6.625t-5.847-2.45m26.234 3.152q-.873-1.48-2.487-2.354-1.614-.873-3.778-.873-2.543 0-4.613 1.329-2.069 1.329-3.265 3.797t-1.196 5.77c0 3.302.398 4.132 1.196 5.79s1.885 2.93 3.265 3.815q2.07 1.329 4.613 1.329 2.164 0 3.778-.873c1.614-.873 1.905-1.367 2.487-2.354v2.734q0 4.252-3.797 4.252-1.443 0-2.353-.569-.912-.57-1.139-1.595h-7.328q.418 3.986 3.38 6.303 2.961 2.315 7.896 2.315 3.682 0 6.094-1.442 2.41-1.444 3.549-3.853 1.139-2.412 1.139-5.41V26.852h-7.441v2.962Zm-1.12 10.933q-1.12 1.177-2.752 1.177-1.672 0-2.772-1.196-1.101-1.197-1.101-3.246 0-2.088 1.101-3.246t2.772-1.158q1.632 0 2.752 1.177 1.12 1.176 1.12 3.227 0 2.09-1.12 3.265m12.813 7.404h7.442V20.055h-7.442zm15.452-30.942q-1.974 0-3.17 1.101-1.196 1.103-1.196 2.771 0 1.633 1.196 2.715t3.17 1.082q1.937 0 3.132-1.082t1.196-2.715q0-1.669-1.196-2.771-1.196-1.1-3.132-1.101m-3.758 30.942h7.441V26.85h-7.441zm25.76-11.883q-1.538-.607-3.854-1.102-1.936-.417-2.809-.816t-.874-1.158q0-.607.475-.95t1.386-.341q1.176 0 1.879.55.702.552.893 1.576h6.72q-.38-3.34-2.771-5.391-2.392-2.05-6.568-2.05-2.81 0-4.803.911-1.994.91-3.018 2.449-1.025 1.538-1.025 3.435 0 2.203 1.12 3.493t2.639 1.86q1.518.57 3.797 1.025 2.012.456 2.885.836t.873 1.176q0 .609-.532.988-.531.38-1.442.38-1.177 0-1.975-.57c-.798-.57-.848-.911-.949-1.594h-7.213a6.9 6.9 0 0 0 1.462 3.815q1.31 1.69 3.568 2.658 2.26.968 5.144.968 2.696 0 4.689-.854t3.075-2.335a5.53 5.53 0 0 0 1.082-3.341q0-2.315-1.159-3.663-1.158-1.347-2.695-1.955m27.297-7.156q-2.146-2.449-5.79-2.45-2.202 0-3.892.893-1.69.892-2.676 2.335v-9.833h-7.442v28.094h7.442V36.721q0-1.821.949-2.867.949-1.044 2.619-1.044 1.594 0 2.544 1.044.949 1.045.95 2.867v11.428H250V35.734q0-4.176-2.145-6.625ZM25.35 23.985h7.45V16l64.494-7.622v60.473L32.8 61.238v-.048h-7.45v6.667l79.395 9.38V0L25.35 9.38z"/></svg>