<svg xmlns="http://www.w3.org/2000/svg" fill='currentColor' id="uuid-93a5f956-5522-4ad7-b3d1-dc8c394222a8" width="250" height="41.505" data-name="Capa 1" viewBox="0 0 250 41.505"><path d="M28.514 10.376H5.986c-3.292 0-4.081 1.905-1.753 4.233l22.528 22.528c2.328 2.328 4.233 1.539 4.233-1.753V12.856a2.487 2.487 0 0 0-2.48-2.48"/><circle cx="6.311" cy="35.059" r="6.311"/><path d="M63.071 26.338a14.2 14.2 0 0 0-3.316-1.33 31 31 0 0 0-3.601-.731 114 114 0 0 1-3.342-.523q-1.515-.261-2.454-.809-.94-.547-.941-1.593 0-1.148 1.253-1.878 1.252-.733 4.072-.733 1.879 0 3.941.472c1.377.312 2.723.852 4.047 1.619l2.768-5.795q-2.037-1.15-4.986-1.801a27 27 0 0 0-5.874-.652q-4.073 0-6.944 1.147-2.87 1.15-4.438 3.212-1.565 2.061-1.566 4.725 0 2.402.913 3.915a6.6 6.6 0 0 0 2.454 2.375 14 14 0 0 0 3.342 1.332q1.8.469 3.628.731 1.827.26 3.316.523c1.489.263 1.791.425 2.4.756q.914.496.913 1.487 0 1.203-1.175 1.88-1.173.679-3.994.68-2.559 0-5.194-.758-2.639-.755-4.62-1.906l-2.662 5.795q1.983 1.306 5.273 2.167c3.29.861 4.489.862 6.891.862q4.228-.002 7.178-1.149 2.948-1.147 4.516-3.159 1.565-2.008 1.566-4.567-.001-2.402-.913-3.917a6.6 6.6 0 0 0-2.454-2.375Zm38.086-13.339h-9.711L79.541 24.24V2.35h-8.144v38.737h8.144v-7.116l3.956-3.857 8.835 10.973h9.868L89.458 24.891zm25.215 2.611q-3.548-3.027-9.972-3.027-3.34 0-6.577.86-3.237.862-5.534 2.532l2.872 5.691q1.565-1.201 3.732-1.906a14.2 14.2 0 0 1 4.41-.705q3.29.001 4.882 1.462 1.593 1.463 1.593 4.072v.053h-6.422q-4.334 0-6.995 1.043-2.663 1.045-3.89 2.951-1.227 1.905-1.228 4.359 0 2.402 1.279 4.334 1.28 1.93 3.628 3.053 2.351 1.123 5.587 1.124 3.707 0 6.056-1.436a7.4 7.4 0 0 0 2.507-2.52v3.537h7.622V25.059q0-6.422-3.552-9.449Zm-6.917 19.474q-1.645.94-3.732.939c-2.087-.001-2.498-.304-3.316-.913q-1.226-.913-1.226-2.479 0-1.41 1.071-2.35 1.069-.94 3.941-.941h5.587v2.872q-.68 1.931-2.324 2.872Zm40.879-21.172q-2.639-1.331-5.978-1.33-3.603-.001-6.422 1.513a10.5 10.5 0 0 0-2.872 2.281v-3.377h-7.779v28.088h8.145V27.2q0-2.663.862-4.281.861-1.618 2.4-2.456 1.54-.833 3.473-.835 2.713 0 4.202 1.619c1.489 1.619 1.487 2.751 1.487 5.011v14.828h8.145V25.007q.001-4.282-1.513-7.023-1.516-2.74-4.151-4.072Zm33.437 2.025a9.4 9.4 0 0 0-2.192-1.789q-2.663-1.567-6.212-1.566-3.97 0-7.153 1.799-3.185 1.802-5.013 5.039-1.826 3.237-1.827 7.622c-.001 4.385.61 5.464 1.827 7.622q1.828 3.237 5.013 5.039 3.183 1.8 7.153 1.801 3.706 0 6.343-1.54a9 9 0 0 0 2.426-2.089v3.21h7.779V2.35h-8.145v13.587Zm-.809 15.283q-.967 1.775-2.583 2.689-1.62.914-3.654.913-1.986 0-3.603-.913-1.62-.915-2.585-2.689t-.964-4.176q0-2.453.964-4.176.966-1.723 2.585-2.636 1.616-.914 3.603-.913 2.034 0 3.654.913 1.617.914 2.583 2.636.967 1.724.967 4.176 0 2.402-.967 4.176m16.47-18.221h8.145v28.088h-8.145zM213.504 0q-2.297.001-3.705 1.304-1.411 1.307-1.411 3.237c0 1.93.469 2.366 1.411 3.237q1.408 1.304 3.705 1.304c2.297 0 2.768-.444 3.707-1.332q1.411-1.332 1.411-3.367-.001-1.931-1.436-3.159-1.436-1.226-3.681-1.226Zm32.944 15.61q-3.548-3.027-9.972-3.027-3.34 0-6.577.86-3.236.862-5.534 2.532l2.872 5.691q1.565-1.201 3.732-1.906a14.2 14.2 0 0 1 4.41-.705q3.29.001 4.882 1.462 1.593 1.463 1.593 4.072v.053h-6.422q-4.335 0-6.995 1.043-2.664 1.045-3.89 2.951-1.228 1.905-1.228 4.359 0 2.402 1.279 4.334 1.28 1.93 3.628 3.053 2.351 1.123 5.587 1.124 3.707 0 6.056-1.436a7.4 7.4 0 0 0 2.507-2.52v3.537h7.622V25.059q0-6.422-3.552-9.449Zm-6.917 19.474q-1.645.94-3.732.939c-2.087-.001-2.498-.304-3.316-.913q-1.227-.913-1.226-2.479 0-1.41 1.071-2.35 1.069-.94 3.941-.941h5.587v2.872q-.68 1.931-2.324 2.872Z"/></svg>