<svg xmlns="http://www.w3.org/2000/svg" fill='currentColor' id="uuid-0a8ecfb7-bede-4be2-b6f1-65ac5f693923" width="250" height="40.108" data-name="Capa 1" viewBox="0 0 250 40.108"><path d="M11.063 0H6.914C3.457 0 1.037.692.691 4.149L0 8.644h15.558a7.95 7.95 0 0 0-4.84 6.915L6.915 39.76h3.112a6.57 6.57 0 0 0 6.915-5.532l.691-4.149L21.09 8.644h7.952a6.57 6.57 0 0 0 6.569-5.877V0zm235.099 8.298q.348-2.074 2.074-2.074a1.73 1.73 0 0 1 1.728 2.074 2.42 2.42 0 0 1-2.42 2.074c-1.037 0-1.729-.691-1.383-2.074m3.112 0c.346-1.037-.346-1.383-1.037-1.383a2.43 2.43 0 0 0-1.729 1.383c0 1.037.346 1.729 1.037 1.729a1.73 1.73 0 0 0 1.729-1.729m-1.729-1.037h.691c.38 0 .691.311.691.691s-.311.691-.691.691v.691h-.691v-.691h-.346v.691h-.346l.691-2.074Zm.346 1.037q.346 0 .346-.346h-.346z"/><path d="M55.317 11.064a17.3 17.3 0 0 0-4.84-3.457 16.6 16.6 0 0 0-6.223-1.037 14.9 14.9 0 0 0-6.569 1.383 22.2 22.2 0 0 0-6.223 3.457 22.1 22.1 0 0 0-4.495 5.186 21.5 21.5 0 0 0-2.42 6.569 21.2 21.2 0 0 0 0 6.569 15.2 15.2 0 0 0 2.766 5.186 11.05 11.05 0 0 0 4.495 3.457 14.14 14.14 0 0 0 6.569 1.383 23.8 23.8 0 0 0 6.915-1.037 26 26 0 0 0 6.915-3.457h.691l-4.84-5.877h-.346l-3.803 1.729-3.803.691-2.766-.691a3.1 3.1 0 0 1-2.074-1.037l-1.383-2.074a2.76 2.76 0 0 1-.691-1.383h22.473a2.07 2.07 0 0 0 2.074-1.729c.346-.691 0 0 0-.691s.346-1.037.691-1.383a15.2 15.2 0 0 0-.346-6.915 9.7 9.7 0 0 0-2.766-4.84m-20.744 8.298a11.1 11.1 0 0 1 3.457-3.457 8.3 8.3 0 0 1 4.84-1.729 6.57 6.57 0 0 1 4.495 1.729 7.3 7.3 0 0 1 2.074 3.457zm67.417-8.3a17.3 17.3 0 0 0-4.84-3.457 16.6 16.6 0 0 0-6.223-1.037 14.9 14.9 0 0 0-6.569 1.383 22.2 22.2 0 0 0-6.223 3.457 22.1 22.1 0 0 0-4.495 5.186 15.2 15.2 0 0 0-2.42 6.569 21.2 21.2 0 0 0 0 6.569 15.2 15.2 0 0 0 2.766 5.186 11.05 11.05 0 0 0 4.495 3.457 14.14 14.14 0 0 0 6.569 1.383 21.7 21.7 0 0 0 6.569-1.037 23.1 23.1 0 0 0 7.26-3.457h.346l-4.495-5.877h-.346l-3.803 1.729-3.803.691-2.766-.691a5.17 5.17 0 0 1-2.42-1.037l-1.383-2.074c0-.346-.346-1.037-.346-1.383h23.856v-.346c0-.691.346-1.037.346-1.729a2.06 2.06 0 0 0 .346-1.383c.695-2.254.695-4.66 0-6.915a12.4 12.4 0 0 0-2.766-5.186m-20.744 8.298a9.64 9.64 0 0 1 3.112-3.457 10.4 10.4 0 0 1 5.186-1.729 6.57 6.57 0 0 1 4.495 1.729 7.3 7.3 0 0 1 2.074 3.457zm57.391-7.262h-.346a8.98 8.98 0 0 0-4.84-3.803 14.14 14.14 0 0 0-6.569-1.383 16.6 16.6 0 0 0-6.915 1.383 14.5 14.5 0 0 0-5.877 3.457 22.1 22.1 0 0 0-4.495 5.186 30 30 0 0 0-2.42 5.877 25.5 25.5 0 0 0 0 7.26 12.4 12.4 0 0 0 2.766 5.186 8.97 8.97 0 0 0 4.495 3.457 13.5 13.5 0 0 0 6.223 1.383 19.7 19.7 0 0 0 7.606-1.383 26.3 26.3 0 0 0 6.569-4.149h.346l-4.495-6.223h-1.037l-3.457 2.42a6.9 6.9 0 0 1-3.803 1.037l-3.112-.691-2.074-1.729-1.383-2.766v-3.457a10.3 10.3 0 0 1 1.383-3.457l2.074-2.766 3.112-1.729 3.112-.691a5.17 5.17 0 0 1 3.457 1.037 3.8 3.8 0 0 1 1.729 1.383c.346.346 1.037.691 1.383.346zm58.084-.692a10 10 0 0 0-4.149-3.457 13.14 13.14 0 0 0-12.446.691L181.164 0h-4.149a5.53 5.53 0 0 0-5.532 4.84l-6.223 34.919h8.989V38.03l2.42 1.037 3.803.691a14.14 14.14 0 0 0 6.569-1.383l5.532-3.457 4.149-5.532a19 19 0 0 0 2.074-6.223 20.7 20.7 0 0 0 0-6.569 12.1 12.1 0 0 0-2.42-5.186m-6.223 11.755a10.3 10.3 0 0 1-1.383 3.457 9.7 9.7 0 0 1-2.074 2.766l-2.766 2.074h-3.457a5.2 5.2 0 0 1-3.112-.691 2.07 2.07 0 0 1-1.048-2.738l.01-.028 1.729-10.718a3.1 3.1 0 0 1 2.074-2.074h6.569c1.037.691 1.729 1.037 2.074 2.074a5.2 5.2 0 0 1 1.383 2.766v3.457m55.319-7.258a9.7 9.7 0 0 0-2.766-5.186 15.5 15.5 0 0 0-4.495-3.457 19.7 19.7 0 0 0-6.223-1.037 15.6 15.6 0 0 0-6.915 1.383 20.5 20.5 0 0 0-5.877 3.457 23.2 23.2 0 0 0-4.84 5.186 21.5 21.5 0 0 0-2.42 6.569 14.2 14.2 0 0 0 .346 6.569 14.2 14.2 0 0 0 2.42 5.186 12.4 12.4 0 0 0 4.84 3.457 11.74 11.74 0 0 0 6.223 1.383 23.8 23.8 0 0 0 6.915-1.037 26 26 0 0 0 6.915-3.457h.691l-4.84-5.877h-.346a10.7 10.7 0 0 1-3.457 1.729l-4.149.691-2.766-.346c-.691 0-1.383-.691-2.074-1.037l-1.383-2.074-.691-1.383h24.201v-.691l.691-1.729v-1.383a15.2 15.2 0 0 0-.346-6.915m-23.51 3.112a16.2 16.2 0 0 1 3.457-3.457 8.3 8.3 0 0 1 4.84-1.729c1.767 0 3.475.608 4.84 1.729a7.3 7.3 0 0 1 2.074 3.457h-15.212ZM61.541 39.76h-4.149l5.877-34.919A6.226 6.226 0 0 1 69.147 0h4.149l-5.877 34.919a6.225 6.225 0 0 1-5.877 4.84m140.712.001h-4.149l5.877-34.919A6.23 6.23 0 0 1 209.86 0h4.149l-5.877 34.919a6.225 6.225 0 0 1-5.877 4.84m-35.266-24.892a10.03 10.03 0 0 0-7.606-7.952 20.8 20.8 0 0 0-7.952-.346 14.86 14.86 0 0 0-9.681 5.186l6.569 5.532c.346.346 1.037 0 1.383-.346a4.84 4.84 0 0 1 5.186-2.42 3.804 3.804 0 0 1 3.458 4.495h-3.803l-5.877.691a16.3 16.3 0 0 0-5.186 2.074 12.1 12.1 0 0 0-3.803 3.457 10.35 10.35 0 0 0-2.074 4.84 6.9 6.9 0 0 0 0 3.803 4.5 4.5 0 0 0 1.729 3.112 5.53 5.53 0 0 0 2.766 2.074l4.149.691 4.84-.691a8.65 8.65 0 0 0 3.803-1.383v2.074h8.989l3.112-18.324c.443-2.161.56-4.374.346-6.569m-11.063 15.558h-1.729l-1.383.691h-6.223a2.42 2.42 0 0 1-.346-2.074c.024-.64.27-1.248.691-1.729l1.729-1.037 2.074-.691h5.877l-.691 4.84Z"/></svg>