<svg xmlns="http://www.w3.org/2000/svg" fill='currentColor' id="uuid-17e7dbdc-29de-441e-9957-856c6f70adcd" width="249.992" height="90.367" data-name="Capa 4" viewBox="0 0 249.992 90.367"><path d="M90.484 90.164v-2.477c2.766 0 10.367-2.734 10.367-13.938V48.991c0-8.078-1.656-12.25-9.125-12.508v-1.695l25.984-8.211h1.797v47.164c0 10.812 8.016 13.938 10.227 13.938v2.477H90.476zm29.305-79.476c0 5.734-4.977 10.555-11.195 10.555s-11.055-4.82-11.055-10.555S102.375 0 108.594 0s11.195 4.82 11.195 10.688m10.094 24.101 25.984-8.211h1.656v7.555c5.391-5.211 12.164-7.687 21.422-7.555 18.797 0 22.672 11.859 22.672 19.156V74.14c0 10.812 6.633 13.547 8.844 13.547v2.477h-37.602v-2.477c2.766 0 10.094-2.734 10.094-13.938V44.437c0-4.687-3.453-13.289-14.102-12.641-4.281.258-9.68 3.391-11.336 9.773v32.57c0 10.812 8.156 13.547 10.367 13.547v2.477h-38.016v-2.477c2.766 0 8.984-2.734 8.984-13.938V48.99c0-8.078-1.656-12.25-8.984-12.508v-1.695h.016Zm80.859 55.375v-2.477c2.766 0 10.367-2.734 10.367-13.938V48.991c0-8.078-1.656-12.25-9.125-12.508v-1.695l25.984-8.211h1.797v47.164c0 10.812 8.016 13.938 10.227 13.938v2.477h-39.258zm29.297-79.477c0 5.734-4.977 10.555-11.195 10.555s-11.055-4.82-11.055-10.555S222.633 0 228.852 0s11.195 4.82 11.195 10.687zM0 22.234l28.406-10.102h2.039l30.781 63.969c4.594-7.219 11.398-22.766 11.398-33.664-.172-11.867-10.031-13.789-9.859-22.766 0-10.906 24.148-12.187 24.148 4.008 0 7.852-4.594 20.203-10.031 31.742-5.781 12.187-12.758 23.727-20.75 34.945H42.523L16.5 37.624C12.078 28.647 9.016 24.64 0 24.319z"/></svg>