<svg xmlns="http://www.w3.org/2000/svg" fill='currentColor' id="uuid-6f5bc017-0deb-4138-9305-c82cd72bb019" width="250" height="107.044" viewBox="0 0 250 107.044"><path d="M0 107.044 68.566 21.87h.244c-2.76 4.669-11.939 21.094-11.939 33.76 0 9.182 10.92 20.035 13.925 23.219h-.373c-3.686-2.552-13.936-10.283-23.189-10.283-11.345 0-35.216 25.355-46.803 38.478zM80.634 0 12.068 85.173h-.244c2.76-4.669 11.939-21.094 11.939-33.76 0-9.182-10.92-20.035-13.925-23.219h.373c3.686 2.552 13.936 10.283 23.189 10.283C44.744 38.478 68.616 13.123 80.203 0zm47.705 29.032h-10.522l-11.056 16.893-10.992-16.893H85.113l15.929 23.07-17.536 24.846h10.588l12.663-18.653 12.601 18.653h10.654L112.537 52.1zm36.276 14.44h-10.449l-14.373 14.804V29.032h-8.718v47.916h8.718V61.544l15.638 15.404h11.182l-18.026-17.385z"/><path d="M188.499 44.072q-3.694-1.663-8.619-1.664-4.392 0-8.185 1.497c-3.793 1.497-4.681 2.386-6.456 4.159l4.525 5.324a14.5 14.5 0 0 1 4.391-3.129q2.46-1.131 5.391-1.131 3.926 0 6.221 1.963 2.12 1.813 2.281 4.959h-7.838q-4.859 0-8.518 1.331-3.661 1.331-5.658 3.793c-1.997 2.462-1.996 3.616-1.996 5.922q0 3.194 1.63 5.658 1.63 2.463 4.559 3.86 2.927 1.397 6.789 1.398 4.258 0 7.488-1.763a12.8 12.8 0 0 0 3.892-3.239v3.938h7.987V56.384q0-4.46-2.097-7.552-2.096-3.093-5.789-4.759Zm-1.198 23.259a9.5 9.5 0 0 1-3.494 3.062q-2.131 1.098-4.791 1.099c-2.66.001-3.228-.432-4.359-1.297q-1.697-1.297-1.697-3.428 0-2.462 2.196-3.761 2.195-1.297 5.724-1.297h7.187v4.281a9 9 0 0 1-.766 1.343zm11.335-38.299h8.718v47.916h-8.718zm37.659 15.605q-3.894-2.229-8.884-2.23c-4.99-.001-6.488.754-9.217 2.262q-4.093 2.262-6.456 6.29c-2.363 4.028-2.363 5.78-2.363 9.283s.821 6.589 2.462 9.251q2.462 3.993 6.855 6.256c4.393 2.263 6.322 2.262 10.182 2.262q4.79-.001 8.752-1.63 3.96-1.63 6.488-4.559l-4.658-5.324q-4.126 4.659-10.116 4.658-3.262 0-5.789-1.297a9.24 9.24 0 0 1-3.927-3.793q-.804-1.441-1.143-3.228h26.098v-2.929q0-5.19-2.196-9.118a15.94 15.94 0 0 0-6.09-6.157l-.002.002Zm-13.677 5.89q2.063-1.33 4.791-1.331c2.728-.001 3.237.432 4.525 1.297q1.929 1.298 2.995 3.561c.455.967.762 2.057.925 3.26h-17.403c.19-1.103.501-2.116.939-3.028q1.163-2.428 3.228-3.761zm18.184-7.055h1.251v-4.193h1.539v-1.101h-4.34v1.101h1.55zm7.372-5.294-1.044 3.5-1.034-3.5h-1.837v5.294h1.253V39.54l1.152 3.932h.931l1.154-3.944v3.944H250v-5.294z"/></svg>