<svg xmlns="http://www.w3.org/2000/svg" id="uuid-052fdce0-1505-43d2-a7df-6345c22222b2" fill="currentColor" width="250" height="67.503" viewBox="0 0 250 67.503"><path d="M57.427 9.707C48.496 1.495 38.095-1.79 26.116.945 10.653 4.475-.105 17.58 0 33.451a9.7 9.7 0 0 0 .147 1.692c.584 3.406.674 6.583 1.64 9.931 4.522 15.658 19.098 24.87 35.78 21.862 10.083-1.819 18.769-6.567 26.513-13.06 8.441-7.078 10.562-15.724 6.506-25.942-2.843-7.157-7.544-13.063-13.16-18.227ZM24.563 55.621c-1.964-.042-3.93-.063-5.891.011-1.332.05-1.892-.347-1.887-1.8.042-13.297.011-26.592.05-39.889.003-.432.532-1.224.837-1.234 2.787-.095 5.58-.055 8.509-.055.039.726.092 1.274.092 1.819.011 13.129-.003 26.257.053 39.386.005 1.371-.508 1.787-1.763 1.763ZM59.24 42.555H41.774c-.505 0-1.011.008-1.513-.005-1.25-.029-1.577.584-1.245 1.713.84 2.874 2.648 4.798 5.588 5.456 4.477 1 8.686.361 12.476-2.374.408-.292.848-.54 1.284-.79.076-.042.211.016.59.058 0 1.777.055 3.593-.05 5.398-.021.353-.629.753-1.048.987-6.675 3.719-13.639 4.224-20.706 1.432-5.109-2.019-8.446-8.03-8.138-13.945.361-6.901 4.067-12.029 10.657-13.934 9.839-2.848 19.835 2.866 19.733 14.976-.003.268-.084.537-.161 1.027Zm2.53-33.867c1.253-.063 1.975-.836 2.089-2.093.105-1.166-1.08-2.192-2.301-2.132-1.135.056-2.225 1.13-2.082 2.191.166 1.232.837 2.045 2.294 2.034m-16.146 23.02c-3.68-.129-6.009 1.811-6.591 5.764h11.815c-.016-3.364-2.851-5.683-5.225-5.764Zm81.097 4.965a16.4 16.4 0 0 0-.243-2.668c-1.321-7.684-9.217-10.835-15.485-6.173-1.258.936-2.412 2.01-3.704 3.101-1.979-2.99-4.529-4.956-8.228-5.174-3.739-.218-6.398 1.868-9.189 4.346-.076-1.435-.13-2.503-.19-3.657H84.16v1.707l.003 16.936h-.003v10.545h5.636v-1.467q.004-.082.003-.168c-.003-.221-.003-.446-.003-.667V49.93c.028-4.28.117-8.563-.101-12.83-.168-3.237 1.542-4.748 3.964-5.879 3.581-1.672 8.623-.838 8.847 4.918.19 4.827.158 9.669.177 14.502v4.994h5.648V45.09h-.032c0-3.117.009-6.233.016-9.35.003-.566-.022-1.211.224-1.682.996-1.906 4.909-3.771 7.09-3.477 3.502.474 5.446 2.731 5.478 6.54.022 2.658.025 5.313.022 7.968h-.006v6.183c-.003.812-.003 1.628-.003 2.44.003.559 0 1.122 0 1.881h.003v.041h5.633V45.089h-.028q.006-4.207-.006-8.417Zm57.256-23.529v-1.893h-5.588v44.353h3.61c.363.041.664.041.913 0h1.1V46.63h-.022c-.028-11.161-.013-22.325-.013-33.486m66.022 36.178c-1.736.573-3.241 1.221-4.813 1.558-3.74.801-5.821-.854-5.901-4.648-.077-3.686-.042-7.374-.055-11.062-.004-1.193 0-2.387 0-3.786h9.128v-4.986c-2.709 0-5.283-.031-7.855.016-.948.017-1.326-.282-1.284-1.263.064-1.47.017-2.945.017-4.437l-10.329 10.7c.817 0 1.863.094 2.884-.022 1.49-.17 1.857.417 1.839 1.851-.061 4.898-.101 9.801.076 14.694.168 4.628 3.004 7.704 7.512 8.055 2.047.16 4.197-.199 6.217-.678 2.599-.616 2.563-.769 2.565-3.41v-2.583Zm-20.434-7.873c-.183-1.794-.225-3.271-.497-4.704-.939-4.929-3.39-8.789-8.381-10.335-5.12-1.584-9.829-.586-13.659 3.299-3.375 3.425-4.205 7.781-3.995 12.394.292 6.338 4.611 12.226 10.251 13.562 5.157 1.226 10.14.462 14.731-2.328.299-.183.746-.472.759-.724.067-1.675.035-3.353.035-5.246-3.556 2.273-7.076 3.536-10.995 3.402-5.12-.173-9.266-4.472-8.816-9.32zm-12.898-10.822c4.255.049 7.002 2.849 7.047 7.356h-14.672c.193-4.228 3.538-7.4 7.625-7.356m-51.355-2.156c-.929.993-1.685 2.149-2.526 3.224-.231.297-.49.569-1.046 1.204V26.47h-5.604v1.89q.008 9.426.013 18.851v8.424h5.623v-.948q.056-.28.051-.68a463 463 0 0 1-.051-4.997v-1.799h-.006q0-3.713.051-7.422c.041-2.99 1.138-5.544 3.616-7.374 1.969-1.454 4.033-1.72 6.183-.424.939.566 1.836 1.198 2.88 1.878.955-1.596 1.912-3.202 2.845-4.763-3.85-4.207-8.474-4.428-12.027-.635Zm38.817-2.072c-1.959 0-3.534.067-5.101-.022-1.158-.066-1.964.307-2.735 1.179-3.171 3.59-6.41 7.121-9.621 10.677-.697.772-1.382 1.556-2.057 2.318.134.247.181.407.284.512 4.531 4.626 9.063 9.25 13.612 13.859.279.283.691.604 1.048.613 2.242.056 4.486.028 6.729.028l.241-.491-14.612-14.678zm-50.744 24.965c-2.382 1.255-2.982.909-2.982-1.739-.005-4.84.037-9.683-.025-14.523-.042-3.303-1.26-6.063-4.203-7.825-4.156-2.491-11.176-1.932-14.884 1.198-.526.447-1.124 1.127-1.184 1.747-.163 1.69-.057 3.41-.057 5.446.773-.699 1.206-1.275 1.781-1.579 1.93-1.018 3.817-2.32 5.888-2.817 4.368-1.043 6.854.986 7.049 5.176.054 1.149-.343 1.665-1.436 2.021-2.496.818-4.991 1.675-7.385 2.74-1.562.694-3.098 1.609-4.373 2.733-2.152 1.898-2.421 4.494-1.757 7.126.66 2.602 2.409 4.47 5.058 4.833 1.853.255 3.864-.082 5.713-.531 1.376-.334 2.609-1.268 3.904-1.935 1.641 2.644 3.795 3.407 6.674 2.374 3.311-1.186 3.635-1.665 3.205-4.917-.348.168-.675.309-.986.472m-8.653-2.241c0 .156.007.351-.077.46-1.3 1.693-3.061 2.528-5.159 2.609-1.744.069-3.266-.934-3.896-2.444-.741-1.774-.388-3.531 1.137-4.87 2.216-1.952 4.952-2.844 7.998-3.815 0 2.911.002 5.485-.002 8.06Z"/></svg>